  0
SECTION
  2
HEADER
  9
$ANGBASE
  50
0.0
  9
$ANGDIR
  70
1
  9
$MEASUREMENT
  70
1
  0
ENDSEC
  0
SECTION
  2
TABLES
  0
TABLE
  2
LTYPE
  70
4
  0
LTYPE
  5
40F
  2
CONTINUOUS
  70
0
  3
Solid line
  72
65
  73
0
  40
0.0
  0
LTYPE
  5
410
  2
DASHDOT
 70
0
  3
Dash Dot ____ _ ____ _
 72
65
 73
4
 40
2.0
 49
1.25
 49
-0.25
 49
0.25
 49
-0.25
  0
LTYPE
  5
411
  2
DASHED
 70
0
  3
Dashed __ __ __ __ __
 72
65
 73
2
 40
0.75
 49
0.5
 49
-0.25
  0
LTYPE
  5
43B
  2
DOTTED
 70
0
  3
Dotted .  .  .  .
 72
65
 73
2
 40
0.2
 49
0.0
 49
-0.2
  0
ENDTAB
  0
TABLE
  2
STYLE
  70
4
  0
STYLE
  2
KICAD
  70
0
  40
0
  41
1
  42
1
  50
0
  71
0
  3
isocp.shx
  0
STYLE
  2
KICADB
  70
0
  40
0
  41
1
  42
1
  50
0
  71
0
  3
isocp.shx
  0
STYLE
  2
KICADI
  70
0
  40
0
  41
1
  42
1
  50
15
  71
0
  3
isocp.shx
  0
STYLE
  2
KICADBI
  70
0
  40
0
  41
1
  42
1
  50
15
  71
0
  3
isocp.shx
  0
ENDTAB
  0
TABLE
  2
LAYER
  70
1
  0
LAYER
  2
BLACK
  70
0
  62
7
  6
CONTINUOUS
  0
ENDTAB
  0
ENDSEC
  0
SECTION
  2
ENTITIES
0
LINE
8
BLACK
6
CONTINUOUS
10
111.2012709999999913
20
-38.7138559999999998
11
111.4963920000000002
21
-38.7563989999999947
0
LINE
8
BLACK
6
CONTINUOUS
10
111.4963920000000002
20
-38.7563989999999947
11
111.7840849999999904
21
-38.8347489999999951
0
LINE
8
BLACK
6
CONTINUOUS
10
111.7840849999999904
20
-38.8347489999999951
11
112.0600239999999985
21
-38.9477259999999958
0
LINE
8
BLACK
6
CONTINUOUS
10
112.0600239999999985
20
-38.9477259999999958
11
112.3200579999999889
21
-39.0936309999999949
0
LINE
8
BLACK
6
CONTINUOUS
10
112.3200579999999889
20
-39.0936309999999949
11
112.5602769999999992
21
-39.2702699999999965
0
LINE
8
BLACK
6
CONTINUOUS
10
112.5602769999999992
20
-39.2702699999999965
11
112.7770659999999907
21
-39.4749860000000012
0
LINE
8
BLACK
6
CONTINUOUS
10
112.7770659999999907
20
-39.4749860000000012
11
112.9671659999999918
21
-39.704698999999998
0
LINE
8
BLACK
6
CONTINUOUS
10
112.9671659999999918
20
-39.704698999999998
11
113.1277159999999924
21
-39.9559549999999959
0
LINE
8
BLACK
6
CONTINUOUS
10
113.1277159999999924
20
-39.9559549999999959
11
113.2563029999999884
21
-40.2249750000000006
0
LINE
8
BLACK
6
CONTINUOUS
10
113.2563029999999884
20
-40.2249750000000006
11
113.3509859999999918
21
-40.5076959999999957
0
LINE
8
BLACK
6
CONTINUOUS
10
113.3509859999999918
20
-40.5076959999999957
11
113.350994
21
-40.5077110000000005
0
LINE
8
BLACK
6
CONTINUOUS
10
113.350994
20
-40.5077110000000005
11
113.653544999999994
21
-41.6368340000000003
0
LINE
8
BLACK
6
CONTINUOUS
10
113.653544999999994
20
-41.6368340000000003
11
113.6535509999999931
21
-41.6369339999999966
0
LINE
8
BLACK
6
CONTINUOUS
10
113.6535509999999931
20
-41.6369339999999966
11
113.6898899999999912
21
-41.7617440000000002
0
LINE
8
BLACK
6
CONTINUOUS
10
113.6898899999999912
20
-41.7617440000000002
11
113.7947329999999937
21
-42.0022710000000004
0
LINE
8
BLACK
6
CONTINUOUS
10
113.7947329999999937
20
-42.0022710000000004
11
113.9292489999999987
21
-42.2275500000000008
0
LINE
8
BLACK
6
CONTINUOUS
10
113.9292489999999987
20
-42.2275500000000008
11
114.0912629999999979
21
-42.4339389999999952
0
LINE
8
BLACK
6
CONTINUOUS
10
114.0912629999999979
20
-42.4339389999999952
11
114.2781559999999956
21
-42.6181020000000004
0
LINE
8
BLACK
6
CONTINUOUS
10
114.2781559999999956
20
-42.6181020000000004
11
114.486906999999988
21
-42.7770620000000008
0
LINE
8
BLACK
6
CONTINUOUS
10
114.486906999999988
20
-42.7770620000000008
11
114.6005569999999949
21
-42.8425979999999953
0
LINE
8
BLACK
6
CONTINUOUS
10
114.6005569999999949
20
-42.8425979999999953
11
114.6005589999999899
21
-42.8426009999999948
0
LINE
8
BLACK
6
CONTINUOUS
10
114.6005589999999899
20
-42.8426009999999948
11
114.6005649999999889
21
-42.8426029999999969
0
LINE
8
BLACK
6
CONTINUOUS
10
114.6005649999999889
20
-42.8426029999999969
11
129.3559019999999862
21
-51.3615999999999957
0
LINE
8
BLACK
6
CONTINUOUS
10
129.3559019999999862
20
-51.3615999999999957
11
129.3559039999999811
21
-51.3616010000000003
0
LINE
8
BLACK
6
CONTINUOUS
10
129.3559039999999811
20
-51.3616010000000003
11
129.6026169999999809
21
-51.5231390000000005
0
LINE
8
BLACK
6
CONTINUOUS
10
129.6026169999999809
20
-51.5231390000000005
11
129.8296929999999918
21
-51.7112829999999946
0
LINE
8
BLACK
6
CONTINUOUS
10
129.8296929999999918
20
-51.7112829999999946
11
130.034277000000003
21
-51.9236679999999993
0
LINE
8
BLACK
6
CONTINUOUS
10
130.034277000000003
20
-51.9236679999999993
11
130.2137950000000046
21
-52.157623000000001
0
LINE
8
BLACK
6
CONTINUOUS
10
130.2137950000000046
20
-52.157623000000001
11
130.3659910000000082
21
-52.4102069999999998
0
LINE
8
BLACK
6
CONTINUOUS
10
130.3659910000000082
20
-52.4102069999999998
11
130.4889499999999884
21
-52.6782419999999973
0
LINE
8
BLACK
6
CONTINUOUS
10
130.4889499999999884
20
-52.6782419999999973
11
130.5811190000000011
21
-52.9583370000000002
0
LINE
8
BLACK
6
CONTINUOUS
10
130.5811190000000011
20
-52.9583370000000002
11
130.5811300000000017
21
-52.9583579999999969
0
LINE
8
BLACK
6
CONTINUOUS
10
130.5811300000000017
20
-52.9583579999999969
11
131.4349179999999819
21
-56.1447409999999962
0
LINE
8
BLACK
6
CONTINUOUS
10
131.4349179999999819
20
-56.1447409999999962
11
131.4349220000000003
21
-56.1448040000000006
0
LINE
8
BLACK
6
CONTINUOUS
10
131.4349220000000003
20
-56.1448040000000006
11
131.4716750000000047
21
-56.2819669999999945
0
LINE
8
BLACK
6
CONTINUOUS
10
131.4716750000000047
20
-56.2819669999999945
11
131.5754799999999989
21
-56.5464529999999996
0
LINE
8
BLACK
6
CONTINUOUS
10
131.5754799999999989
20
-56.5464529999999996
11
131.7082440000000076
21
-56.7976539999999943
0
LINE
8
BLACK
6
CONTINUOUS
10
131.7082440000000076
20
-56.7976539999999943
11
131.8682990000000075
21
-57.0324099999999987
0
LINE
8
BLACK
6
CONTINUOUS
10
131.8682990000000075
20
-57.0324099999999987
11
132.0536319999999932
21
-57.2477710000000002
0
LINE
8
BLACK
6
CONTINUOUS
10
132.0536319999999932
20
-57.2477710000000002
11
132.2619119999999953
21
-57.4410260000000008
0
LINE
8
BLACK
6
CONTINUOUS
10
132.2619119999999953
20
-57.4410260000000008
11
132.4905210000000011
21
-57.6097459999999941
0
LINE
8
BLACK
6
CONTINUOUS
10
132.4905210000000011
20
-57.6097459999999941
11
132.6135510000000011
21
-57.6807779999999966
0
LINE
8
BLACK
6
CONTINUOUS
10
132.6135510000000011
20
-57.6807779999999966
11
132.6135510000000011
21
-57.680778999999994
0
LINE
8
BLACK
6
CONTINUOUS
10
132.6135510000000011
20
-57.680778999999994
11
132.6342280000000073
21
-57.7037429999999958
0
LINE
8
BLACK
6
CONTINUOUS
10
132.6342280000000073
20
-57.7037429999999958
11
132.6362239999999986
21
-57.7227350000000001
0
LINE
8
BLACK
6
CONTINUOUS
10
132.6362239999999986
20
-57.7227350000000001
11
144.5662629999999922
21
-64.6105469999999968
0
LINE
8
BLACK
6
CONTINUOUS
10
144.5662629999999922
20
-64.6105469999999968
11
144.7545849999999916
21
-64.7389419999999944
0
LINE
8
BLACK
6
CONTINUOUS
10
144.7545849999999916
20
-64.7389419999999944
11
144.9216679999999826
21
-64.8939709999999934
0
LINE
8
BLACK
6
CONTINUOUS
10
144.9216679999999826
20
-64.8939709999999934
11
145.0637769999999875
21
-65.0721709999999973
0
LINE
8
BLACK
6
CONTINUOUS
10
145.0637769999999875
20
-65.0721709999999973
11
145.1777390000000025
21
-65.2695619999999934
0
LINE
8
BLACK
6
CONTINUOUS
10
145.1777390000000025
20
-65.2695619999999934
11
145.2610070000000064
21
-65.481734000000003
0
LINE
8
BLACK
6
CONTINUOUS
10
145.2610070000000064
20
-65.481734000000003
11
145.3117220000000032
21
-65.7039469999999994
0
LINE
8
BLACK
6
CONTINUOUS
10
145.3117220000000032
20
-65.7039469999999994
11
145.3287420000000054
21
-65.931129999999996
0
LINE
8
BLACK
6
CONTINUOUS
10
145.3287420000000054
20
-65.931129999999996
11
145.3287629999999808
21
-65.9312359999999984
0
LINE
8
BLACK
6
CONTINUOUS
10
145.3287629999999808
20
-65.9312359999999984
11
145.3287629999999808
21
-86.8506089999999915
0
LINE
8
BLACK
6
CONTINUOUS
10
145.3287629999999808
20
-86.8506089999999915
11
145.3442149999999913
21
-86.8618349999999992
0
LINE
8
BLACK
6
CONTINUOUS
10
145.3442149999999913
20
-86.8618349999999992
11
145.3537649999999815
21
-86.891223999999994
0
LINE
8
BLACK
6
CONTINUOUS
10
145.3537649999999815
20
-86.891223999999994
11
145.3538110000000074
21
-86.891223999999994
0
LINE
8
BLACK
6
CONTINUOUS
10
145.3538110000000074
20
-86.891223999999994
11
145.3538139999999999
21
-86.9574319999999972
0
LINE
8
BLACK
6
CONTINUOUS
10
145.3538139999999999
20
-86.9574319999999972
11
145.3855079999999873
21
-87.085999000000001
0
LINE
8
BLACK
6
CONTINUOUS
10
145.3855079999999873
20
-87.085999000000001
11
145.4470479999999952
21
-87.2032469999999904
0
LINE
8
BLACK
6
CONTINUOUS
10
145.4470479999999952
20
-87.2032469999999904
11
145.5348589999999831
21
-87.3023599999999931
0
LINE
8
BLACK
6
CONTINUOUS
10
145.5348589999999831
20
-87.3023599999999931
11
145.6438369999999907
21
-87.3775789999999972
0
LINE
8
BLACK
6
CONTINUOUS
10
145.6438369999999907
20
-87.3775789999999972
11
145.7676490000000058
21
-87.4245329999999967
0
LINE
8
BLACK
6
CONTINUOUS
10
145.7676490000000058
20
-87.4245329999999967
11
145.8991000000000042
21
-87.4404940000000011
0
LINE
8
BLACK
6
CONTINUOUS
10
145.8991000000000042
20
-87.4404940000000011
11
146.0305510000000027
21
-87.4245339999999942
0
LINE
8
BLACK
6
CONTINUOUS
10
146.0305510000000027
20
-87.4245339999999942
11
146.1543629999999894
21
-87.3775789999999972
0
LINE
8
BLACK
6
CONTINUOUS
10
146.1543629999999894
20
-87.3775789999999972
11
146.2633409999999969
21
-87.3023599999999931
0
LINE
8
BLACK
6
CONTINUOUS
10
146.2633409999999969
20
-87.3023599999999931
11
146.3511509999999873
21
-87.2032469999999904
0
LINE
8
BLACK
6
CONTINUOUS
10
146.3511509999999873
20
-87.2032469999999904
11
146.4126919999999927
21
-87.0859999999999985
0
LINE
8
BLACK
6
CONTINUOUS
10
146.4126919999999927
20
-87.0859999999999985
11
146.4443859999999802
21
-86.9574329999999946
0
LINE
8
BLACK
6
CONTINUOUS
10
146.4443859999999802
20
-86.9574329999999946
11
146.444389000000001
21
-86.8912249999999915
0
LINE
8
BLACK
6
CONTINUOUS
10
146.444389000000001
20
-86.8912249999999915
11
146.444389000000001
21
-86.891223999999994
0
LINE
8
BLACK
6
CONTINUOUS
10
146.444389000000001
20
-86.891223999999994
11
146.4443929999999909
21
-67.047425000000004
0
LINE
8
BLACK
6
CONTINUOUS
10
146.4443929999999909
20
-67.047425000000004
11
146.4443929999999909
21
-67.0474239999999924
0
LINE
8
BLACK
6
CONTINUOUS
10
146.4443929999999909
20
-67.0474239999999924
11
146.4626739999999927
21
-66.7498190000000022
0
LINE
8
BLACK
6
CONTINUOUS
10
146.4626739999999927
20
-66.7498190000000022
11
146.5172469999999976
21
-66.4566889999999972
0
LINE
8
BLACK
6
CONTINUOUS
10
146.5172469999999976
20
-66.4566889999999972
11
146.6072920000000011
21
-66.1724439999999987
0
LINE
8
BLACK
6
CONTINUOUS
10
146.6072920000000011
20
-66.1724439999999987
11
146.7314549999999826
21
-65.9013589999999994
0
LINE
8
BLACK
6
CONTINUOUS
10
146.7314549999999826
20
-65.9013589999999994
11
146.8878679999999974
21
-65.6475109999999944
0
LINE
8
BLACK
6
CONTINUOUS
10
146.8878679999999974
20
-65.6475109999999944
11
147.0741779999999892
21
-65.414718999999991
0
LINE
8
BLACK
6
CONTINUOUS
10
147.0741779999999892
20
-65.414718999999991
11
147.2875839999999812
21
-65.2064840000000032
0
LINE
8
BLACK
6
CONTINUOUS
10
147.2875839999999812
20
-65.2064840000000032
11
147.5248739999999827
21
-65.0259379999999965
0
LINE
8
BLACK
6
CONTINUOUS
10
147.5248739999999827
20
-65.0259379999999965
11
147.78248099999999
21
-64.8757969999999915
0
LINE
8
BLACK
6
CONTINUOUS
10
147.78248099999999
20
-64.8757969999999915
11
148.0565289999999834
21
-64.7583190000000002
0
LINE
8
BLACK
6
CONTINUOUS
10
148.0565289999999834
20
-64.7583190000000002
11
148.3428969999999936
21
-64.6752709999999951
0
LINE
8
BLACK
6
CONTINUOUS
10
148.3428969999999936
20
-64.6752709999999951
11
148.6372779999999807
21
-64.6279019999999917
0
LINE
8
BLACK
6
CONTINUOUS
10
148.6372779999999807
20
-64.6279019999999917
11
148.9352429999999856
21
-64.6169249999999948
0
LINE
8
BLACK
6
CONTINUOUS
10
148.9352429999999856
20
-64.6169249999999948
11
149.232309999999984
21
-64.6425040000000024
0
LINE
8
BLACK
6
CONTINUOUS
10
149.232309999999984
20
-64.6425040000000024
11
149.5240129999999965
21
-64.7042550000000034
0
LINE
8
BLACK
6
CONTINUOUS
10
149.5240129999999965
20
-64.7042550000000034
11
149.8059629999999913
21
-64.8012489999999985
0
LINE
8
BLACK
6
CONTINUOUS
10
149.8059629999999913
20
-64.8012489999999985
11
150.0739189999999894
21
-64.9320280000000025
0
LINE
8
BLACK
6
CONTINUOUS
10
150.0739189999999894
20
-64.9320280000000025
11
150.323851999999988
21
-65.094623999999996
0
LINE
8
BLACK
6
CONTINUOUS
10
150.323851999999988
20
-65.094623999999996
11
150.55200099999999
21
-65.2865910000000014
0
LINE
8
BLACK
6
CONTINUOUS
10
150.55200099999999
20
-65.2865910000000014
11
150.754934999999989
21
-65.5050430000000006
0
LINE
8
BLACK
6
CONTINUOUS
10
150.754934999999989
20
-65.5050430000000006
11
150.929602999999986
21
-65.7466929999999934
0
LINE
8
BLACK
6
CONTINUOUS
10
150.929602999999986
20
-65.7466929999999934
11
151.0733769999999936
21
-66.007907000000003
0
LINE
8
BLACK
6
CONTINUOUS
10
151.0733769999999936
20
-66.007907000000003
11
151.1840929999999901
21
-66.2847560000000016
0
LINE
8
BLACK
6
CONTINUOUS
10
151.1840929999999901
20
-66.2847560000000016
11
151.2600879999999961
21
-66.5730760000000004
0
LINE
8
BLACK
6
CONTINUOUS
10
151.2600879999999961
20
-66.5730760000000004
11
151.300218000000001
21
-66.8685299999999927
0
LINE
8
BLACK
6
CONTINUOUS
10
151.300218000000001
20
-66.8685299999999927
11
151.3038789999999949
21
-67.1666749999999979
0
LINE
8
BLACK
6
CONTINUOUS
10
151.3038789999999949
20
-67.1666749999999979
11
151.2710170000000005
21
-67.4630250000000018
0
LINE
8
BLACK
6
CONTINUOUS
10
151.2710170000000005
20
-67.4630250000000018
11
151.2021249999999952
21
-67.7531249999999972
0
LINE
8
BLACK
6
CONTINUOUS
10
151.2021249999999952
20
-67.7531249999999972
11
151.0982400000000041
21
-68.0326089999999937
0
LINE
8
BLACK
6
CONTINUOUS
10
151.0982400000000041
20
-68.0326089999999937
11
150.9609250000000031
21
-68.2972749999999991
0
LINE
8
BLACK
6
CONTINUOUS
10
150.9609250000000031
20
-68.2972749999999991
11
150.7922439999999824
21
-68.5431409999999914
0
LINE
8
BLACK
6
CONTINUOUS
10
150.7922439999999824
20
-68.5431409999999914
11
150.5951780000000042
21
-68.7660089999999968
0
LINE
8
BLACK
6
CONTINUOUS
10
150.5951780000000042
20
-68.7660089999999968
11
150.5947999999999922
21
-68.7665750000000031
0
LINE
8
BLACK
6
CONTINUOUS
10
150.5947999999999922
20
-68.7665750000000031
11
150.5948009999999897
21
-68.7665760000000006
0
LINE
8
BLACK
6
CONTINUOUS
10
150.5948009999999897
20
-68.7665760000000006
11
150.5947979999999973
21
-68.7665769999999981
0
LINE
8
BLACK
6
CONTINUOUS
10
150.5947979999999973
20
-68.7665769999999981
11
149.7690020000000004
21
-69.5923760000000016
0
LINE
8
BLACK
6
CONTINUOUS
10
149.7690020000000004
20
-69.5923760000000016
11
149.7690049999999928
21
-69.592378999999994
0
LINE
8
BLACK
6
CONTINUOUS
10
149.7690049999999928
20
-69.592378999999994
11
149.6782550000000072
21
-69.6871170000000006
0
LINE
8
BLACK
6
CONTINUOUS
10
149.6782550000000072
20
-69.6871170000000006
11
149.5223709999999926
21
-69.8981699999999933
0
LINE
8
BLACK
6
CONTINUOUS
10
149.5223709999999926
20
-69.8981699999999933
11
149.3945269999999823
21
-70.1272969999999987
0
LINE
8
BLACK
6
CONTINUOUS
10
149.3945269999999823
20
-70.1272969999999987
11
149.2967899999999872
21
-70.3707940000000036
0
LINE
8
BLACK
6
CONTINUOUS
10
149.2967899999999872
20
-70.3707940000000036
11
149.2307389999999998
21
-70.624724999999998
0
LINE
8
BLACK
6
CONTINUOUS
10
149.2307389999999998
20
-70.624724999999998
11
149.1974429999999927
21
-70.8849840000000029
0
LINE
8
BLACK
6
CONTINUOUS
10
149.1974429999999927
20
-70.8849840000000029
11
149.1975070000000017
21
-71.0161739999999924
0
LINE
8
BLACK
6
CONTINUOUS
10
149.1975070000000017
20
-71.0161739999999924
11
149.1975050000000067
21
-71.016176999999999
0
LINE
8
BLACK
6
CONTINUOUS
10
149.1975050000000067
20
-71.016176999999999
11
149.1975070000000017
21
-71.0161829999999981
0
LINE
8
BLACK
6
CONTINUOUS
10
149.1975070000000017
20
-71.0161829999999981
11
149.1975070000000017
21
-88.0541789999999907
0
LINE
8
BLACK
6
CONTINUOUS
10
149.1975070000000017
20
-88.0541789999999907
11
149.1809749999999894
21
-88.3486099999999936
0
LINE
8
BLACK
6
CONTINUOUS
10
149.1809749999999894
20
-88.3486099999999936
11
149.1315799999999854
21
-88.63933999999999
0
LINE
8
BLACK
6
CONTINUOUS
10
149.1315799999999854
20
-88.63933999999999
11
149.0499460000000056
21
-88.9227109999999925
0
LINE
8
BLACK
6
CONTINUOUS
10
149.0499460000000056
20
-88.9227109999999925
11
148.9370969999999943
21
-89.1951600000000013
0
LINE
8
BLACK
6
CONTINUOUS
10
148.9370969999999943
20
-89.1951600000000013
11
148.7944540000000018
21
-89.4532609999999977
0
LINE
8
BLACK
6
CONTINUOUS
10
148.7944540000000018
20
-89.4532609999999977
11
148.6238089999999943
21
-89.6937679999999915
0
LINE
8
BLACK
6
CONTINUOUS
10
148.6238089999999943
20
-89.6937679999999915
11
148.4273100000000056
21
-89.9136579999999981
0
LINE
8
BLACK
6
CONTINUOUS
10
148.4273100000000056
20
-89.9136579999999981
11
148.4272849999999835
21
-89.9136329999999901
0
LINE
8
BLACK
6
CONTINUOUS
10
148.4272849999999835
20
-89.9136329999999901
11
146.0946950000000015
21
-92.2462249999999955
0
LINE
8
BLACK
6
CONTINUOUS
10
146.0946950000000015
20
-92.2462249999999955
11
146.0946940000000041
21
-92.2462280000000021
0
LINE
8
BLACK
6
CONTINUOUS
10
146.0946940000000041
20
-92.2462280000000021
11
146.0946930000000066
21
-92.2462269999999904
0
LINE
8
BLACK
6
CONTINUOUS
10
146.0946930000000066
20
-92.2462269999999904
11
146.0946930000000066
21
-92.2462280000000021
0
LINE
8
BLACK
6
CONTINUOUS
10
146.0946930000000066
20
-92.2462280000000021
11
146.0946590000000072
21
-92.2462499999999892
0
LINE
8
BLACK
6
CONTINUOUS
10
146.0946590000000072
20
-92.2462499999999892
11
145.9942350000000033
21
-92.3466769999999997
0
LINE
8
BLACK
6
CONTINUOUS
10
145.9942350000000033
20
-92.3466769999999997
11
145.8170859999999891
21
-92.5688169999999957
0
LINE
8
BLACK
6
CONTINUOUS
10
145.8170859999999891
20
-92.5688169999999957
11
145.6659229999999923
21
-92.809394999999995
0
LINE
8
BLACK
6
CONTINUOUS
10
145.6659229999999923
20
-92.809394999999995
11
145.5426449999999932
21
-93.0653839999999946
0
LINE
8
BLACK
6
CONTINUOUS
10
145.5426449999999932
20
-93.0653839999999946
11
145.4488029999999981
21
-93.3335670000000022
0
LINE
8
BLACK
6
CONTINUOUS
10
145.4488029999999981
20
-93.3335670000000022
11
145.3855779999999811
21
-93.6105689999999981
0
LINE
8
BLACK
6
CONTINUOUS
10
145.3855779999999811
20
-93.6105689999999981
11
145.3537629999999865
21
-93.8929089999999889
0
LINE
8
BLACK
6
CONTINUOUS
10
145.3537629999999865
20
-93.8929089999999889
11
145.353761999999989
21
-94.0349729999999937
0
LINE
8
BLACK
6
CONTINUOUS
10
145.353761999999989
20
-94.0349729999999937
11
145.3442129999999963
21
-94.0643620000000027
0
LINE
8
BLACK
6
CONTINUOUS
10
145.3442129999999963
20
-94.0643620000000027
11
145.3287619999999833
21
-94.0755869999999987
0
LINE
8
BLACK
6
CONTINUOUS
10
145.3287619999999833
20
-94.0755869999999987
11
145.3287629999999808
21
-107.8512109999999922
0
LINE
8
BLACK
6
CONTINUOUS
10
145.3287629999999808
20
-107.8512109999999922
11
145.3287629999999808
21
-107.8512119999999896
0
LINE
8
BLACK
6
CONTINUOUS
10
145.3287629999999808
20
-107.8512119999999896
11
145.311727999999988
21
-108.0784999999999911
0
LINE
8
BLACK
6
CONTINUOUS
10
145.311727999999988
20
-108.0784999999999911
11
145.2610070000000064
21
-108.3007099999999951
0
LINE
8
BLACK
6
CONTINUOUS
10
145.2610070000000064
20
-108.3007099999999951
11
145.1777339999999867
21
-108.5128780000000006
0
LINE
8
BLACK
6
CONTINUOUS
10
145.1777339999999867
20
-108.5128780000000006
11
145.0637679999999818
21
-108.7102649999999926
0
LINE
8
BLACK
6
CONTINUOUS
10
145.0637679999999818
20
-108.7102649999999926
11
144.9216559999999845
21
-108.8884609999999924
0
LINE
8
BLACK
6
CONTINUOUS
10
144.9216559999999845
20
-108.8884609999999924
11
144.754571999999996
21
-109.0434860000000015
0
LINE
8
BLACK
6
CONTINUOUS
10
144.754571999999996
20
-109.0434860000000015
11
144.5664429999999925
21
-109.1717419999999947
0
LINE
8
BLACK
6
CONTINUOUS
10
144.5664429999999925
20
-109.1717419999999947
11
144.5662629999999922
21
-109.1719009999999912
0
LINE
8
BLACK
6
CONTINUOUS
10
144.5662629999999922
20
-109.1719009999999912
11
126.4495569999999987
21
-119.6315889999999911
0
LINE
8
BLACK
6
CONTINUOUS
10
126.4495569999999987
20
-119.6315889999999911
11
126.4475599999999957
21
-119.6505849999999924
0
LINE
8
BLACK
6
CONTINUOUS
10
126.4475599999999957
20
-119.6505849999999924
11
126.426881999999992
21
-119.6735489999999942
0
LINE
8
BLACK
6
CONTINUOUS
10
126.426881999999992
20
-119.6735489999999942
11
126.4268609999999882
21
-119.6735129999999998
0
LINE
8
BLACK
6
CONTINUOUS
10
126.4268609999999882
20
-119.6735129999999998
11
126.3695129999999978
21
-119.7066189999999892
0
LINE
8
BLACK
6
CONTINUOUS
10
126.3695129999999978
20
-119.7066189999999892
11
126.2739959999999968
21
-119.7983559999999983
0
LINE
8
BLACK
6
CONTINUOUS
10
126.2739959999999968
20
-119.7983559999999983
11
126.2032090000000011
21
-119.9102859999999993
0
LINE
8
BLACK
6
CONTINUOUS
10
126.2032090000000011
20
-119.9102859999999993
11
126.1612679999999926
21
-120.0359039999999879
0
LINE
8
BLACK
6
CONTINUOUS
10
126.1612679999999926
20
-120.0359039999999879
11
126.1506079999999912
21
-120.167909999999992
0
LINE
8
BLACK
6
CONTINUOUS
10
126.1506079999999912
20
-120.167909999999992
11
126.1718509999999895
21
-120.2986310000000003
0
LINE
8
BLACK
6
CONTINUOUS
10
126.1718509999999895
20
-120.2986310000000003
11
126.2237599999999986
21
-120.4204689999999971
0
LINE
8
BLACK
6
CONTINUOUS
10
126.2237599999999986
20
-120.4204689999999971
11
126.3033199999999994
21
-120.5263429999999971
0
LINE
8
BLACK
6
CONTINUOUS
10
126.3033199999999994
20
-120.5263429999999971
11
126.4059059999999874
21
-120.6100989999999911
0
LINE
8
BLACK
6
CONTINUOUS
10
126.4059059999999874
20
-120.6100989999999911
11
126.5255559999999946
21
-120.6668710000000004
0
LINE
8
BLACK
6
CONTINUOUS
10
126.5255559999999946
20
-120.6668710000000004
11
126.6553159999999991
21
-120.6933569999999918
0
LINE
8
BLACK
6
CONTINUOUS
10
126.6553159999999991
20
-120.6933569999999918
11
126.7876440000000002
21
-120.688018999999997
0
LINE
8
BLACK
6
CONTINUOUS
10
126.7876440000000002
20
-120.688018999999997
11
126.9148489999999896
21
-120.6511670000000009
0
LINE
8
BLACK
6
CONTINUOUS
10
126.9148489999999896
20
-120.6511670000000009
11
126.9721929999999901
21
-120.6180559999999957
0
LINE
8
BLACK
6
CONTINUOUS
10
126.9721929999999901
20
-120.6180559999999957
11
126.9721939999999876
21
-120.6180559999999957
0
LINE
8
BLACK
6
CONTINUOUS
10
126.9721939999999876
20
-120.6180559999999957
11
126.9721949999999993
21
-120.6180549999999982
0
LINE
8
BLACK
6
CONTINUOUS
10
126.9721949999999993
20
-120.6180549999999982
11
126.9721959999999967
21
-120.6180549999999982
0
LINE
8
BLACK
6
CONTINUOUS
10
126.9721959999999967
20
-120.6180549999999982
11
144.1574329999999975
21
-110.6961589999999944
0
LINE
8
BLACK
6
CONTINUOUS
10
144.1574329999999975
20
-110.6961589999999944
11
144.4243139999999812
21
-110.5631879999999967
0
LINE
8
BLACK
6
CONTINUOUS
10
144.4243139999999812
20
-110.5631879999999967
11
144.7054640000000063
21
-110.463885999999988
0
LINE
8
BLACK
6
CONTINUOUS
10
144.7054640000000063
20
-110.463885999999988
11
144.9966560000000015
21
-110.3997459999999933
0
LINE
8
BLACK
6
CONTINUOUS
10
144.9966560000000015
20
-110.3997459999999933
11
145.2935090000000002
21
-110.3717339999999894
0
LINE
8
BLACK
6
CONTINUOUS
10
145.2935090000000002
20
-110.3717339999999894
11
145.591557999999992
21
-110.3802699999999959
0
LINE
8
BLACK
6
CONTINUOUS
10
145.591557999999992
20
-110.3802699999999959
11
145.8863220000000069
21
-110.4252269999999925
0
LINE
8
BLACK
6
CONTINUOUS
10
145.8863220000000069
20
-110.4252269999999925
11
146.1733649999999898
21
-110.5059279999999973
0
LINE
8
BLACK
6
CONTINUOUS
10
146.1733649999999898
20
-110.5059279999999973
11
146.4483709999999803
21
-110.6211589999999916
0
LINE
8
BLACK
6
CONTINUOUS
10
146.4483709999999803
20
-110.6211589999999916
11
146.7072029999999927
21
-110.7691869999999881
0
LINE
8
BLACK
6
CONTINUOUS
10
146.7072029999999927
20
-110.7691869999999881
11
146.945968999999991
21
-110.9477859999999936
0
LINE
8
BLACK
6
CONTINUOUS
10
146.945968999999991
20
-110.9477859999999936
11
147.16107599999998
21
-111.1542689999999993
0
LINE
8
BLACK
6
CONTINUOUS
10
147.16107599999998
20
-111.1542689999999993
11
147.3492899999999963
21
-111.3855299999999886
0
LINE
8
BLACK
6
CONTINUOUS
10
147.3492899999999963
20
-111.3855299999999886
11
147.5077799999999968
21
-111.6380920000000003
0
LINE
8
BLACK
6
CONTINUOUS
10
147.5077799999999968
20
-111.6380920000000003
11
147.6341620000000034
21
-111.9081559999999911
0
LINE
8
BLACK
6
CONTINUOUS
10
147.6341620000000034
20
-111.9081559999999911
11
147.7265339999999867
21
-112.1916579999999897
0
LINE
8
BLACK
6
CONTINUOUS
10
147.7265339999999867
20
-112.1916579999999897
11
147.7835079999999834
21
-112.484335999999999
0
LINE
8
BLACK
6
CONTINUOUS
10
147.7835079999999834
20
-112.484335999999999
11
147.8042269999999974
21
-112.7817879999999917
0
LINE
8
BLACK
6
CONTINUOUS
10
147.8042269999999974
20
-112.7817879999999917
11
147.7883779999999945
21
-113.0795379999999994
0
LINE
8
BLACK
6
CONTINUOUS
10
147.7883779999999945
20
-113.0795379999999994
11
147.7362009999999941
21
-113.3731089999999995
0
LINE
8
BLACK
6
CONTINUOUS
10
147.7362009999999941
20
-113.3731089999999995
11
147.6484800000000064
21
-113.6580859999999973
0
LINE
8
BLACK
6
CONTINUOUS
10
147.6484800000000064
20
-113.6580859999999973
11
147.5265349999999955
21
-113.9301809999999904
0
LINE
8
BLACK
6
CONTINUOUS
10
147.5265349999999955
20
-113.9301809999999904
11
147.3721989999999948
21
-114.185301999999993
0
LINE
8
BLACK
6
CONTINUOUS
10
147.3721989999999948
20
-114.185301999999993
11
147.1877939999999967
21
-114.4196129999999982
0
LINE
8
BLACK
6
CONTINUOUS
10
147.1877939999999967
20
-114.4196129999999982
11
146.9760939999999891
21
-114.6295879999999983
0
LINE
8
BLACK
6
CONTINUOUS
10
146.9760939999999891
20
-114.6295879999999983
11
146.7402830000000051
21
-114.8120699999999914
0
LINE
8
BLACK
6
CONTINUOUS
10
146.7402830000000051
20
-114.8120699999999914
11
146.4839079999999853
21
-114.9643140000000017
0
LINE
8
BLACK
6
CONTINUOUS
10
146.4839079999999853
20
-114.9643140000000017
11
146.2108240000000023
21
-115.084029000000001
0
LINE
8
BLACK
6
CONTINUOUS
10
146.2108240000000023
20
-115.084029000000001
11
145.925139999999999
21
-115.1694159999999982
0
LINE
8
BLACK
6
CONTINUOUS
10
145.925139999999999
20
-115.1694159999999982
11
145.6311519999999859
21
-115.2191899999999976
0
LINE
8
BLACK
6
CONTINUOUS
10
145.6311519999999859
20
-115.2191899999999976
11
145.333281999999997
21
-115.2326029999999975
0
LINE
8
BLACK
6
CONTINUOUS
10
145.333281999999997
20
-115.2326029999999975
11
145.0360100000000045
21
-115.2094519999999989
0
LINE
8
BLACK
6
CONTINUOUS
10
145.0360100000000045
20
-115.2094519999999989
11
144.743852000000004
21
-115.1500939999999957
0
LINE
8
BLACK
6
CONTINUOUS
10
144.743852000000004
20
-115.1500939999999957
11
144.7438060000000064
21
-115.1500909999999891
0
LINE
8
BLACK
6
CONTINUOUS
10
144.7438060000000064
20
-115.1500909999999891
11
143.6157419999999831
21
-114.8478279999999927
0
LINE
8
BLACK
6
CONTINUOUS
10
143.6157419999999831
20
-114.8478279999999927
11
143.6157369999999958
21
-114.847849999999994
0
LINE
8
BLACK
6
CONTINUOUS
10
143.6157369999999958
20
-114.847849999999994
11
143.4883179999999925
21
-114.8166269999999969
0
LINE
8
BLACK
6
CONTINUOUS
10
143.4883179999999925
20
-114.8166269999999969
11
143.2275989999999979
21
-114.7871509999999944
0
LINE
8
BLACK
6
CONTINUOUS
10
143.2275989999999979
20
-114.7871509999999944
11
142.9652480000000025
21
-114.7909959999999927
0
LINE
8
BLACK
6
CONTINUOUS
10
142.9652480000000025
20
-114.7909959999999927
11
142.7055059999999855
21
-114.8280979999999971
0
LINE
8
BLACK
6
CONTINUOUS
10
142.7055059999999855
20
-114.8280979999999971
11
142.4525710000000061
21
-114.8978589999999969
0
LINE
8
BLACK
6
CONTINUOUS
10
142.4525710000000061
20
-114.8978589999999969
11
142.2105320000000006
21
-114.9991500000000002
0
LINE
8
BLACK
6
CONTINUOUS
10
142.2105320000000006
20
-114.9991500000000002
11
142.0969489999999951
21
-115.0647999999999911
0
LINE
8
BLACK
6
CONTINUOUS
10
142.0969489999999951
20
-115.0647999999999911
11
142.0969489999999951
21
-115.0647989999999936
0
LINE
8
BLACK
6
CONTINUOUS
10
142.0969489999999951
20
-115.0647989999999936
11
142.0969470000000001
21
-115.0647989999999936
0
LINE
8
BLACK
6
CONTINUOUS
10
142.0969470000000001
20
-115.0647989999999936
11
142.0969409999999868
21
-115.0648049999999927
0
LINE
8
BLACK
6
CONTINUOUS
10
142.0969409999999868
20
-115.0648049999999927
11
127.3416039999999896
21
-123.583800999999994
0
LINE
8
BLACK
6
CONTINUOUS
10
127.3416039999999896
20
-123.583800999999994
11
127.3416029999999921
21
-123.5838019999999915
0
LINE
8
BLACK
6
CONTINUOUS
10
127.3416029999999921
20
-123.5838019999999915
11
127.3416029999999921
21
-123.583800999999994
0
LINE
8
BLACK
6
CONTINUOUS
10
127.3416029999999921
20
-123.583800999999994
11
127.3415999999999997
21
-123.5838019999999915
0
LINE
8
BLACK
6
CONTINUOUS
10
127.3415999999999997
20
-123.5838019999999915
11
127.0783509999999978
21
-123.7166909999999973
0
LINE
8
BLACK
6
CONTINUOUS
10
127.0783509999999978
20
-123.7166909999999973
11
126.8018759999999929
21
-123.8192710000000005
0
LINE
8
BLACK
6
CONTINUOUS
10
126.8018759999999929
20
-123.8192710000000005
11
126.5156539999999978
21
-123.8902509999999921
0
LINE
8
BLACK
6
CONTINUOUS
10
126.5156539999999978
20
-123.8902509999999921
11
126.2232839999999925
21
-123.9287379999999956
0
LINE
8
BLACK
6
CONTINUOUS
10
126.2232839999999925
20
-123.9287379999999956
11
125.9284439999999989
21
-123.9342489999999941
0
LINE
8
BLACK
6
CONTINUOUS
10
125.9284439999999989
20
-123.9342489999999941
11
125.634839999999997
21
-123.9067139999999938
0
LINE
8
BLACK
6
CONTINUOUS
10
125.634839999999997
20
-123.9067139999999938
11
125.3463139999999925
21
-123.846509999999995
0
LINE
8
BLACK
6
CONTINUOUS
10
125.3463139999999925
20
-123.846509999999995
11
125.3461599999999976
21
-123.8464999999999918
0
LINE
8
BLACK
6
CONTINUOUS
10
125.3461599999999976
20
-123.8464999999999918
11
122.1597769999999912
21
-122.9927139999999923
0
LINE
8
BLACK
6
CONTINUOUS
10
122.1597769999999912
20
-122.9927139999999923
11
122.1597759999999937
21
-122.9927129999999948
0
LINE
8
BLACK
6
CONTINUOUS
10
122.1597759999999937
20
-122.9927129999999948
11
122.1597759999999937
21
-122.9927139999999923
0
LINE
8
BLACK
6
CONTINUOUS
10
122.1597759999999937
20
-122.9927139999999923
11
122.1597679999999997
21
-122.9927449999999993
0
LINE
8
BLACK
6
CONTINUOUS
10
122.1597679999999997
20
-122.9927449999999993
11
122.0225469999999888
21
-122.9559739999999977
0
LINE
8
BLACK
6
CONTINUOUS
10
122.0225469999999888
20
-122.9559739999999977
11
121.7415960000000013
21
-122.9136219999999895
0
LINE
8
BLACK
6
CONTINUOUS
10
121.7415960000000013
20
-122.9136219999999895
11
121.4576699999999931
21
-122.902992999999995
0
LINE
8
BLACK
6
CONTINUOUS
10
121.4576699999999931
20
-122.902992999999995
11
121.1743400000000008
21
-122.9242199999999912
0
LINE
8
BLACK
6
CONTINUOUS
10
121.1743400000000008
20
-122.9242199999999912
11
120.8951670000000007
21
-122.9770369999999957
0
LINE
8
BLACK
6
CONTINUOUS
10
120.8951670000000007
20
-122.9770369999999957
11
120.6236639999999909
21
-123.0607789999999966
0
LINE
8
BLACK
6
CONTINUOUS
10
120.6236639999999909
20
-123.0607789999999966
11
120.3632429999999971
21
-123.1743929999999949
0
LINE
8
BLACK
6
CONTINUOUS
10
120.3632429999999971
20
-123.1743929999999949
11
120.2402119999999996
21
-123.2454219999999907
0
LINE
8
BLACK
6
CONTINUOUS
10
120.2402119999999996
20
-123.2454219999999907
11
120.2099860000000007
21
-123.2518460000000005
0
LINE
8
BLACK
6
CONTINUOUS
10
120.2099860000000007
20
-123.2518460000000005
11
120.1925389999999965
21
-123.2440779999999876
0
LINE
8
BLACK
6
CONTINUOUS
10
120.1925389999999965
20
-123.2440779999999876
11
108.2625019999999978
21
-130.1318880000000036
0
LINE
8
BLACK
6
CONTINUOUS
10
108.2625019999999978
20
-130.1318880000000036
11
108.0571470000000005
21
-130.2307820000000049
0
LINE
8
BLACK
6
CONTINUOUS
10
108.0571470000000005
20
-130.2307820000000049
11
107.8393459999999919
21
-130.2979650000000049
0
LINE
8
BLACK
6
CONTINUOUS
10
107.8393459999999919
20
-130.2979650000000049
11
107.6139639999999957
21
-130.3319359999999847
0
LINE
8
BLACK
6
CONTINUOUS
10
107.6139639999999957
20
-130.3319359999999847
11
107.3860370000000017
21
-130.3319359999999847
0
LINE
8
BLACK
6
CONTINUOUS
10
107.3860370000000017
20
-130.3319359999999847
11
107.1606549999999913
21
-130.2979650000000049
0
LINE
8
BLACK
6
CONTINUOUS
10
107.1606549999999913
20
-130.2979650000000049
11
106.942853999999997
21
-130.2307820000000049
0
LINE
8
BLACK
6
CONTINUOUS
10
106.942853999999997
20
-130.2307820000000049
11
106.7374989999999997
21
-130.1318880000000036
0
LINE
8
BLACK
6
CONTINUOUS
10
106.7374989999999997
20
-130.1318880000000036
11
106.7374999999999972
21
-130.1318870000000061
0
LINE
8
BLACK
6
CONTINUOUS
10
106.7374999999999972
20
-130.1318870000000061
11
88.6208309999999955
21
-119.6721829999999898
0
LINE
8
BLACK
6
CONTINUOUS
10
88.6208309999999955
20
-119.6721829999999898
11
88.6033499999999918
21
-119.6799679999999881
0
LINE
8
BLACK
6
CONTINUOUS
10
88.6033499999999918
20
-119.6799679999999881
11
88.5731229999999954
21
-119.6735449999999901
0
LINE
8
BLACK
6
CONTINUOUS
10
88.5731229999999954
20
-119.6735449999999901
11
88.5731399999999951
21
-119.6735149999999948
0
LINE
8
BLACK
6
CONTINUOUS
10
88.5731399999999951
20
-119.6735149999999948
11
88.5157969999999921
21
-119.6404119999999978
0
LINE
8
BLACK
6
CONTINUOUS
10
88.5157969999999921
20
-119.6404119999999978
11
88.3885989999999993
21
-119.6035739999999947
0
LINE
8
BLACK
6
CONTINUOUS
10
88.3885989999999993
20
-119.6035739999999947
11
88.2562810000000013
21
-119.5982470000000006
0
LINE
8
BLACK
6
CONTINUOUS
10
88.2562810000000013
20
-119.5982470000000006
11
88.1265329999999949
21
-119.6247379999999936
0
LINE
8
BLACK
6
CONTINUOUS
10
88.1265329999999949
20
-119.6247379999999936
11
88.0068950000000001
21
-119.6815089999999913
0
LINE
8
BLACK
6
CONTINUOUS
10
88.0068950000000001
20
-119.6815089999999913
11
87.9043179999999893
21
-119.7652609999999953
0
LINE
8
BLACK
6
CONTINUOUS
10
87.9043179999999893
20
-119.7652609999999953
11
87.8247640000000018
21
-119.8711270000000013
0
LINE
8
BLACK
6
CONTINUOUS
10
87.8247640000000018
20
-119.8711270000000013
11
87.7728559999999902
21
-119.9929539999999974
0
LINE
8
BLACK
6
CONTINUOUS
10
87.7728559999999902
20
-119.9929539999999974
11
87.7516099999999994
21
-120.1236629999999934
0
LINE
8
BLACK
6
CONTINUOUS
10
87.7516099999999994
20
-120.1236629999999934
11
87.7622609999999952
21
-120.2556589999999943
0
LINE
8
BLACK
6
CONTINUOUS
10
87.7622609999999952
20
-120.2556589999999943
11
87.8041899999999913
21
-120.3812709999999981
0
LINE
8
BLACK
6
CONTINUOUS
10
87.8041899999999913
20
-120.3812709999999981
11
87.8749600000000015
21
-120.49319899999999
0
LINE
8
BLACK
6
CONTINUOUS
10
87.8749600000000015
20
-120.49319899999999
11
87.9704600000000028
21
-120.5849389999999914
0
LINE
8
BLACK
6
CONTINUOUS
10
87.9704600000000028
20
-120.5849389999999914
11
88.0277990000000017
21
-120.6180499999999967
0
LINE
8
BLACK
6
CONTINUOUS
10
88.0277990000000017
20
-120.6180499999999967
11
88.02779799999999
21
-120.6180499999999967
0
LINE
8
BLACK
6
CONTINUOUS
10
88.02779799999999
20
-120.6180499999999967
11
105.2130319999999983
21
-130.5399579999999844
0
LINE
8
BLACK
6
CONTINUOUS
10
105.2130319999999983
20
-130.5399579999999844
11
105.461630999999997
21
-130.7045990000000018
0
LINE
8
BLACK
6
CONTINUOUS
10
105.461630999999997
20
-130.7045990000000018
11
105.6882069999999914
21
-130.8984329999999829
0
LINE
8
BLACK
6
CONTINUOUS
10
105.6882069999999914
20
-130.8984329999999829
11
105.8893509999999907
21
-131.1185449999999832
0
LINE
8
BLACK
6
CONTINUOUS
10
105.8893509999999907
20
-131.1185449999999832
11
106.0620380000000011
21
-131.3616240000000062
0
LINE
8
BLACK
6
CONTINUOUS
10
106.0620380000000011
20
-131.3616240000000062
11
106.2036719999999974
21
-131.6240139999999883
0
LINE
8
BLACK
6
CONTINUOUS
10
106.2036719999999974
20
-131.6240139999999883
11
106.3121199999999931
21
-131.9017670000000066
0
LINE
8
BLACK
6
CONTINUOUS
10
106.3121199999999931
20
-131.9017670000000066
11
106.3857539999999915
21
-132.1907080000000008
0
LINE
8
BLACK
6
CONTINUOUS
10
106.3857539999999915
20
-132.1907080000000008
11
106.4234639999999956
21
-132.48648799999998
0
LINE
8
BLACK
6
CONTINUOUS
10
106.4234639999999956
20
-132.48648799999998
11
106.4246830000000017
21
-132.7846609999999998
0
LINE
8
BLACK
6
CONTINUOUS
10
106.4246830000000017
20
-132.7846609999999998
11
106.3893939999999958
21
-133.0807399999999916
0
LINE
8
BLACK
6
CONTINUOUS
10
106.3893939999999958
20
-133.0807399999999916
11
106.3181269999999898
21
-133.3702729999999974
0
LINE
8
BLACK
6
CONTINUOUS
10
106.3181269999999898
20
-133.3702729999999974
11
106.2119539999999915
21
-133.6489039999999875
0
LINE
8
BLACK
6
CONTINUOUS
10
106.2119539999999915
20
-133.6489039999999875
11
106.0724719999999905
21
-133.9124439999999936
0
LINE
8
BLACK
6
CONTINUOUS
10
106.0724719999999905
20
-133.9124439999999936
11
105.9017779999999931
21
-134.156926999999996
0
LINE
8
BLACK
6
CONTINUOUS
10
105.9017779999999931
20
-134.156926999999996
11
105.7024409999999932
21
-134.3786769999999819
0
LINE
8
BLACK
6
CONTINUOUS
10
105.7024409999999932
20
-134.3786769999999819
11
105.4774589999999961
21
-134.5743579999999895
0
LINE
8
BLACK
6
CONTINUOUS
10
105.4774589999999961
20
-134.5743579999999895
11
105.2302150000000012
21
-134.741028
0
LINE
8
BLACK
6
CONTINUOUS
10
105.2302150000000012
20
-134.741028
11
104.9644279999999981
21
-134.8761779999999817
0
LINE
8
BLACK
6
CONTINUOUS
10
104.9644279999999981
20
-134.8761779999999817
11
104.6840959999999967
21
-134.9777770000000032
0
LINE
8
BLACK
6
CONTINUOUS
10
104.6840959999999967
20
-134.9777770000000032
11
104.3934359999999941
21
-135.0442960000000028
0
LINE
8
BLACK
6
CONTINUOUS
10
104.3934359999999941
20
-135.0442960000000028
11
104.0968189999999964
21
-135.074735000000004
0
LINE
8
BLACK
6
CONTINUOUS
10
104.0968189999999964
20
-135.074735000000004
11
103.7987059999999957
21
-135.0686359999999979
0
LINE
8
BLACK
6
CONTINUOUS
10
103.7987059999999957
20
-135.0686359999999979
11
103.5035819999999944
21
-135.0260910000000081
0
LINE
8
BLACK
6
CONTINUOUS
10
103.5035819999999944
20
-135.0260910000000081
11
103.2158859999999976
21
-134.9477389999999843
0
LINE
8
BLACK
6
CONTINUOUS
10
103.2158859999999976
20
-134.9477389999999843
11
102.939943999999997
21
-134.8347589999999911
0
LINE
8
BLACK
6
CONTINUOUS
10
102.939943999999997
20
-134.8347589999999911
11
102.6799079999999975
21
-134.6888509999999997
0
LINE
8
BLACK
6
CONTINUOUS
10
102.6799079999999975
20
-134.6888509999999997
11
102.4396869999999922
21
-134.5122079999999869
0
LINE
8
BLACK
6
CONTINUOUS
10
102.4396869999999922
20
-134.5122079999999869
11
102.222896999999989
21
-134.3074890000000039
0
LINE
8
BLACK
6
CONTINUOUS
10
102.222896999999989
20
-134.3074890000000039
11
102.0327959999999905
21
-134.0777709999999843
0
LINE
8
BLACK
6
CONTINUOUS
10
102.0327959999999905
20
-134.0777709999999843
11
101.8722459999999899
21
-133.8265109999999822
0
LINE
8
BLACK
6
CONTINUOUS
10
101.8722459999999899
20
-133.8265109999999822
11
101.7436589999999939
21
-133.5574869999999805
0
LINE
8
BLACK
6
CONTINUOUS
10
101.7436589999999939
20
-133.5574869999999805
11
101.6489709999999889
21
-133.2747459999999933
0
LINE
8
BLACK
6
CONTINUOUS
10
101.6489709999999889
20
-133.2747459999999933
11
101.6490039999999908
21
-133.274737999999985
0
LINE
8
BLACK
6
CONTINUOUS
10
101.6490039999999908
20
-133.274737999999985
11
101.3464510000000018
21
-132.1456159999999898
0
LINE
8
BLACK
6
CONTINUOUS
10
101.3464510000000018
20
-132.1456159999999898
11
101.3464489999999927
21
-132.1456000000000017
0
LINE
8
BLACK
6
CONTINUOUS
10
101.3464489999999927
20
-132.1456000000000017
11
101.3100900000000024
21
-132.0207100000000082
0
LINE
8
BLACK
6
CONTINUOUS
10
101.3100900000000024
20
-132.0207100000000082
11
101.205252999999999
21
-131.7801819999999964
0
LINE
8
BLACK
6
CONTINUOUS
10
101.205252999999999
20
-131.7801819999999964
11
101.0707419999999956
21
-131.554901000000001
0
LINE
8
BLACK
6
CONTINUOUS
10
101.0707419999999956
20
-131.554901000000001
11
100.9087320000000005
21
-131.3485100000000045
0
LINE
8
BLACK
6
CONTINUOUS
10
100.9087320000000005
20
-131.3485100000000045
11
100.7218419999999952
21
-131.1643449999999973
0
LINE
8
BLACK
6
CONTINUOUS
10
100.7218419999999952
20
-131.1643449999999973
11
100.5130929999999978
21
-131.0053829999999948
0
LINE
8
BLACK
6
CONTINUOUS
10
100.5130929999999978
20
-131.0053829999999948
11
100.3994450000000001
21
-130.9398459999999886
0
LINE
8
BLACK
6
CONTINUOUS
10
100.3994450000000001
20
-130.9398459999999886
11
100.3994409999999959
21
-130.9398410000000013
0
LINE
8
BLACK
6
CONTINUOUS
10
100.3994409999999959
20
-130.9398410000000013
11
85.644100999999992
21
-122.4208529999999939
0
LINE
8
BLACK
6
CONTINUOUS
10
85.644100999999992
20
-122.4208529999999939
11
85.6440989999999971
21
-122.4208529999999939
0
LINE
8
BLACK
6
CONTINUOUS
10
85.6440989999999971
20
-122.4208529999999939
11
85.6440989999999971
21
-122.4208519999999965
0
LINE
8
BLACK
6
CONTINUOUS
10
85.6440989999999971
20
-122.4208519999999965
11
85.6440959999999905
21
-122.4208489999999898
0
LINE
8
BLACK
6
CONTINUOUS
10
85.6440959999999905
20
-122.4208489999999898
11
85.3973799999999983
21
-122.2593189999999908
0
LINE
8
BLACK
6
CONTINUOUS
10
85.3973799999999983
20
-122.2593189999999908
11
85.170299
21
-122.0711769999999916
0
LINE
8
BLACK
6
CONTINUOUS
10
85.170299
20
-122.0711769999999916
11
84.9657109999999989
21
-121.8587929999999915
0
LINE
8
BLACK
6
CONTINUOUS
10
84.9657109999999989
20
-121.8587929999999915
11
84.7861889999999931
21
-121.6248369999999994
0
LINE
8
BLACK
6
CONTINUOUS
10
84.7861889999999931
20
-121.6248369999999994
11
84.6339909999999946
21
-121.3722519999999889
0
LINE
8
BLACK
6
CONTINUOUS
10
84.6339909999999946
20
-121.3722519999999889
11
84.5110310000000027
21
-121.1042139999999989
0
LINE
8
BLACK
6
CONTINUOUS
10
84.5110310000000027
20
-121.1042139999999989
11
84.418855999999991
21
-120.8240939999999881
0
LINE
8
BLACK
6
CONTINUOUS
10
84.418855999999991
20
-120.8240939999999881
11
84.4188729999999907
21
-120.8240899999999982
0
LINE
8
BLACK
6
CONTINUOUS
10
84.4188729999999907
20
-120.8240899999999982
11
83.5650890000000004
21
-117.6377129999999909
0
LINE
8
BLACK
6
CONTINUOUS
10
83.5650890000000004
20
-117.6377129999999909
11
83.5650830000000013
21
-117.637715
0
LINE
8
BLACK
6
CONTINUOUS
10
83.5650830000000013
20
-117.637715
11
83.5283129999999971
21
-117.5004929999999916
0
LINE
8
BLACK
6
CONTINUOUS
10
83.5283129999999971
20
-117.5004929999999916
11
83.424508000000003
21
-117.2360070000000007
0
LINE
8
BLACK
6
CONTINUOUS
10
83.424508000000003
20
-117.2360070000000007
11
83.2917449999999917
21
-116.9848059999999919
0
LINE
8
BLACK
6
CONTINUOUS
10
83.2917449999999917
20
-116.9848059999999919
11
83.1316909999999893
21
-116.7500479999999925
0
LINE
8
BLACK
6
CONTINUOUS
10
83.1316909999999893
20
-116.7500479999999925
11
82.946360999999996
21
-116.5346859999999936
0
LINE
8
BLACK
6
CONTINUOUS
10
82.946360999999996
20
-116.5346859999999936
11
82.7380840000000006
21
-116.3414279999999934
0
LINE
8
BLACK
6
CONTINUOUS
10
82.7380840000000006
20
-116.3414279999999934
11
82.5094789999999989
21
-116.1727029999999985
0
LINE
8
BLACK
6
CONTINUOUS
10
82.5094789999999989
20
-116.1727029999999985
11
82.3864499999999964
21
-116.1016679999999894
0
LINE
8
BLACK
6
CONTINUOUS
10
82.3864499999999964
20
-116.1016679999999894
11
82.3864509999999939
21
-116.1016679999999894
0
LINE
8
BLACK
6
CONTINUOUS
10
82.3864509999999939
20
-116.1016679999999894
11
82.3657740000000018
21
-116.0787029999999902
0
LINE
8
BLACK
6
CONTINUOUS
10
82.3657740000000018
20
-116.0787029999999902
11
82.3637779999999964
21
-116.059710999999993
0
LINE
8
BLACK
6
CONTINUOUS
10
82.3637779999999964
20
-116.059710999999993
11
70.4337369999999936
21
-109.1719009999999912
0
LINE
8
BLACK
6
CONTINUOUS
10
70.4337369999999936
20
-109.1719009999999912
11
70.4337280000000021
21
-109.1718929999999972
0
LINE
8
BLACK
6
CONTINUOUS
10
70.4337280000000021
20
-109.1718929999999972
11
70.2454109999999901
21
-109.0435079999999886
0
LINE
8
BLACK
6
CONTINUOUS
10
70.2454109999999901
20
-109.0435079999999886
11
70.0783229999999975
21
-108.8884800000000013
0
LINE
8
BLACK
6
CONTINUOUS
10
70.0783229999999975
20
-108.8884800000000013
11
69.9362079999999935
21
-108.7102799999999974
0
LINE
8
BLACK
6
CONTINUOUS
10
69.9362079999999935
20
-108.7102799999999974
11
69.8222409999999911
21
-108.5128890000000013
0
LINE
8
BLACK
6
CONTINUOUS
10
69.8222409999999911
20
-108.5128890000000013
11
69.7389659999999907
21
-108.3007169999999917
0
LINE
8
BLACK
6
CONTINUOUS
10
69.7389659999999907
20
-108.3007169999999917
11
69.6882439999999974
21
-108.0785029999999978
0
LINE
8
BLACK
6
CONTINUOUS
10
69.6882439999999974
20
-108.0785029999999978
11
69.6712089999999904
21
-107.8512109999999922
0
LINE
8
BLACK
6
CONTINUOUS
10
69.6712089999999904
20
-107.8512109999999922
11
69.6712369999999908
21
-107.8512109999999922
0
LINE
8
BLACK
6
CONTINUOUS
10
69.6712369999999908
20
-107.8512109999999922
11
69.6712369999999908
21
-86.9318409999999915
0
LINE
8
BLACK
6
CONTINUOUS
10
69.6712369999999908
20
-86.9318409999999915
11
69.6557829999999996
21
-86.920613000000003
0
LINE
8
BLACK
6
CONTINUOUS
10
69.6557829999999996
20
-86.920613000000003
11
69.6462339999999926
21
-86.891223999999994
0
LINE
8
BLACK
6
CONTINUOUS
10
69.6462339999999926
20
-86.891223999999994
11
69.6462339999999926
21
-86.8250109999999893
0
LINE
8
BLACK
6
CONTINUOUS
10
69.6462339999999926
20
-86.8250109999999893
11
69.6145420000000001
21
-86.6964339999999964
0
LINE
8
BLACK
6
CONTINUOUS
10
69.6145420000000001
20
-86.6964339999999964
11
69.5530009999999947
21
-86.5791770000000014
0
LINE
8
BLACK
6
CONTINUOUS
10
69.5530009999999947
20
-86.5791770000000014
11
69.4651870000000002
21
-86.480054999999993
0
LINE
8
BLACK
6
CONTINUOUS
10
69.4651870000000002
20
-86.480054999999993
11
69.3562029999999936
21
-86.4048289999999923
0
LINE
8
BLACK
6
CONTINUOUS
10
69.3562029999999936
20
-86.4048289999999923
11
69.2323829999999987
21
-86.3578699999999913
0
LINE
8
BLACK
6
CONTINUOUS
10
69.2323829999999987
20
-86.3578699999999913
11
69.1009229999999945
21
-86.3419079999999894
0
LINE
8
BLACK
6
CONTINUOUS
10
69.1009229999999945
20
-86.3419079999999894
11
68.9694629999999904
21
-86.3578699999999913
0
LINE
8
BLACK
6
CONTINUOUS
10
68.9694629999999904
20
-86.3578699999999913
11
68.8456429999999955
21
-86.4048289999999923
0
LINE
8
BLACK
6
CONTINUOUS
10
68.8456429999999955
20
-86.4048289999999923
11
68.7366590000000031
21
-86.480054999999993
0
LINE
8
BLACK
6
CONTINUOUS
10
68.7366590000000031
20
-86.480054999999993
11
68.6488449999999943
21
-86.5791770000000014
0
LINE
8
BLACK
6
CONTINUOUS
10
68.6488449999999943
20
-86.5791770000000014
11
68.5873040000000032
21
-86.6964339999999964
0
LINE
8
BLACK
6
CONTINUOUS
10
68.5873040000000032
20
-86.6964339999999964
11
68.5556119999999964
21
-86.8250109999999893
0
LINE
8
BLACK
6
CONTINUOUS
10
68.5556119999999964
20
-86.8250109999999893
11
68.5556119999999964
21
-86.891223999999994
0
LINE
8
BLACK
6
CONTINUOUS
10
68.5556119999999964
20
-86.891223999999994
11
68.5556059999999974
21
-106.7350239999999957
0
LINE
8
BLACK
6
CONTINUOUS
10
68.5556059999999974
20
-106.7350239999999957
11
68.5556059999999974
21
-106.7350249999999932
0
LINE
8
BLACK
6
CONTINUOUS
10
68.5556059999999974
20
-106.7350249999999932
11
68.5373189999999965
21
-107.0326279999999883
0
LINE
8
BLACK
6
CONTINUOUS
10
68.5373189999999965
20
-107.0326279999999883
11
68.4827409999999901
21
-107.3257539999999892
0
LINE
8
BLACK
6
CONTINUOUS
10
68.4827409999999901
20
-107.3257539999999892
11
68.3926909999999992
21
-107.6099949999999978
0
LINE
8
BLACK
6
CONTINUOUS
10
68.3926909999999992
20
-107.6099949999999978
11
68.2685249999999968
21
-107.8810759999999931
0
LINE
8
BLACK
6
CONTINUOUS
10
68.2685249999999968
20
-107.8810759999999931
11
68.1121100000000013
21
-108.1349189999999965
0
LINE
8
BLACK
6
CONTINUOUS
10
68.1121100000000013
20
-108.1349189999999965
11
67.9257980000000003
21
-108.3677059999999983
0
LINE
8
BLACK
6
CONTINUOUS
10
67.9257980000000003
20
-108.3677059999999983
11
67.7123909999999967
21
-108.5759359999999987
0
LINE
8
BLACK
6
CONTINUOUS
10
67.7123909999999967
20
-108.5759359999999987
11
67.4751009999999951
21
-108.7564769999999896
0
LINE
8
BLACK
6
CONTINUOUS
10
67.4751009999999951
20
-108.7564769999999896
11
67.2174940000000021
21
-108.9066139999999905
0
LINE
8
BLACK
6
CONTINUOUS
10
67.2174940000000021
20
-108.9066139999999905
11
66.9434469999999919
21
-109.0240879999999919
0
LINE
8
BLACK
6
CONTINUOUS
10
66.9434469999999919
20
-109.0240879999999919
11
66.6570809999999909
21
-109.1071329999999904
0
LINE
8
BLACK
6
CONTINUOUS
10
66.6570809999999909
20
-109.1071329999999904
11
66.3627029999999962
21
-109.1544990000000013
0
LINE
8
BLACK
6
CONTINUOUS
10
66.3627029999999962
20
-109.1544990000000013
11
66.0647409999999979
21
-109.165473999999989
0
LINE
8
BLACK
6
CONTINUOUS
10
66.0647409999999979
20
-109.165473999999989
11
65.7676759999999945
21
-109.1398930000000007
0
LINE
8
BLACK
6
CONTINUOUS
10
65.7676759999999945
20
-109.1398930000000007
11
65.4759760000000028
21
-109.078140999999988
0
LINE
8
BLACK
6
CONTINUOUS
10
65.4759760000000028
20
-109.078140999999988
11
65.1940290000000005
21
-108.9811459999999954
0
LINE
8
BLACK
6
CONTINUOUS
10
65.1940290000000005
20
-108.9811459999999954
11
64.9260759999999948
21
-108.8503679999999889
0
LINE
8
BLACK
6
CONTINUOUS
10
64.9260759999999948
20
-108.8503679999999889
11
64.6761460000000028
21
-108.6877729999999929
0
LINE
8
BLACK
6
CONTINUOUS
10
64.6761460000000028
20
-108.6877729999999929
11
64.4479989999999958
21
-108.4958069999999992
0
LINE
8
BLACK
6
CONTINUOUS
10
64.4479989999999958
20
-108.4958069999999992
11
64.2450659999999942
21
-108.277356999999995
0
LINE
8
BLACK
6
CONTINUOUS
10
64.2450659999999942
20
-108.277356999999995
11
64.0703999999999922
21
-108.0357099999999946
0
LINE
8
BLACK
6
CONTINUOUS
10
64.0703999999999922
20
-108.0357099999999946
11
63.9266269999999963
21
-107.7744979999999941
0
LINE
8
BLACK
6
CONTINUOUS
10
63.9266269999999963
20
-107.7744979999999941
11
63.8159099999999953
21
-107.4976520000000022
0
LINE
8
BLACK
6
CONTINUOUS
10
63.8159099999999953
20
-107.4976520000000022
11
63.7399149999999963
21
-107.2093349999999958
0
LINE
8
BLACK
6
CONTINUOUS
10
63.7399149999999963
20
-107.2093349999999958
11
63.699783999999994
21
-106.9138839999999959
0
LINE
8
BLACK
6
CONTINUOUS
10
63.699783999999994
20
-106.9138839999999959
11
63.696120999999998
21
-106.6157419999999973
0
LINE
8
BLACK
6
CONTINUOUS
10
63.696120999999998
20
-106.6157419999999973
11
63.7289809999999974
21
-106.3193929999999909
0
LINE
8
BLACK
6
CONTINUOUS
10
63.7289809999999974
20
-106.3193929999999909
11
63.7978689999999986
21
-106.0292960000000022
0
LINE
8
BLACK
6
CONTINUOUS
10
63.7978689999999986
20
-106.0292960000000022
11
63.9017509999999973
21
-105.749812999999989
0
LINE
8
BLACK
6
CONTINUOUS
10
63.9017509999999973
20
-105.749812999999989
11
64.0390620000000013
21
-105.4851479999999952
0
LINE
8
BLACK
6
CONTINUOUS
10
64.0390620000000013
20
-105.4851479999999952
11
64.2077390000000037
21
-105.2392819999999887
0
LINE
8
BLACK
6
CONTINUOUS
10
64.2077390000000037
20
-105.2392819999999887
11
64.4049669999999992
21
-105.016223999999994
0
LINE
8
BLACK
6
CONTINUOUS
10
64.4049669999999992
20
-105.016223999999994
11
64.4052020000000027
21
-105.01587099999999
0
LINE
8
BLACK
6
CONTINUOUS
10
64.4052020000000027
20
-105.01587099999999
11
64.4052039999999977
21
-105.015868999999995
0
LINE
8
BLACK
6
CONTINUOUS
10
64.4052039999999977
20
-105.015868999999995
11
65.2317790000000031
21
-104.1892950000000013
0
LINE
8
BLACK
6
CONTINUOUS
10
65.2317790000000031
20
-104.1892950000000013
11
65.2318039999999968
21
-104.1892769999999899
0
LINE
8
BLACK
6
CONTINUOUS
10
65.2318039999999968
20
-104.1892769999999899
11
65.3217709999999983
21
-104.0953540000000004
0
LINE
8
BLACK
6
CONTINUOUS
10
65.3217709999999983
20
-104.0953540000000004
11
65.477651999999992
21
-103.8842949999999945
0
LINE
8
BLACK
6
CONTINUOUS
10
65.477651999999992
20
-103.8842949999999945
11
65.6054929999999956
21
-103.6551639999999992
0
LINE
8
BLACK
6
CONTINUOUS
10
65.6054929999999956
20
-103.6551639999999992
11
65.7032260000000008
21
-103.4116619999999926
0
LINE
8
BLACK
6
CONTINUOUS
10
65.7032260000000008
20
-103.4116619999999926
11
65.7692710000000034
21
-103.1577279999999917
0
LINE
8
BLACK
6
CONTINUOUS
10
65.7692710000000034
20
-103.1577279999999917
11
65.8025609999999972
21
-102.8974659999999943
0
LINE
8
BLACK
6
CONTINUOUS
10
65.8025609999999972
20
-102.8974659999999943
11
65.8024939999999958
21
-102.7662749999999932
0
LINE
8
BLACK
6
CONTINUOUS
10
65.8024939999999958
20
-102.7662749999999932
11
65.8024949999999933
21
-102.7662699999999916
0
LINE
8
BLACK
6
CONTINUOUS
10
65.8024949999999933
20
-102.7662699999999916
11
65.8024939999999958
21
-102.7662639999999925
0
LINE
8
BLACK
6
CONTINUOUS
10
65.8024939999999958
20
-102.7662639999999925
11
65.8024939999999958
21
-85.7282689999999974
0
LINE
8
BLACK
6
CONTINUOUS
10
65.8024939999999958
20
-85.7282689999999974
11
65.8024939999999958
21
-85.7282679999999999
0
LINE
8
BLACK
6
CONTINUOUS
10
65.8024939999999958
20
-85.7282679999999999
11
65.8190319999999929
21
-85.4338389999999919
0
LINE
8
BLACK
6
CONTINUOUS
10
65.8190319999999929
20
-85.4338389999999919
11
65.8684310000000011
21
-85.1431129999999996
0
LINE
8
BLACK
6
CONTINUOUS
10
65.8684310000000011
20
-85.1431129999999996
11
65.9500699999999966
21
-84.8597460000000012
0
LINE
8
BLACK
6
CONTINUOUS
10
65.9500699999999966
20
-84.8597460000000012
11
66.0629229999999978
21
-84.5873009999999965
0
LINE
8
BLACK
6
CONTINUOUS
10
66.0629229999999978
20
-84.5873009999999965
11
66.205568999999997
21
-84.3292039999999901
0
LINE
8
BLACK
6
CONTINUOUS
10
66.205568999999997
20
-84.3292039999999901
11
66.3762159999999994
21
-84.0887010000000004
0
LINE
8
BLACK
6
CONTINUOUS
10
66.3762159999999994
20
-84.0887010000000004
11
66.5726909999999918
21
-83.8688459999999907
0
LINE
8
BLACK
6
CONTINUOUS
10
66.5726909999999918
20
-83.8688459999999907
11
66.5727139999999906
21
-83.8688130000000029
0
LINE
8
BLACK
6
CONTINUOUS
10
66.5727139999999906
20
-83.8688130000000029
11
68.9053069999999934
21
-81.5362190000000027
0
LINE
8
BLACK
6
CONTINUOUS
10
68.9053069999999934
20
-81.5362190000000027
11
68.9054959999999994
21
-81.5360919999999965
0
LINE
8
BLACK
6
CONTINUOUS
10
68.9054959999999994
20
-81.5360919999999965
11
69.0057889999999929
21
-81.4357940000000013
0
LINE
8
BLACK
6
CONTINUOUS
10
69.0057889999999929
20
-81.4357940000000013
11
69.182935999999998
21
-81.2136500000000012
0
LINE
8
BLACK
6
CONTINUOUS
10
69.182935999999998
20
-81.2136500000000012
11
69.3340969999999999
21
-80.9730679999999978
0
LINE
8
BLACK
6
CONTINUOUS
10
69.3340969999999999
20
-80.9730679999999978
11
69.4573709999999949
21
-80.7170739999999967
0
LINE
8
BLACK
6
CONTINUOUS
10
69.4573709999999949
20
-80.7170739999999967
11
69.5512090000000001
21
-80.4488879999999966
0
LINE
8
BLACK
6
CONTINUOUS
10
69.5512090000000001
20
-80.4488879999999966
11
69.6144299999999987
21
-80.1718819999999965
0
LINE
8
BLACK
6
CONTINUOUS
10
69.6144299999999987
20
-80.1718819999999965
11
69.6462389999999942
21
-79.8895389999999992
0
LINE
8
BLACK
6
CONTINUOUS
10
69.6462389999999942
20
-79.8895389999999992
11
69.6462369999999993
21
-79.7474749999999943
0
LINE
8
BLACK
6
CONTINUOUS
10
69.6462369999999993
20
-79.7474749999999943
11
69.655785999999992
21
-79.7180850000000021
0
LINE
8
BLACK
6
CONTINUOUS
10
69.655785999999992
20
-79.7180850000000021
11
69.6712369999999908
21
-79.7068579999999969
0
LINE
8
BLACK
6
CONTINUOUS
10
69.6712369999999908
20
-79.7068579999999969
11
69.6712369999999908
21
-65.9312359999999984
0
LINE
8
BLACK
6
CONTINUOUS
10
69.6712369999999908
20
-65.9312359999999984
11
69.6712369999999908
21
-65.9312350000000009
0
LINE
8
BLACK
6
CONTINUOUS
10
69.6712369999999908
20
-65.9312350000000009
11
69.6882650000000012
21
-65.7039449999999903
0
LINE
8
BLACK
6
CONTINUOUS
10
69.6882650000000012
20
-65.7039449999999903
11
69.738979999999998
21
-65.4817299999999989
0
LINE
8
BLACK
6
CONTINUOUS
10
69.738979999999998
20
-65.4817299999999989
11
69.8222489999999993
21
-65.2695569999999918
0
LINE
8
BLACK
6
CONTINUOUS
10
69.8222489999999993
20
-65.2695569999999918
11
69.9362119999999976
21
-65.0721640000000008
0
LINE
8
BLACK
6
CONTINUOUS
10
69.9362119999999976
20
-65.0721640000000008
11
70.0783229999999975
21
-64.8939620000000019
0
LINE
8
BLACK
6
CONTINUOUS
10
70.0783229999999975
20
-64.8939620000000019
11
70.2454070000000002
21
-64.7389319999999913
0
LINE
8
BLACK
6
CONTINUOUS
10
70.2454070000000002
20
-64.7389319999999913
11
70.4337309999999945
21
-64.6105359999999962
0
LINE
8
BLACK
6
CONTINUOUS
10
70.4337309999999945
20
-64.6105359999999962
11
70.4337369999999936
21
-64.6105469999999968
0
LINE
8
BLACK
6
CONTINUOUS
10
70.4337369999999936
20
-64.6105469999999968
11
88.5504469999999912
21
-54.150858999999997
0
LINE
8
BLACK
6
CONTINUOUS
10
88.5504469999999912
20
-54.150858999999997
11
88.5524459999999891
21
-54.1318610000000007
0
LINE
8
BLACK
6
CONTINUOUS
10
88.5524459999999891
20
-54.1318610000000007
11
88.5731249999999903
21
-54.1088979999999964
0
LINE
8
BLACK
6
CONTINUOUS
10
88.5731249999999903
20
-54.1088979999999964
11
88.5731019999999916
21
-54.1088589999999954
0
LINE
8
BLACK
6
CONTINUOUS
10
88.5731019999999916
20
-54.1088589999999954
11
88.6304480000000012
21
-54.0757569999999959
0
LINE
8
BLACK
6
CONTINUOUS
10
88.6304480000000012
20
-54.0757569999999959
11
88.7259619999999956
21
-53.984027999999995
0
LINE
8
BLACK
6
CONTINUOUS
10
88.7259619999999956
20
-53.984027999999995
11
88.7967469999999963
21
-53.8721059999999952
0
LINE
8
BLACK
6
CONTINUOUS
10
88.7967469999999963
20
-53.8721059999999952
11
88.8386879999999906
21
-53.7464960000000005
0
LINE
8
BLACK
6
CONTINUOUS
10
88.8386879999999906
20
-53.7464960000000005
11
88.8493489999999895
21
-53.6144979999999975
0
LINE
8
BLACK
6
CONTINUOUS
10
88.8493489999999895
20
-53.6144979999999975
11
88.8281089999999978
21
-53.4837849999999975
0
LINE
8
BLACK
6
CONTINUOUS
10
88.8281089999999978
20
-53.4837849999999975
11
88.7762029999999953
21
-53.3619539999999972
0
LINE
8
BLACK
6
CONTINUOUS
10
88.7762029999999953
20
-53.3619539999999972
11
88.6966479999999962
21
-53.2560859999999963
0
LINE
8
BLACK
6
CONTINUOUS
10
88.6966479999999962
20
-53.2560859999999963
11
88.5940669999999955
21
-53.1723349999999968
0
LINE
8
BLACK
6
CONTINUOUS
10
88.5940669999999955
20
-53.1723349999999968
11
88.4744239999999991
21
-53.1155679999999961
0
LINE
8
BLACK
6
CONTINUOUS
10
88.4744239999999991
20
-53.1155679999999961
11
88.3446709999999911
21
-53.0890849999999972
0
LINE
8
BLACK
6
CONTINUOUS
10
88.3446709999999911
20
-53.0890849999999972
11
88.2123509999999982
21
-53.0944250000000011
0
LINE
8
BLACK
6
CONTINUOUS
10
88.2123509999999982
20
-53.0944250000000011
11
88.0851550000000003
21
-53.1312779999999947
0
LINE
8
BLACK
6
CONTINUOUS
10
88.0851550000000003
20
-53.1312779999999947
11
88.0278149999999897
21
-53.1643889999999999
0
LINE
8
BLACK
6
CONTINUOUS
10
88.0278149999999897
20
-53.1643889999999999
11
88.0278119999999973
21
-53.1643889999999999
0
LINE
8
BLACK
6
CONTINUOUS
10
88.0278119999999973
20
-53.1643889999999999
11
88.0278109999999998
21
-53.1643909999999948
0
LINE
8
BLACK
6
CONTINUOUS
10
88.0278109999999998
20
-53.1643909999999948
11
70.8425689999999975
21
-63.0862869999999987
0
LINE
8
BLACK
6
CONTINUOUS
10
70.8425689999999975
20
-63.0862869999999987
11
70.5756879999999995
21
-63.2192579999999964
0
LINE
8
BLACK
6
CONTINUOUS
10
70.5756879999999995
20
-63.2192579999999964
11
70.2945359999999937
21
-63.318559999999998
0
LINE
8
BLACK
6
CONTINUOUS
10
70.2945359999999937
20
-63.318559999999998
11
70.0033439999999985
21
-63.3826999999999998
0
LINE
8
BLACK
6
CONTINUOUS
10
70.0033439999999985
20
-63.3826999999999998
11
69.7064900000000023
21
-63.4107119999999966
0
LINE
8
BLACK
6
CONTINUOUS
10
69.7064900000000023
20
-63.4107119999999966
11
69.4084390000000013
21
-63.4021759999999972
0
LINE
8
BLACK
6
CONTINUOUS
10
69.4084390000000013
20
-63.4021759999999972
11
69.1136750000000006
21
-63.3572190000000006
0
LINE
8
BLACK
6
CONTINUOUS
10
69.1136750000000006
20
-63.3572190000000006
11
68.8266309999999919
21
-63.2765169999999983
0
LINE
8
BLACK
6
CONTINUOUS
10
68.8266309999999919
20
-63.2765169999999983
11
68.5516250000000014
21
-63.1612859999999969
0
LINE
8
BLACK
6
CONTINUOUS
10
68.5516250000000014
20
-63.1612859999999969
11
68.2927919999999915
21
-63.0132569999999959
0
LINE
8
BLACK
6
CONTINUOUS
10
68.2927919999999915
20
-63.0132569999999959
11
68.0540259999999932
21
-62.8346579999999975
0
LINE
8
BLACK
6
CONTINUOUS
10
68.0540259999999932
20
-62.8346579999999975
11
67.8389179999999925
21
-62.6281739999999942
0
LINE
8
BLACK
6
CONTINUOUS
10
67.8389179999999925
20
-62.6281739999999942
11
67.6507029999999929
21
-62.3969109999999958
0
LINE
8
BLACK
6
CONTINUOUS
10
67.6507029999999929
20
-62.3969109999999958
11
67.4922129999999925
21
-62.1443489999999983
0
LINE
8
BLACK
6
CONTINUOUS
10
67.4922129999999925
20
-62.1443489999999983
11
67.3658319999999975
21
-61.8742850000000004
0
LINE
8
BLACK
6
CONTINUOUS
10
67.3658319999999975
20
-61.8742850000000004
11
67.27346
21
-61.5907809999999998
0
LINE
8
BLACK
6
CONTINUOUS
10
67.27346
20
-61.5907809999999998
11
67.2164860000000033
21
-61.2981020000000001
0
LINE
8
BLACK
6
CONTINUOUS
10
67.2164860000000033
20
-61.2981020000000001
11
67.1957670000000036
21
-61.0006500000000003
0
LINE
8
BLACK
6
CONTINUOUS
10
67.1957670000000036
20
-61.0006500000000003
11
67.2116159999999923
21
-60.7028989999999951
0
LINE
8
BLACK
6
CONTINUOUS
10
67.2116159999999923
20
-60.7028989999999951
11
67.2637939999999901
21
-60.4093269999999976
0
LINE
8
BLACK
6
CONTINUOUS
10
67.2637939999999901
20
-60.4093269999999976
11
67.351514999999992
21
-60.1243499999999997
0
LINE
8
BLACK
6
CONTINUOUS
10
67.351514999999992
20
-60.1243499999999997
11
67.4734610000000004
21
-59.852253999999995
0
LINE
8
BLACK
6
CONTINUOUS
10
67.4734610000000004
20
-59.852253999999995
11
67.6277979999999985
21
-59.5971319999999949
0
LINE
8
BLACK
6
CONTINUOUS
10
67.6277979999999985
20
-59.5971319999999949
11
67.8122029999999967
21
-59.3628209999999967
0
LINE
8
BLACK
6
CONTINUOUS
10
67.8122029999999967
20
-59.3628209999999967
11
68.0239040000000017
21
-59.1528449999999992
0
LINE
8
BLACK
6
CONTINUOUS
10
68.0239040000000017
20
-59.1528449999999992
11
68.2597159999999974
21
-58.970362999999999
0
LINE
8
BLACK
6
CONTINUOUS
10
68.2597159999999974
20
-58.970362999999999
11
68.5160920000000004
21
-58.8181200000000004
0
LINE
8
BLACK
6
CONTINUOUS
10
68.5160920000000004
20
-58.8181200000000004
11
68.7891769999999951
21
-58.6984039999999965
0
LINE
8
BLACK
6
CONTINUOUS
10
68.7891769999999951
20
-58.6984039999999965
11
69.074861999999996
21
-58.6130169999999993
0
LINE
8
BLACK
6
CONTINUOUS
10
69.074861999999996
20
-58.6130169999999993
11
69.3688509999999923
21
-58.5632429999999999
0
LINE
8
BLACK
6
CONTINUOUS
10
69.3688509999999923
20
-58.5632429999999999
11
69.6667219999999929
21
-58.5498309999999975
0
LINE
8
BLACK
6
CONTINUOUS
10
69.6667219999999929
20
-58.5498309999999975
11
69.9639939999999996
21
-58.5729830000000007
0
LINE
8
BLACK
6
CONTINUOUS
10
69.9639939999999996
20
-58.5729830000000007
11
70.2561970000000002
21
-58.6323499999999953
0
LINE
8
BLACK
6
CONTINUOUS
10
70.2561970000000002
20
-58.6323499999999953
11
70.2561960000000028
21
-58.6323549999999969
0
LINE
8
BLACK
6
CONTINUOUS
10
70.2561960000000028
20
-58.6323549999999969
11
71.3842590000000001
21
-58.9346150000000009
0
LINE
8
BLACK
6
CONTINUOUS
10
71.3842590000000001
20
-58.9346150000000009
11
71.3842619999999926
21
-58.9346049999999977
0
LINE
8
BLACK
6
CONTINUOUS
10
71.3842619999999926
20
-58.9346049999999977
11
71.5116819999999933
21
-58.9658299999999969
0
LINE
8
BLACK
6
CONTINUOUS
10
71.5116819999999933
20
-58.9658299999999969
11
71.7724010000000021
21
-58.9953059999999994
0
LINE
8
BLACK
6
CONTINUOUS
10
71.7724010000000021
20
-58.9953059999999994
11
72.0347529999999949
21
-58.9914609999999939
0
LINE
8
BLACK
6
CONTINUOUS
10
72.0347529999999949
20
-58.9914609999999939
11
72.2944969999999927
21
-58.9543569999999946
0
LINE
8
BLACK
6
CONTINUOUS
10
72.2944969999999927
20
-58.9543569999999946
11
72.5474329999999981
21
-58.8845939999999999
0
LINE
8
BLACK
6
CONTINUOUS
10
72.5474329999999981
20
-58.8845939999999999
11
72.7894720000000035
21
-58.783299999999997
0
LINE
8
BLACK
6
CONTINUOUS
10
72.7894720000000035
20
-58.783299999999997
11
72.9030529999999999
21
-58.7176489999999944
0
LINE
8
BLACK
6
CONTINUOUS
10
72.9030529999999999
20
-58.7176489999999944
11
72.9030529999999999
21
-58.717649999999999
0
LINE
8
BLACK
6
CONTINUOUS
10
72.9030529999999999
20
-58.717649999999999
11
72.9030539999999974
21
-58.7176489999999944
0
LINE
8
BLACK
6
CONTINUOUS
10
72.9030539999999974
20
-58.7176489999999944
11
72.9030599999999964
21
-58.7176449999999974
0
LINE
8
BLACK
6
CONTINUOUS
10
72.9030599999999964
20
-58.7176449999999974
11
87.6583940000000013
21
-50.1986470000000011
0
LINE
8
BLACK
6
CONTINUOUS
10
87.6583940000000013
20
-50.1986470000000011
11
87.6583969999999937
21
-50.1986449999999991
0
LINE
8
BLACK
6
CONTINUOUS
10
87.6583969999999937
20
-50.1986449999999991
11
87.9216459999999955
21
-50.0657549999999958
0
LINE
8
BLACK
6
CONTINUOUS
10
87.9216459999999955
20
-50.0657549999999958
11
88.1981219999999979
21
-49.9631720000000001
0
LINE
8
BLACK
6
CONTINUOUS
10
88.1981219999999979
20
-49.9631720000000001
11
88.4843449999999905
21
-49.8921909999999968
0
LINE
8
BLACK
6
CONTINUOUS
10
88.4843449999999905
20
-49.8921909999999968
11
88.7767149999999958
21
-49.8537029999999959
0
LINE
8
BLACK
6
CONTINUOUS
10
88.7767149999999958
20
-49.8537029999999959
11
89.0715560000000011
21
-49.8481919999999974
0
LINE
8
BLACK
6
CONTINUOUS
10
89.0715560000000011
20
-49.8481919999999974
11
89.3651610000000005
21
-49.8757279999999952
0
LINE
8
BLACK
6
CONTINUOUS
10
89.3651610000000005
20
-49.8757279999999952
11
89.6537220000000019
21
-49.9359399999999951
0
LINE
8
BLACK
6
CONTINUOUS
10
89.6537220000000019
20
-49.9359399999999951
11
89.6538400000000024
21
-49.9359479999999962
0
LINE
8
BLACK
6
CONTINUOUS
10
89.6538400000000024
20
-49.9359479999999962
11
89.6538409999999999
21
-49.9359479999999962
0
LINE
8
BLACK
6
CONTINUOUS
10
89.6538409999999999
20
-49.9359479999999962
11
92.8402200000000022
21
-50.7897369999999952
0
LINE
8
BLACK
6
CONTINUOUS
10
92.8402200000000022
20
-50.7897369999999952
11
92.8402209999999997
21
-50.7897369999999952
0
LINE
8
BLACK
6
CONTINUOUS
10
92.8402209999999997
20
-50.7897369999999952
11
92.8402310000000028
21
-50.7896979999999942
0
LINE
8
BLACK
6
CONTINUOUS
10
92.8402310000000028
20
-50.7896979999999942
11
92.9774519999999995
21
-50.8264689999999959
0
LINE
8
BLACK
6
CONTINUOUS
10
92.9774519999999995
20
-50.8264689999999959
11
93.2584030000000013
21
-50.8688199999999995
0
LINE
8
BLACK
6
CONTINUOUS
10
93.2584030000000013
20
-50.8688199999999995
11
93.5423289999999952
21
-50.879449000000001
0
LINE
8
BLACK
6
CONTINUOUS
10
93.5423289999999952
20
-50.879449000000001
11
93.8256599999999992
21
-50.8582219999999978
0
LINE
8
BLACK
6
CONTINUOUS
10
93.8256599999999992
20
-50.8582219999999978
11
94.1048320000000018
21
-50.8054059999999978
0
LINE
8
BLACK
6
CONTINUOUS
10
94.1048320000000018
20
-50.8054059999999978
11
94.3763359999999949
21
-50.721665999999999
0
LINE
8
BLACK
6
CONTINUOUS
10
94.3763359999999949
20
-50.721665999999999
11
94.6367569999999887
21
-50.6080529999999982
0
LINE
8
BLACK
6
CONTINUOUS
10
94.6367569999999887
20
-50.6080529999999982
11
94.7597889999999978
21
-50.5370249999999999
0
LINE
8
BLACK
6
CONTINUOUS
10
94.7597889999999978
20
-50.5370249999999999
11
94.7597889999999978
21
-50.5370259999999973
0
LINE
8
BLACK
6
CONTINUOUS
10
94.7597889999999978
20
-50.5370259999999973
11
94.7900159999999943
21
-50.5306019999999947
0
LINE
8
BLACK
6
CONTINUOUS
10
94.7900159999999943
20
-50.5306019999999947
11
94.8074589999999944
21
-50.5383689999999959
0
LINE
8
BLACK
6
CONTINUOUS
10
94.8074589999999944
20
-50.5383689999999959
11
106.7374980000000022
21
-43.6505609999999962
0
LINE
8
BLACK
6
CONTINUOUS
10
106.7374980000000022
20
-43.6505609999999962
11
106.7374999999999972
21
-43.6505590000000012
0
LINE
8
BLACK
6
CONTINUOUS
10
106.7374999999999972
20
-43.6505590000000012
11
106.9428549999999944
21
-43.5516659999999973
0
LINE
8
BLACK
6
CONTINUOUS
10
106.9428549999999944
20
-43.5516659999999973
11
107.1606559999999888
21
-43.4844829999999973
0
LINE
8
BLACK
6
CONTINUOUS
10
107.1606559999999888
20
-43.4844829999999973
11
107.3860370000000017
21
-43.4505119999999962
0
LINE
8
BLACK
6
CONTINUOUS
10
107.3860370000000017
20
-43.4505119999999962
11
107.6139629999999983
21
-43.4505119999999962
0
LINE
8
BLACK
6
CONTINUOUS
10
107.6139629999999983
20
-43.4505119999999962
11
107.839343999999997
21
-43.4844829999999973
0
LINE
8
BLACK
6
CONTINUOUS
10
107.839343999999997
20
-43.4844829999999973
11
108.0571449999999913
21
-43.5516659999999973
0
LINE
8
BLACK
6
CONTINUOUS
10
108.0571449999999913
20
-43.5516659999999973
11
108.2624999999999886
21
-43.6505590000000012
0
LINE
8
BLACK
6
CONTINUOUS
10
108.2624999999999886
20
-43.6505590000000012
11
126.3792069999999939
21
-54.110244999999999
0
LINE
8
BLACK
6
CONTINUOUS
10
126.3792069999999939
20
-54.110244999999999
11
126.3966530000000006
21
-54.1024759999999958
0
LINE
8
BLACK
6
CONTINUOUS
10
126.3966530000000006
20
-54.1024759999999958
11
126.426879999999997
21
-54.1088979999999964
0
LINE
8
BLACK
6
CONTINUOUS
10
126.426879999999997
20
-54.1088979999999964
11
126.4268999999999892
21
-54.1088619999999949
0
LINE
8
BLACK
6
CONTINUOUS
10
126.4268999999999892
20
-54.1088619999999949
11
126.4842399999999998
21
-54.1419599999999974
0
LINE
8
BLACK
6
CONTINUOUS
10
126.4842399999999998
20
-54.1419599999999974
11
126.6114269999999919
21
-54.1787889999999948
0
LINE
8
BLACK
6
CONTINUOUS
10
126.6114269999999919
20
-54.1787889999999948
11
126.7437329999999918
21
-54.1841119999999989
0
LINE
8
BLACK
6
CONTINUOUS
10
126.7437329999999918
20
-54.1841119999999989
11
126.8734679999999884
21
-54.1576189999999968
0
LINE
8
BLACK
6
CONTINUOUS
10
126.8734679999999884
20
-54.1576189999999968
11
126.9930939999999993
21
-54.1008509999999987
0
LINE
8
BLACK
6
CONTINUOUS
10
126.9930939999999993
20
-54.1008509999999987
11
127.0956589999999977
21
-54.0171050000000008
0
LINE
8
BLACK
6
CONTINUOUS
10
127.0956589999999977
20
-54.0171050000000008
11
127.1752039999999937
21
-53.9112480000000005
0
LINE
8
BLACK
6
CONTINUOUS
10
127.1752039999999937
20
-53.9112480000000005
11
127.227105999999992
21
-53.7894319999999979
0
LINE
8
BLACK
6
CONTINUOUS
10
127.227105999999992
20
-53.7894319999999979
11
127.2483499999999879
21
-53.6587350000000001
0
LINE
8
BLACK
6
CONTINUOUS
10
127.2483499999999879
20
-53.6587350000000001
11
127.2376999999999896
21
-53.5267509999999973
0
LINE
8
BLACK
6
CONTINUOUS
10
127.2376999999999896
20
-53.5267509999999973
11
127.1957759999999951
21
-53.4011509999999987
0
LINE
8
BLACK
6
CONTINUOUS
10
127.1957759999999951
20
-53.4011509999999987
11
127.1250139999999931
21
-53.2892319999999984
0
LINE
8
BLACK
6
CONTINUOUS
10
127.1250139999999931
20
-53.2892319999999984
11
127.0295249999999925
21
-53.1974990000000005
0
LINE
8
BLACK
6
CONTINUOUS
10
127.0295249999999925
20
-53.1974990000000005
11
126.9721919999999926
21
-53.1643909999999948
0
LINE
8
BLACK
6
CONTINUOUS
10
126.9721919999999926
20
-53.1643909999999948
11
126.9721909999999951
21
-53.1643899999999974
0
LINE
8
BLACK
6
CONTINUOUS
10
126.9721909999999951
20
-53.1643899999999974
11
109.7869630000000001
21
-43.2424889999999991
0
LINE
8
BLACK
6
CONTINUOUS
10
109.7869630000000001
20
-43.2424889999999991
11
109.5383679999999913
21
-43.0778490000000005
0
LINE
8
BLACK
6
CONTINUOUS
10
109.5383679999999913
20
-43.0778490000000005
11
109.3117949999999894
21
-42.8840159999999955
0
LINE
8
BLACK
6
CONTINUOUS
10
109.3117949999999894
20
-42.8840159999999955
11
109.1106539999999967
21
-42.6639059999999972
0
LINE
8
BLACK
6
CONTINUOUS
10
109.1106539999999967
20
-42.6639059999999972
11
108.9379689999999954
21
-42.4208299999999952
0
LINE
8
BLACK
6
CONTINUOUS
10
108.9379689999999954
20
-42.4208299999999952
11
108.7963379999999916
21
-42.1584439999999958
0
LINE
8
BLACK
6
CONTINUOUS
10
108.7963379999999916
20
-42.1584439999999958
11
108.6878909999999934
21
-41.8806930000000008
0
LINE
8
BLACK
6
CONTINUOUS
10
108.6878909999999934
20
-41.8806930000000008
11
108.6142589999999899
21
-41.5917559999999966
0
LINE
8
BLACK
6
CONTINUOUS
10
108.6142589999999899
20
-41.5917559999999966
11
108.576549
21
-41.2959789999999956
0
LINE
8
BLACK
6
CONTINUOUS
10
108.576549
20
-41.2959789999999956
11
108.5753299999999939
21
-40.9978109999999987
0
LINE
8
BLACK
6
CONTINUOUS
10
108.5753299999999939
20
-40.9978109999999987
11
108.6106189999999998
21
-40.7017349999999993
0
LINE
8
BLACK
6
CONTINUOUS
10
108.6106189999999998
20
-40.7017349999999993
11
108.6818849999999941
21
-40.4122050000000002
0
LINE
8
BLACK
6
CONTINUOUS
10
108.6818849999999941
20
-40.4122050000000002
11
108.7880559999999974
21
-40.1335769999999954
0
LINE
8
BLACK
6
CONTINUOUS
10
108.7880559999999974
20
-40.1335769999999954
11
108.9275359999999893
21
-39.8700410000000005
0
LINE
8
BLACK
6
CONTINUOUS
10
108.9275359999999893
20
-39.8700410000000005
11
109.0982269999999943
21
-39.6255600000000001
0
LINE
8
BLACK
6
CONTINUOUS
10
109.0982269999999943
20
-39.6255600000000001
11
109.2975610000000017
21
-39.4038129999999995
0
LINE
8
BLACK
6
CONTINUOUS
10
109.2975610000000017
20
-39.4038129999999995
11
109.5225409999999897
21
-39.2081329999999966
0
LINE
8
BLACK
6
CONTINUOUS
10
109.5225409999999897
20
-39.2081329999999966
11
109.7697809999999947
21
-39.0414649999999952
0
LINE
8
BLACK
6
CONTINUOUS
10
109.7697809999999947
20
-39.0414649999999952
11
110.0355639999999937
21
-38.9063159999999968
0
LINE
8
BLACK
6
CONTINUOUS
10
110.0355639999999937
20
-38.9063159999999968
11
110.315891999999991
21
-38.8047169999999966
0
LINE
8
BLACK
6
CONTINUOUS
10
110.315891999999991
20
-38.8047169999999966
11
110.6065490000000011
21
-38.738197999999997
0
LINE
8
BLACK
6
CONTINUOUS
10
110.6065490000000011
20
-38.738197999999997
11
110.9031619999999947
21
-38.7077579999999983
0
LINE
8
BLACK
6
CONTINUOUS
10
110.9031619999999947
20
-38.7077579999999983
11
111.2012709999999913
21
-38.7138559999999998
0
LINE
8
BLACK
6
CONTINUOUS
10
110.6586269999999956
20
-38.8265789999999953
11
110.3694919999999939
21
-38.8885469999999955
0
LINE
8
BLACK
6
CONTINUOUS
10
110.3694919999999939
20
-38.8885469999999955
11
110.0905029999999982
21
-38.9865479999999991
0
LINE
8
BLACK
6
CONTINUOUS
10
110.0905029999999982
20
-38.9865479999999991
11
109.826129999999992
21
-39.1190099999999958
0
LINE
8
BLACK
6
CONTINUOUS
10
109.826129999999992
20
-39.1190099999999958
11
109.5806109999999904
21
-39.2838119999999975
0
LINE
8
BLACK
6
CONTINUOUS
10
109.5806109999999904
20
-39.2838119999999975
11
109.3578799999999944
21
-39.4783119999999954
0
LINE
8
BLACK
6
CONTINUOUS
10
109.3578799999999944
20
-39.4783119999999954
11
109.1615059999999886
21
-39.699391999999996
0
LINE
8
BLACK
6
CONTINUOUS
10
109.1615059999999886
20
-39.699391999999996
11
108.9946369999999973
21
-39.9435110000000009
0
LINE
8
BLACK
6
CONTINUOUS
10
108.9946369999999973
20
-39.9435110000000009
11
108.8599469999999911
21
-40.2067559999999986
0
LINE
8
BLACK
6
CONTINUOUS
10
108.8599469999999911
20
-40.2067559999999986
11
108.7595939999999928
21
-40.4849079999999972
0
LINE
8
BLACK
6
CONTINUOUS
10
108.7595939999999928
20
-40.4849079999999972
11
108.6951859999999925
21
-40.7735089999999971
0
LINE
8
BLACK
6
CONTINUOUS
10
108.6951859999999925
20
-40.7735089999999971
11
108.6677549999999997
21
-41.0679349999999985
0
LINE
8
BLACK
6
CONTINUOUS
10
108.6677549999999997
20
-41.0679349999999985
11
108.677741999999995
21
-41.3634679999999975
0
LINE
8
BLACK
6
CONTINUOUS
10
108.677741999999995
20
-41.3634679999999975
11
108.7249860000000012
21
-41.6553709999999953
0
LINE
8
BLACK
6
CONTINUOUS
10
108.7249860000000012
20
-41.6553709999999953
11
108.8087299999999971
21
-41.9389660000000006
0
LINE
8
BLACK
6
CONTINUOUS
10
108.8087299999999971
20
-41.9389660000000006
11
108.9276319999999885
21
-42.2097089999999966
0
LINE
8
BLACK
6
CONTINUOUS
10
108.9276319999999885
20
-42.2097089999999966
11
109.0797859999999986
21
-42.4632599999999982
0
LINE
8
BLACK
6
CONTINUOUS
10
109.0797859999999986
20
-42.4632599999999982
11
109.2627549999999985
21
-42.6955570000000009
0
LINE
8
BLACK
6
CONTINUOUS
10
109.2627549999999985
20
-42.6955570000000009
11
109.4736049999999921
21
-42.9028759999999991
0
LINE
8
BLACK
6
CONTINUOUS
10
109.4736049999999921
20
-42.9028759999999991
11
109.708958999999993
21
-43.0818960000000004
0
LINE
8
BLACK
6
CONTINUOUS
10
109.708958999999993
20
-43.0818960000000004
11
109.8369629999999972
21
-43.1558859999999953
0
LINE
8
BLACK
6
CONTINUOUS
10
109.8369629999999972
20
-43.1558859999999953
11
109.8369629999999972
21
-43.1558869999999999
0
LINE
8
BLACK
6
CONTINUOUS
10
109.8369629999999972
20
-43.1558869999999999
11
127.0221959999999939
21
-53.0777909999999977
0
LINE
8
BLACK
6
CONTINUOUS
10
127.0221959999999939
20
-53.0777909999999977
11
127.0221969999999914
21
-53.0777919999999952
0
LINE
8
BLACK
6
CONTINUOUS
10
127.0221969999999914
20
-53.0777919999999952
11
127.022199999999998
21
-53.0777929999999998
0
LINE
8
BLACK
6
CONTINUOUS
10
127.022199999999998
20
-53.0777929999999998
11
127.1384489999999943
21
-53.1636049999999969
0
LINE
8
BLACK
6
CONTINUOUS
10
127.1384489999999943
20
-53.1636049999999969
11
127.232689999999991
21
-53.2731319999999968
0
LINE
8
BLACK
6
CONTINUOUS
10
127.232689999999991
20
-53.2731319999999968
11
127.3001979999999946
21
-53.4008819999999957
0
LINE
8
BLACK
6
CONTINUOUS
10
127.3001979999999946
20
-53.4008819999999957
11
127.3375879999999967
21
-53.5404509999999974
0
LINE
8
BLACK
6
CONTINUOUS
10
127.3375879999999967
20
-53.5404509999999974
11
127.3429849999999988
21
-53.6848409999999987
0
LINE
8
BLACK
6
CONTINUOUS
10
127.3429849999999988
20
-53.6848409999999987
11
127.316119999999998
21
-53.8268119999999968
0
LINE
8
BLACK
6
CONTINUOUS
10
127.316119999999998
20
-53.8268119999999968
11
127.2583379999999948
21
-53.9592460000000003
0
LINE
8
BLACK
6
CONTINUOUS
10
127.2583379999999948
20
-53.9592460000000003
11
127.1725379999999888
21
-54.0755029999999977
0
LINE
8
BLACK
6
CONTINUOUS
10
127.1725379999999888
20
-54.0755029999999977
11
127.0630199999999945
21
-54.1697539999999975
0
LINE
8
BLACK
6
CONTINUOUS
10
127.0630199999999945
20
-54.1697539999999975
11
126.9352759999999876
21
-54.2372749999999968
0
LINE
8
BLACK
6
CONTINUOUS
10
126.9352759999999876
20
-54.2372749999999968
11
126.7957109999999972
21
-54.2746779999999944
0
LINE
8
BLACK
6
CONTINUOUS
10
126.7957109999999972
20
-54.2746779999999944
11
126.6513219999999933
21
-54.2800899999999942
0
LINE
8
BLACK
6
CONTINUOUS
10
126.6513219999999933
20
-54.2800899999999942
11
126.5093490000000003
21
-54.2532379999999961
0
LINE
8
BLACK
6
CONTINUOUS
10
126.5093490000000003
20
-54.2532379999999961
11
126.3769089999999977
21
-54.1954700000000003
0
LINE
8
BLACK
6
CONTINUOUS
10
126.3769089999999977
20
-54.1954700000000003
11
126.3768879999999939
21
-54.1955059999999946
0
LINE
8
BLACK
6
CONTINUOUS
10
126.3768879999999939
20
-54.1955059999999946
11
126.3562089999999927
21
-54.1725429999999974
0
LINE
8
BLACK
6
CONTINUOUS
10
126.3562089999999927
20
-54.1725429999999974
11
126.3542099999999948
21
-54.1535480000000007
0
LINE
8
BLACK
6
CONTINUOUS
10
126.3542099999999948
20
-54.1535480000000007
11
108.2374999999999972
21
-43.6938609999999983
0
LINE
8
BLACK
6
CONTINUOUS
10
108.2374999999999972
20
-43.6938609999999983
11
108.1417730000000006
21
-43.6385930000000002
0
LINE
8
BLACK
6
CONTINUOUS
10
108.1417730000000006
20
-43.6385930000000002
11
107.9359829999999931
21
-43.5578259999999986
0
LINE
8
BLACK
6
CONTINUOUS
10
107.9359829999999931
20
-43.5578259999999986
11
107.7204539999999895
21
-43.5086329999999961
0
LINE
8
BLACK
6
CONTINUOUS
10
107.7204539999999895
20
-43.5086329999999961
11
107.5
21
-43.4921119999999988
0
LINE
8
BLACK
6
CONTINUOUS
10
107.5
20
-43.4921119999999988
11
107.2795459999999963
21
-43.5086329999999961
0
LINE
8
BLACK
6
CONTINUOUS
10
107.2795459999999963
20
-43.5086329999999961
11
107.0640169999999927
21
-43.5578259999999986
0
LINE
8
BLACK
6
CONTINUOUS
10
107.0640169999999927
20
-43.5578259999999986
11
106.8582269999999994
21
-43.6385930000000002
0
LINE
8
BLACK
6
CONTINUOUS
10
106.8582269999999994
20
-43.6385930000000002
11
106.7624999999999886
21
-43.6938609999999983
0
LINE
8
BLACK
6
CONTINUOUS
10
106.7624999999999886
20
-43.6938609999999983
11
94.8324619999999925
21
-50.5816699999999955
0
LINE
8
BLACK
6
CONTINUOUS
10
94.8324619999999925
20
-50.5816699999999955
11
94.8304649999999896
21
-50.6006659999999968
0
LINE
8
BLACK
6
CONTINUOUS
10
94.8304649999999896
20
-50.6006659999999968
11
94.809787
21
-50.6236299999999986
0
LINE
8
BLACK
6
CONTINUOUS
10
94.809787
20
-50.6236299999999986
11
94.8097860000000026
21
-50.6236290000000011
0
LINE
8
BLACK
6
CONTINUOUS
10
94.8097860000000026
20
-50.6236290000000011
11
94.5465329999999966
21
-50.7565169999999952
0
LINE
8
BLACK
6
CONTINUOUS
10
94.5465329999999966
20
-50.7565169999999952
11
94.2700569999999942
21
-50.8590939999999989
0
LINE
8
BLACK
6
CONTINUOUS
10
94.2700569999999942
20
-50.8590939999999989
11
93.9838349999999991
21
-50.9300709999999981
0
LINE
8
BLACK
6
CONTINUOUS
10
93.9838349999999991
20
-50.9300709999999981
11
93.6914649999999938
21
-50.9685559999999995
0
LINE
8
BLACK
6
CONTINUOUS
10
93.6914649999999938
20
-50.9685559999999995
11
93.3966250000000002
21
-50.9740639999999985
0
LINE
8
BLACK
6
CONTINUOUS
10
93.3966250000000002
20
-50.9740639999999985
11
93.1030219999999957
21
-50.9465269999999961
0
LINE
8
BLACK
6
CONTINUOUS
10
93.1030219999999957
20
-50.9465269999999961
11
92.8146179999999958
21
-50.8863470000000007
0
LINE
8
BLACK
6
CONTINUOUS
10
92.8146179999999958
20
-50.8863470000000007
11
92.8143379999999922
21
-50.8863289999999964
0
LINE
8
BLACK
6
CONTINUOUS
10
92.8143379999999922
20
-50.8863289999999964
11
92.8143369999999948
21
-50.8863279999999989
0
LINE
8
BLACK
6
CONTINUOUS
10
92.8143369999999948
20
-50.8863279999999989
11
92.8143369999999948
21
-50.8863289999999964
0
LINE
8
BLACK
6
CONTINUOUS
10
92.8143369999999948
20
-50.8863289999999964
11
92.8143359999999973
21
-50.8863279999999989
0
LINE
8
BLACK
6
CONTINUOUS
10
92.8143359999999973
20
-50.8863279999999989
11
89.6279579999999925
21
-50.0325399999999973
0
LINE
8
BLACK
6
CONTINUOUS
10
89.6279579999999925
20
-50.0325399999999973
11
89.627956999999995
21
-50.0325389999999999
0
LINE
8
BLACK
6
CONTINUOUS
10
89.627956999999995
20
-50.0325389999999999
11
89.627956999999995
21
-50.0325399999999973
0
LINE
8
BLACK
6
CONTINUOUS
10
89.627956999999995
20
-50.0325399999999973
11
89.6279529999999909
21
-50.0325559999999996
0
LINE
8
BLACK
6
CONTINUOUS
10
89.6279529999999909
20
-50.0325559999999996
11
89.4907309999999967
21
-49.9957859999999954
0
LINE
8
BLACK
6
CONTINUOUS
10
89.4907309999999967
20
-49.9957859999999954
11
89.209779999999995
21
-49.9534359999999964
0
LINE
8
BLACK
6
CONTINUOUS
10
89.209779999999995
20
-49.9534359999999964
11
88.9258529999999894
21
-49.9428079999999994
0
LINE
8
BLACK
6
CONTINUOUS
10
88.9258529999999894
20
-49.9428079999999994
11
88.6425210000000021
21
-49.9640379999999951
0
LINE
8
BLACK
6
CONTINUOUS
10
88.6425210000000021
20
-49.9640379999999951
11
88.363348000000002
21
-50.0168569999999946
0
LINE
8
BLACK
6
CONTINUOUS
10
88.363348000000002
20
-50.0168569999999946
11
88.0918449999999922
21
-50.100601999999995
0
LINE
8
BLACK
6
CONTINUOUS
10
88.0918449999999922
20
-50.100601999999995
11
87.8314249999999959
21
-50.2142199999999974
0
LINE
8
BLACK
6
CONTINUOUS
10
87.8314249999999959
20
-50.2142199999999974
11
87.7083939999999984
21
-50.2852499999999978
0
LINE
8
BLACK
6
CONTINUOUS
10
87.7083939999999984
20
-50.2852499999999978
11
87.7083939999999984
21
-50.2852490000000003
0
LINE
8
BLACK
6
CONTINUOUS
10
87.7083939999999984
20
-50.2852490000000003
11
72.9530599999999936
21
-58.8042469999999966
0
LINE
8
BLACK
6
CONTINUOUS
10
72.9530599999999936
20
-58.8042469999999966
11
72.9530560000000037
21
-58.8042479999999941
0
LINE
8
BLACK
6
CONTINUOUS
10
72.9530560000000037
20
-58.8042479999999941
11
72.953052999999997
21
-58.8042519999999982
0
LINE
8
BLACK
6
CONTINUOUS
10
72.953052999999997
20
-58.8042519999999982
11
72.9530519999999996
21
-58.8042519999999982
0
LINE
8
BLACK
6
CONTINUOUS
10
72.9530519999999996
20
-58.8042519999999982
11
72.7430990000000008
21
-58.9106539999999939
0
LINE
8
BLACK
6
CONTINUOUS
10
72.7430990000000008
20
-58.9106539999999939
11
72.5228120000000018
21
-58.9935709999999958
0
LINE
8
BLACK
6
CONTINUOUS
10
72.5228120000000018
20
-58.9935709999999958
11
72.2948080000000033
21
-59.0520199999999988
0
LINE
8
BLACK
6
CONTINUOUS
10
72.2948080000000033
20
-59.0520199999999988
11
72.061797999999996
21
-59.0853049999999982
0
LINE
8
BLACK
6
CONTINUOUS
10
72.061797999999996
20
-59.0853049999999982
11
71.826549
21
-59.0930309999999963
0
LINE
8
BLACK
6
CONTINUOUS
10
71.826549
20
-59.0930309999999963
11
71.5918569999999903
21
-59.0751059999999981
0
LINE
8
BLACK
6
CONTINUOUS
10
71.5918569999999903
20
-59.0751059999999981
11
71.3605099999999908
21
-59.0317429999999987
0
LINE
8
BLACK
6
CONTINUOUS
10
71.3605099999999908
20
-59.0317429999999987
11
71.3605050000000034
21
-59.0317639999999955
0
LINE
8
BLACK
6
CONTINUOUS
10
71.3605050000000034
20
-59.0317639999999955
11
71.3601390000000038
21
-59.0315370000000001
0
LINE
8
BLACK
6
CONTINUOUS
10
71.3601390000000038
20
-59.0315370000000001
11
71.3594399999999922
21
-59.0314920000000001
0
LINE
8
BLACK
6
CONTINUOUS
10
71.3594399999999922
20
-59.0314920000000001
11
70.2303139999999928
21
-58.728946999999998
0
LINE
8
BLACK
6
CONTINUOUS
10
70.2303139999999928
20
-58.728946999999998
11
70.2302899999999966
21
-58.7289349999999999
0
LINE
8
BLACK
6
CONTINUOUS
10
70.2302899999999966
20
-58.7289349999999999
11
70.0874829999999918
21
-58.6907479999999993
0
LINE
8
BLACK
6
CONTINUOUS
10
70.0874829999999918
20
-58.6907479999999993
11
69.7944749999999914
21
-58.6509129999999956
0
LINE
8
BLACK
6
CONTINUOUS
10
69.7944749999999914
20
-58.6509129999999956
11
69.4987830000000031
21
-58.648415
0
LINE
8
BLACK
6
CONTINUOUS
10
69.4987830000000031
20
-58.648415
11
69.2051450000000017
21
-58.683294999999994
0
LINE
8
BLACK
6
CONTINUOUS
10
69.2051450000000017
20
-58.683294999999994
11
68.9182660000000027
21
-58.7549929999999989
0
LINE
8
BLACK
6
CONTINUOUS
10
68.9182660000000027
20
-58.7549929999999989
11
68.6427439999999933
21
-58.8623609999999999
0
LINE
8
BLACK
6
CONTINUOUS
10
68.6427439999999933
20
-58.8623609999999999
11
68.3829939999999965
21
-59.0036769999999962
0
LINE
8
BLACK
6
CONTINUOUS
10
68.3829939999999965
20
-59.0036769999999962
11
68.143180000000001
21
-59.1766779999999954
0
LINE
8
BLACK
6
CONTINUOUS
10
68.143180000000001
20
-59.1766779999999954
11
67.9271439999999984
21
-59.3785899999999955
0
LINE
8
BLACK
6
CONTINUOUS
10
67.9271439999999984
20
-59.3785899999999955
11
67.738348000000002
21
-59.6061779999999999
0
LINE
8
BLACK
6
CONTINUOUS
10
67.738348000000002
20
-59.6061779999999999
11
67.5798180000000031
21
-59.8557939999999959
0
LINE
8
BLACK
6
CONTINUOUS
10
67.5798180000000031
20
-59.8557939999999959
11
67.4540949999999953
21
-60.1234389999999976
0
LINE
8
BLACK
6
CONTINUOUS
10
67.4540949999999953
20
-60.1234389999999976
11
67.3631929999999954
21
-60.4048230000000004
0
LINE
8
BLACK
6
CONTINUOUS
10
67.3631929999999954
20
-60.4048230000000004
11
67.308567999999994
21
-60.6954369999999983
0
LINE
8
BLACK
6
CONTINUOUS
10
67.308567999999994
20
-60.6954369999999983
11
67.291097999999991
21
-60.9906229999999994
0
LINE
8
BLACK
6
CONTINUOUS
10
67.291097999999991
20
-60.9906229999999994
11
67.3110609999999951
21
-61.2856509999999943
0
LINE
8
BLACK
6
CONTINUOUS
10
67.3110609999999951
20
-61.2856509999999943
11
67.3681369999999902
21
-61.5757929999999973
0
LINE
8
BLACK
6
CONTINUOUS
10
67.3681369999999902
20
-61.5757929999999973
11
67.4614119999999957
21
-61.8563989999999961
0
LINE
8
BLACK
6
CONTINUOUS
10
67.4614119999999957
20
-61.8563989999999961
11
67.589390999999992
21
-62.1229729999999947
0
LINE
8
BLACK
6
CONTINUOUS
10
67.589390999999992
20
-62.1229729999999947
11
67.7500229999999988
21
-62.3712419999999952
0
LINE
8
BLACK
6
CONTINUOUS
10
67.7500229999999988
20
-62.3712419999999952
11
67.940733999999992
21
-62.5972269999999966
0
LINE
8
BLACK
6
CONTINUOUS
10
67.940733999999992
20
-62.5972269999999966
11
68.1584679999999992
21
-62.7973079999999939
0
LINE
8
BLACK
6
CONTINUOUS
10
68.1584679999999992
20
-62.7973079999999939
11
68.3997349999999926
21
-62.9682770000000005
0
LINE
8
BLACK
6
CONTINUOUS
10
68.3997349999999926
20
-62.9682770000000005
11
68.6606680000000011
21
-63.1073949999999968
0
LINE
8
BLACK
6
CONTINUOUS
10
68.6606680000000011
20
-63.1073949999999968
11
68.9370869999999911
21
-63.2124319999999997
0
LINE
8
BLACK
6
CONTINUOUS
10
68.9370869999999911
20
-63.2124319999999997
11
69.2245609999999942
21
-63.2817049999999952
0
LINE
8
BLACK
6
CONTINUOUS
10
69.2245609999999942
20
-63.2817049999999952
11
69.5184830000000034
21
-63.3141040000000004
0
LINE
8
BLACK
6
CONTINUOUS
10
69.5184830000000034
20
-63.3141040000000004
11
69.8141439999999989
21
-63.3091089999999994
0
LINE
8
BLACK
6
CONTINUOUS
10
69.8141439999999989
20
-63.3091089999999994
11
70.1068049999999943
21
-63.2668019999999984
0
LINE
8
BLACK
6
CONTINUOUS
10
70.1068049999999943
20
-63.2668019999999984
11
70.3917749999999955
21
-63.1878579999999985
0
LINE
8
BLACK
6
CONTINUOUS
10
70.3917749999999955
20
-63.1878579999999985
11
70.6644879999999915
21
-63.0735449999999958
0
LINE
8
BLACK
6
CONTINUOUS
10
70.6644879999999915
20
-63.0735449999999958
11
70.7925690000000003
21
-62.9996839999999949
0
LINE
8
BLACK
6
CONTINUOUS
10
70.7925690000000003
20
-62.9996839999999949
11
70.7925690000000003
21
-62.9996849999999995
0
LINE
8
BLACK
6
CONTINUOUS
10
70.7925690000000003
20
-62.9996849999999995
11
87.9778060000000011
21
-53.0777909999999977
0
LINE
8
BLACK
6
CONTINUOUS
10
87.9778060000000011
20
-53.0777909999999977
11
87.9778069999999985
21
-53.0777909999999977
0
LINE
8
BLACK
6
CONTINUOUS
10
87.9778069999999985
20
-53.0777909999999977
11
87.9778089999999935
21
-53.0777900000000002
0
LINE
8
BLACK
6
CONTINUOUS
10
87.9778089999999935
20
-53.0777900000000002
11
87.9778110000000027
21
-53.0777889999999957
0
LINE
8
BLACK
6
CONTINUOUS
10
87.9778110000000027
20
-53.0777889999999957
11
87.9778129999999976
21
-53.0777879999999982
0
LINE
8
BLACK
6
CONTINUOUS
10
87.9778129999999976
20
-53.0777879999999982
11
88.1102520000000027
21
-53.0199929999999995
0
LINE
8
BLACK
6
CONTINUOUS
10
88.1102520000000027
20
-53.0199929999999995
11
88.2522379999999913
21
-52.9931179999999955
0
LINE
8
BLACK
6
CONTINUOUS
10
88.2522379999999913
20
-52.9931179999999955
11
88.3966449999999924
21
-52.9985140000000001
0
LINE
8
BLACK
6
CONTINUOUS
10
88.3966449999999924
20
-52.9985140000000001
11
88.5362289999999916
21
-53.0359089999999966
0
LINE
8
BLACK
6
CONTINUOUS
10
88.5362289999999916
20
-53.0359089999999966
11
88.6639919999999933
21
-53.1034289999999984
0
LINE
8
BLACK
6
CONTINUOUS
10
88.6639919999999933
20
-53.1034289999999984
11
88.7735259999999897
21
-53.1976869999999948
0
LINE
8
BLACK
6
CONTINUOUS
10
88.7735259999999897
20
-53.1976869999999948
11
88.8593369999999965
21
-53.3139569999999949
0
LINE
8
BLACK
6
CONTINUOUS
10
88.8593369999999965
20
-53.3139569999999949
11
88.9171229999999895
21
-53.4464070000000007
0
LINE
8
BLACK
6
CONTINUOUS
10
88.9171229999999895
20
-53.4464070000000007
11
88.9439859999999953
21
-53.5883949999999984
0
LINE
8
BLACK
6
CONTINUOUS
10
88.9439859999999953
20
-53.5883949999999984
11
88.9385779999999926
21
-53.7328009999999949
0
LINE
8
BLACK
6
CONTINUOUS
10
88.9385779999999926
20
-53.7328009999999949
11
88.9011699999999934
21
-53.8723819999999947
0
LINE
8
BLACK
6
CONTINUOUS
10
88.9011699999999934
20
-53.8723819999999947
11
88.8336389999999909
21
-54.0001389999999972
0
LINE
8
BLACK
6
CONTINUOUS
10
88.8336389999999909
20
-54.0001389999999972
11
88.7393709999999913
21
-54.1096639999999951
0
LINE
8
BLACK
6
CONTINUOUS
10
88.7393709999999913
20
-54.1096639999999951
11
88.6230939999999947
21
-54.1954659999999961
0
LINE
8
BLACK
6
CONTINUOUS
10
88.6230939999999947
20
-54.1954659999999961
11
88.6231169999999935
21
-54.1955059999999946
0
LINE
8
BLACK
6
CONTINUOUS
10
88.6231169999999935
20
-54.1955059999999946
11
88.592889999999997
21
-54.2019279999999952
0
LINE
8
BLACK
6
CONTINUOUS
10
88.592889999999997
20
-54.2019279999999952
11
88.5754479999999944
21
-54.1941599999999966
0
LINE
8
BLACK
6
CONTINUOUS
10
88.5754479999999944
20
-54.1941599999999966
11
70.4587369999999993
21
-64.6538489999999939
0
LINE
8
BLACK
6
CONTINUOUS
10
70.4587369999999993
20
-64.6538489999999939
11
70.4586729999999903
21
-64.6538699999999977
0
LINE
8
BLACK
6
CONTINUOUS
10
70.4586729999999903
20
-64.6538699999999977
11
70.3630019999999945
21
-64.7091049999999939
0
LINE
8
BLACK
6
CONTINUOUS
10
70.3630019999999945
20
-64.7091049999999939
11
70.1901599999999917
21
-64.8469419999999985
0
LINE
8
BLACK
6
CONTINUOUS
10
70.1901599999999917
20
-64.8469419999999985
11
70.0397909999999939
21
-65.0090000000000003
0
LINE
8
BLACK
6
CONTINUOUS
10
70.0397909999999939
20
-65.0090000000000003
11
69.9152569999999969
21
-65.1916599999999988
0
LINE
8
BLACK
6
CONTINUOUS
10
69.9152569999999969
20
-65.1916599999999988
11
69.8193389999999994
21
-65.3908409999999947
0
LINE
8
BLACK
6
CONTINUOUS
10
69.8193389999999994
20
-65.3908409999999947
11
69.754179999999991
21
-65.6020939999999939
0
LINE
8
BLACK
6
CONTINUOUS
10
69.754179999999991
20
-65.6020939999999939
11
69.7212339999999955
21
-65.8206989999999905
0
LINE
8
BLACK
6
CONTINUOUS
10
69.7212339999999955
20
-65.8206989999999905
11
69.7212370000000021
21
-65.9312350000000009
0
LINE
8
BLACK
6
CONTINUOUS
10
69.7212370000000021
20
-65.9312350000000009
11
69.7212370000000021
21
-65.9312359999999984
0
LINE
8
BLACK
6
CONTINUOUS
10
69.7212370000000021
20
-65.9312359999999984
11
69.7212370000000021
21
-79.7068579999999969
0
LINE
8
BLACK
6
CONTINUOUS
10
69.7212370000000021
20
-79.7068579999999969
11
69.7366880000000009
21
-79.7180839999999904
0
LINE
8
BLACK
6
CONTINUOUS
10
69.7366880000000009
20
-79.7180839999999904
11
69.7462369999999936
21
-79.7474729999999994
0
LINE
8
BLACK
6
CONTINUOUS
10
69.7462369999999936
20
-79.7474729999999994
11
69.7297049999999956
21
-80.0419059999999973
0
LINE
8
BLACK
6
CONTINUOUS
10
69.7297049999999956
20
-80.0419059999999973
11
69.6803120000000007
21
-80.3326359999999937
0
LINE
8
BLACK
6
CONTINUOUS
10
69.6803120000000007
20
-80.3326359999999937
11
69.59867899999999
21
-80.6160069999999962
0
LINE
8
BLACK
6
CONTINUOUS
10
69.59867899999999
20
-80.6160069999999962
11
69.485832000000002
21
-80.888458
0
LINE
8
BLACK
6
CONTINUOUS
10
69.485832000000002
20
-80.888458
11
69.3431899999999928
21
-81.1465599999999938
0
LINE
8
BLACK
6
CONTINUOUS
10
69.3431899999999928
20
-81.1465599999999938
11
69.1725469999999945
21
-81.3870689999999968
0
LINE
8
BLACK
6
CONTINUOUS
10
69.1725469999999945
20
-81.3870689999999968
11
68.9760490000000033
21
-81.6069609999999983
0
LINE
8
BLACK
6
CONTINUOUS
10
68.9760490000000033
20
-81.6069609999999983
11
68.9760179999999963
21
-81.6069289999999938
0
LINE
8
BLACK
6
CONTINUOUS
10
68.9760179999999963
20
-81.6069289999999938
11
68.9760179999999963
21
-81.6069299999999913
0
LINE
8
BLACK
6
CONTINUOUS
10
68.9760179999999963
20
-81.6069299999999913
11
66.643423999999996
21
-83.9395229999999941
0
LINE
8
BLACK
6
CONTINUOUS
10
66.643423999999996
20
-83.9395229999999941
11
66.6434280000000001
21
-83.9395269999999982
0
LINE
8
BLACK
6
CONTINUOUS
10
66.6434280000000001
20
-83.9395269999999982
11
66.542974000000001
21
-84.0399809999999974
0
LINE
8
BLACK
6
CONTINUOUS
10
66.542974000000001
20
-84.0399809999999974
11
66.3658240000000035
21
-84.2621189999999984
0
LINE
8
BLACK
6
CONTINUOUS
10
66.3658240000000035
20
-84.2621189999999984
11
66.2146589999999975
21
-84.5026950000000028
0
LINE
8
BLACK
6
CONTINUOUS
10
66.2146589999999975
20
-84.5026950000000028
11
66.0913800000000009
21
-84.7586840000000024
0
LINE
8
BLACK
6
CONTINUOUS
10
66.0913800000000009
20
-84.7586840000000024
11
65.9975369999999941
21
-85.0268650000000008
0
LINE
8
BLACK
6
CONTINUOUS
10
65.9975369999999941
20
-85.0268650000000008
11
65.9343109999999939
21
-85.3038669999999968
0
LINE
8
BLACK
6
CONTINUOUS
10
65.9343109999999939
20
-85.3038669999999968
11
65.9024959999999993
21
-85.58620599999999
0
LINE
8
BLACK
6
CONTINUOUS
10
65.9024959999999993
20
-85.58620599999999
11
65.9024939999999901
21
-85.7282679999999999
0
LINE
8
BLACK
6
CONTINUOUS
10
65.9024939999999901
20
-85.7282679999999999
11
65.9024939999999901
21
-85.7282689999999974
0
LINE
8
BLACK
6
CONTINUOUS
10
65.9024939999999901
20
-85.7282689999999974
11
65.9024939999999901
21
-102.7662639999999925
0
LINE
8
BLACK
6
CONTINUOUS
10
65.9024939999999901
20
-102.7662639999999925
11
65.9024919999999952
21
-102.7662689999999941
0
LINE
8
BLACK
6
CONTINUOUS
10
65.9024919999999952
20
-102.7662689999999941
11
65.9024939999999901
21
-102.7662729999999982
0
LINE
8
BLACK
6
CONTINUOUS
10
65.9024939999999901
20
-102.7662729999999982
11
65.8896689999999978
21
-103.001300999999998
0
LINE
8
BLACK
6
CONTINUOUS
10
65.8896689999999978
20
-103.001300999999998
11
65.8513389999999958
21
-103.2335369999999983
0
LINE
8
BLACK
6
CONTINUOUS
10
65.8513389999999958
20
-103.2335369999999983
11
65.7879609999999957
21
-103.46022099999999
0
LINE
8
BLACK
6
CONTINUOUS
10
65.7879609999999957
20
-103.46022099999999
11
65.700287000000003
21
-103.6786609999999911
0
LINE
8
BLACK
6
CONTINUOUS
10
65.700287000000003
20
-103.6786609999999911
11
65.5893590000000017
21
-103.8862609999999904
0
LINE
8
BLACK
6
CONTINUOUS
10
65.5893590000000017
20
-103.8862609999999904
11
65.4564939999999922
21
-104.0805529999999948
0
LINE
8
BLACK
6
CONTINUOUS
10
65.4564939999999922
20
-104.0805529999999948
11
65.3032729999999901
21
-104.2592309999999998
0
LINE
8
BLACK
6
CONTINUOUS
10
65.3032729999999901
20
-104.2592309999999998
11
65.3032579999999996
21
-104.2592169999999925
0
LINE
8
BLACK
6
CONTINUOUS
10
65.3032579999999996
20
-104.2592169999999925
11
65.3028789999999901
21
-104.2594199999999915
0
LINE
8
BLACK
6
CONTINUOUS
10
65.3028789999999901
20
-104.2594199999999915
11
65.3024889999999942
21
-104.2600049999999925
0
LINE
8
BLACK
6
CONTINUOUS
10
65.3024889999999942
20
-104.2600049999999925
11
64.4759150000000005
21
-105.0865779999999887
0
LINE
8
BLACK
6
CONTINUOUS
10
64.4759150000000005
20
-105.0865779999999887
11
64.4759140000000031
21
-105.0865809999999954
0
LINE
8
BLACK
6
CONTINUOUS
10
64.4759140000000031
20
-105.0865809999999954
11
64.475954999999999
21
-105.0866219999999913
0
LINE
8
BLACK
6
CONTINUOUS
10
64.475954999999999
20
-105.0866219999999913
11
64.3714659999999981
21
-105.1912200000000013
0
LINE
8
BLACK
6
CONTINUOUS
10
64.3714659999999981
20
-105.1912200000000013
11
64.1904749999999922
21
-105.4250519999999938
0
LINE
8
BLACK
6
CONTINUOUS
10
64.1904749999999922
20
-105.4250519999999938
11
64.0404750000000007
21
-105.6798749999999956
0
LINE
8
BLACK
6
CONTINUOUS
10
64.0404750000000007
20
-105.6798749999999956
11
63.9238709999999983
21
-105.9516079999999931
0
LINE
8
BLACK
6
CONTINUOUS
10
63.9238709999999983
20
-105.9516079999999931
11
63.8425309999999939
21
-106.2358949999999993
0
LINE
8
BLACK
6
CONTINUOUS
10
63.8425309999999939
20
-106.2358949999999993
11
63.7977589999999992
21
-106.5281799999999919
0
LINE
8
BLACK
6
CONTINUOUS
10
63.7977589999999992
20
-106.5281799999999919
11
63.7902729999999991
21
-106.8237790000000018
0
LINE
8
BLACK
6
CONTINUOUS
10
63.7902729999999991
20
-106.8237790000000018
11
63.8201919999999987
21
-107.1179559999999924
0
LINE
8
BLACK
6
CONTINUOUS
10
63.8201919999999987
20
-107.1179559999999924
11
63.8870359999999948
21
-107.4059960000000018
0
LINE
8
BLACK
6
CONTINUOUS
10
63.8870359999999948
20
-107.4059960000000018
11
63.9897360000000006
21
-107.6832819999999913
0
LINE
8
BLACK
6
CONTINUOUS
10
63.9897360000000006
20
-107.6832819999999913
11
64.1266439999999989
21
-107.9453729999999894
0
LINE
8
BLACK
6
CONTINUOUS
10
64.1266439999999989
20
-107.9453729999999894
11
64.2955669999999913
21
-108.1880659999999921
0
LINE
8
BLACK
6
CONTINUOUS
10
64.2955669999999913
20
-108.1880659999999921
11
64.4937979999999982
21
-108.407472999999996
0
LINE
8
BLACK
6
CONTINUOUS
10
64.4937979999999982
20
-108.407472999999996
11
64.718159
21
-108.6000789999999938
0
LINE
8
BLACK
6
CONTINUOUS
10
64.718159
20
-108.6000789999999938
11
64.9650570000000016
21
-108.7627959999999945
0
LINE
8
BLACK
6
CONTINUOUS
10
64.9650570000000016
20
-108.7627959999999945
11
65.2305329999999941
21
-108.8930159999999887
0
LINE
8
BLACK
6
CONTINUOUS
10
65.2305329999999941
20
-108.8930159999999887
11
65.5103340000000003
21
-108.9886539999999968
0
LINE
8
BLACK
6
CONTINUOUS
10
65.5103340000000003
20
-108.9886539999999968
11
65.7999760000000009
21
-109.0481750000000005
0
LINE
8
BLACK
6
CONTINUOUS
10
65.7999760000000009
20
-109.0481750000000005
11
66.0948159999999945
21
-109.0706279999999992
0
LINE
8
BLACK
6
CONTINUOUS
10
66.0948159999999945
20
-109.0706279999999992
11
66.3901309999999967
21
-109.05565
0
LINE
8
BLACK
6
CONTINUOUS
10
66.3901309999999967
20
-109.05565
11
66.6811869999999942
21
-109.0034840000000003
0
LINE
8
BLACK
6
CONTINUOUS
10
66.6811869999999942
20
-109.0034840000000003
11
66.9633209999999934
21
-108.9149639999999977
0
LINE
8
BLACK
6
CONTINUOUS
10
66.9633209999999934
20
-108.9149639999999977
11
67.2320100000000025
21
-108.7915089999999907
0
LINE
8
BLACK
6
CONTINUOUS
10
67.2320100000000025
20
-108.7915089999999907
11
67.4829500000000024
21
-108.6350979999999993
0
LINE
8
BLACK
6
CONTINUOUS
10
67.4829500000000024
20
-108.6350979999999993
11
67.7121180000000038
21
-108.4482379999999893
0
LINE
8
BLACK
6
CONTINUOUS
10
67.7121180000000038
20
-108.4482379999999893
11
67.9158429999999953
21
-108.2339209999999952
0
LINE
8
BLACK
6
CONTINUOUS
10
67.9158429999999953
20
-108.2339209999999952
11
68.0908579999999972
21
-107.9955839999999938
0
LINE
8
BLACK
6
CONTINUOUS
10
68.0908579999999972
20
-107.9955839999999938
11
68.2343609999999927
21
-107.7370459999999923
0
LINE
8
BLACK
6
CONTINUOUS
10
68.2343609999999927
20
-107.7370459999999923
11
68.3440509999999932
21
-107.4624489999999923
0
LINE
8
BLACK
6
CONTINUOUS
10
68.3440509999999932
20
-107.4624489999999923
11
68.4181700000000035
21
-107.1761949999999928
0
LINE
8
BLACK
6
CONTINUOUS
10
68.4181700000000035
20
-107.1761949999999928
11
68.455529999999996
21
-106.8828709999999944
0
LINE
8
BLACK
6
CONTINUOUS
10
68.455529999999996
20
-106.8828709999999944
11
68.4556060000000031
21
-106.7350229999999982
0
LINE
8
BLACK
6
CONTINUOUS
10
68.4556060000000031
20
-106.7350229999999982
11
68.4556060000000031
21
-106.7350220000000007
0
LINE
8
BLACK
6
CONTINUOUS
10
68.4556060000000031
20
-106.7350220000000007
11
68.4556120000000021
21
-86.891223999999994
0
LINE
8
BLACK
6
CONTINUOUS
10
68.4556120000000021
20
-86.891223999999994
11
68.4717909999999961
21
-86.7476289999999892
0
LINE
8
BLACK
6
CONTINUOUS
10
68.4717909999999961
20
-86.7476289999999892
11
68.5195179999999908
21
-86.6112339999999961
0
LINE
8
BLACK
6
CONTINUOUS
10
68.5195179999999908
20
-86.6112339999999961
11
68.596398999999991
21
-86.4888789999999972
0
LINE
8
BLACK
6
CONTINUOUS
10
68.596398999999991
20
-86.4888789999999972
11
68.6985779999999977
21
-86.3866999999999905
0
LINE
8
BLACK
6
CONTINUOUS
10
68.6985779999999977
20
-86.3866999999999905
11
68.8209329999999966
21
-86.3098189999999903
0
LINE
8
BLACK
6
CONTINUOUS
10
68.8209329999999966
20
-86.3098189999999903
11
68.957328000000004
21
-86.2620919999999956
0
LINE
8
BLACK
6
CONTINUOUS
10
68.957328000000004
20
-86.2620919999999956
11
69.1009229999999945
21
-86.2459130000000016
0
LINE
8
BLACK
6
CONTINUOUS
10
69.1009229999999945
20
-86.2459130000000016
11
69.2445179999999993
21
-86.2620919999999956
0
LINE
8
BLACK
6
CONTINUOUS
10
69.2445179999999993
20
-86.2620919999999956
11
69.3809129999999925
21
-86.3098189999999903
0
LINE
8
BLACK
6
CONTINUOUS
10
69.3809129999999925
20
-86.3098189999999903
11
69.5032679999999914
21
-86.3866999999999905
0
LINE
8
BLACK
6
CONTINUOUS
10
69.5032679999999914
20
-86.3866999999999905
11
69.6054469999999981
21
-86.4888789999999972
0
LINE
8
BLACK
6
CONTINUOUS
10
69.6054469999999981
20
-86.4888789999999972
11
69.6823279999999983
21
-86.6112339999999961
0
LINE
8
BLACK
6
CONTINUOUS
10
69.6823279999999983
20
-86.6112339999999961
11
69.730054999999993
21
-86.7476289999999892
0
LINE
8
BLACK
6
CONTINUOUS
10
69.730054999999993
20
-86.7476289999999892
11
69.7462340000000012
21
-86.891223999999994
0
LINE
8
BLACK
6
CONTINUOUS
10
69.7462340000000012
20
-86.891223999999994
11
69.7366849999999943
21
-86.920613000000003
0
LINE
8
BLACK
6
CONTINUOUS
10
69.7366849999999943
20
-86.920613000000003
11
69.7212370000000021
21
-86.9318359999999899
0
LINE
8
BLACK
6
CONTINUOUS
10
69.7212370000000021
20
-86.9318359999999899
11
69.7212370000000021
21
-107.8512109999999922
0
LINE
8
BLACK
6
CONTINUOUS
10
69.7212370000000021
20
-107.8512109999999922
11
69.7212090000000018
21
-107.851350999999994
0
LINE
8
BLACK
6
CONTINUOUS
10
69.7212090000000018
20
-107.851350999999994
11
69.7212099999999992
21
-107.961748
0
LINE
8
BLACK
6
CONTINUOUS
10
69.7212099999999992
20
-107.961748
11
69.7541609999999963
21
-108.1803529999999967
0
LINE
8
BLACK
6
CONTINUOUS
10
69.7541609999999963
20
-108.1803529999999967
11
69.8193270000000012
21
-108.3916049999999984
0
LINE
8
BLACK
6
CONTINUOUS
10
69.8193270000000012
20
-108.3916049999999984
11
69.9152509999999978
21
-108.5907839999999993
0
LINE
8
BLACK
6
CONTINUOUS
10
69.9152509999999978
20
-108.5907839999999993
11
70.039788999999999
21
-108.7734419999999886
0
LINE
8
BLACK
6
CONTINUOUS
10
70.039788999999999
20
-108.7734419999999886
11
70.1901610000000034
21
-108.9354979999999955
0
LINE
8
BLACK
6
CONTINUOUS
10
70.1901610000000034
20
-108.9354979999999955
11
70.3630069999999961
21
-109.0733319999999935
0
LINE
8
BLACK
6
CONTINUOUS
10
70.3630069999999961
20
-109.0733319999999935
11
70.4587369999999993
21
-109.1285979999999967
0
LINE
8
BLACK
6
CONTINUOUS
10
70.4587369999999993
20
-109.1285979999999967
11
70.4587360000000018
21
-109.1285979999999967
0
LINE
8
BLACK
6
CONTINUOUS
10
70.4587360000000018
20
-109.1285979999999967
11
70.4587369999999993
21
-109.1285989999999941
0
LINE
8
BLACK
6
CONTINUOUS
10
70.4587369999999993
20
-109.1285989999999941
11
82.3887769999999904
21
-116.0164089999999959
0
LINE
8
BLACK
6
CONTINUOUS
10
82.3887769999999904
20
-116.0164089999999959
11
82.4062270000000012
21
-116.0086409999999972
0
LINE
8
BLACK
6
CONTINUOUS
10
82.4062270000000012
20
-116.0086409999999972
11
82.4364530000000002
21
-116.0150659999999903
0
LINE
8
BLACK
6
CONTINUOUS
10
82.4364530000000002
20
-116.0150659999999903
11
82.4364530000000002
21
-116.0150669999999877
0
LINE
8
BLACK
6
CONTINUOUS
10
82.4364530000000002
20
-116.0150669999999877
11
82.6831650000000025
21
-116.17660699999999
0
LINE
8
BLACK
6
CONTINUOUS
10
82.6831650000000025
20
-116.17660699999999
11
82.9102409999999992
21
-116.3647529999999932
0
LINE
8
BLACK
6
CONTINUOUS
10
82.9102409999999992
20
-116.3647529999999932
11
83.1148239999999987
21
-116.57714
0
LINE
8
BLACK
6
CONTINUOUS
10
83.1148239999999987
20
-116.57714
11
83.2943420000000003
21
-116.811095999999992
0
LINE
8
BLACK
6
CONTINUOUS
10
83.2943420000000003
20
-116.811095999999992
11
83.4465379999999897
21
-117.0636799999999909
0
LINE
8
BLACK
6
CONTINUOUS
10
83.4465379999999897
20
-117.0636799999999909
11
83.5694979999999958
21
-117.3317149999999884
0
LINE
8
BLACK
6
CONTINUOUS
10
83.5694979999999958
20
-117.3317149999999884
11
83.6616640000000018
21
-117.6117979999999932
0
LINE
8
BLACK
6
CONTINUOUS
10
83.6616640000000018
20
-117.6117979999999932
11
83.6616810000000015
21
-117.6118309999999951
0
LINE
8
BLACK
6
CONTINUOUS
10
83.6616810000000015
20
-117.6118309999999951
11
84.5154649999999918
21
-120.7982079999999883
0
LINE
8
BLACK
6
CONTINUOUS
10
84.5154649999999918
20
-120.7982079999999883
11
84.5154699999999934
21
-120.798293000000001
0
LINE
8
BLACK
6
CONTINUOUS
10
84.5154699999999934
20
-120.798293000000001
11
84.5522169999999988
21
-120.9354359999999957
0
LINE
8
BLACK
6
CONTINUOUS
10
84.5522169999999988
20
-120.9354359999999957
11
84.656019999999998
21
-121.1999239999999958
0
LINE
8
BLACK
6
CONTINUOUS
10
84.656019999999998
20
-121.1999239999999958
11
84.7887849999999901
21
-121.4511259999999879
0
LINE
8
BLACK
6
CONTINUOUS
10
84.7887849999999901
20
-121.4511259999999879
11
84.9488399999999899
21
-121.6858829999999898
0
LINE
8
BLACK
6
CONTINUOUS
10
84.9488399999999899
20
-121.6858829999999898
11
85.134174999999999
21
-121.9012439999999913
0
LINE
8
BLACK
6
CONTINUOUS
10
85.134174999999999
20
-121.9012439999999913
11
85.342456999999996
21
-122.094498999999999
0
LINE
8
BLACK
6
CONTINUOUS
10
85.342456999999996
20
-122.094498999999999
11
85.5710669999999993
21
-122.2632179999999948
0
LINE
8
BLACK
6
CONTINUOUS
10
85.5710669999999993
20
-122.2632179999999948
11
85.6940989999999942
21
-122.3342489999999998
0
LINE
8
BLACK
6
CONTINUOUS
10
85.6940989999999942
20
-122.3342489999999998
11
85.6940999999999917
21
-122.3342509999999947
0
LINE
8
BLACK
6
CONTINUOUS
10
85.6940999999999917
20
-122.3342509999999947
11
100.4494399999999956
21
-130.8532390000000021
0
LINE
8
BLACK
6
CONTINUOUS
10
100.4494399999999956
20
-130.8532390000000021
11
100.4494430000000023
21
-130.8532419999999945
0
LINE
8
BLACK
6
CONTINUOUS
10
100.4494430000000023
20
-130.8532419999999945
11
100.6465709999999945
21
-130.9818640000000016
0
LINE
8
BLACK
6
CONTINUOUS
10
100.6465709999999945
20
-130.9818640000000016
11
100.8285279999999915
21
-131.1311770000000081
0
LINE
8
BLACK
6
CONTINUOUS
10
100.8285279999999915
20
-131.1311770000000081
11
100.9931529999999924
21
-131.2994070000000022
0
LINE
8
BLACK
6
CONTINUOUS
10
100.9931529999999924
20
-131.2994070000000022
11
101.1384889999999928
21
-131.4845569999999952
0
LINE
8
BLACK
6
CONTINUOUS
10
101.1384889999999928
20
-131.4845569999999952
11
101.2628089999999901
21
-131.6844250000000045
0
LINE
8
BLACK
6
CONTINUOUS
10
101.2628089999999901
20
-131.6844250000000045
11
101.3646370000000019
21
-131.8966369999999984
0
LINE
8
BLACK
6
CONTINUOUS
10
101.3646370000000019
20
-131.8966369999999984
11
101.4427609999999902
21
-132.1186710000000062
0
LINE
8
BLACK
6
CONTINUOUS
10
101.4427609999999902
20
-132.1186710000000062
11
101.4427469999999971
21
-132.1186759999999936
0
LINE
8
BLACK
6
CONTINUOUS
10
101.4427469999999971
20
-132.1186759999999936
11
101.4427329999999898
21
-132.1191069999999854
0
LINE
8
BLACK
6
CONTINUOUS
10
101.4427329999999898
20
-132.1191069999999854
11
101.4430429999999888
21
-132.119733999999994
0
LINE
8
BLACK
6
CONTINUOUS
10
101.4430429999999888
20
-132.119733999999994
11
101.7455959999999919
21
-133.2488559999999893
0
LINE
8
BLACK
6
CONTINUOUS
10
101.7455959999999919
20
-133.2488559999999893
11
101.7456069999999926
21
-133.2490249999999889
0
LINE
8
BLACK
6
CONTINUOUS
10
101.7456069999999926
20
-133.2490249999999889
11
101.7839029999999951
21
-133.3916600000000017
0
LINE
8
BLACK
6
CONTINUOUS
10
101.7839029999999951
20
-133.3916600000000017
11
101.8959079999999915
21
-133.6653320000000065
0
LINE
8
BLACK
6
CONTINUOUS
10
101.8959079999999915
20
-133.6653320000000065
11
102.0415909999999968
21
-133.9226600000000076
0
LINE
8
BLACK
6
CONTINUOUS
10
102.0415909999999968
20
-133.9226600000000076
11
102.2186179999999922
21
-134.1595209999999838
0
LINE
8
BLACK
6
CONTINUOUS
10
102.2186179999999922
20
-134.1595209999999838
11
102.4241509999999948
21
-134.3721189999999979
0
LINE
8
BLACK
6
CONTINUOUS
10
102.4241509999999948
20
-134.3721189999999979
11
102.6548959999999937
21
-134.5570459999999855
0
LINE
8
BLACK
6
CONTINUOUS
10
102.6548959999999937
20
-134.5570459999999855
11
102.9071549999999888
21
-134.7113389999999811
0
LINE
8
BLACK
6
CONTINUOUS
10
102.9071549999999888
20
-134.7113389999999811
11
103.1768869999999936
21
-134.8325260000000014
0
LINE
8
BLACK
6
CONTINUOUS
10
103.1768869999999936
20
-134.8325260000000014
11
103.4597679999999968
21
-134.9186650000000043
0
LINE
8
BLACK
6
CONTINUOUS
10
103.4597679999999968
20
-134.9186650000000043
11
103.7512649999999894
21
-134.968373999999983
0
LINE
8
BLACK
6
CONTINUOUS
10
103.7512649999999894
20
-134.968373999999983
11
104.0467060000000004
21
-134.9808579999999836
0
LINE
8
BLACK
6
CONTINUOUS
10
104.0467060000000004
20
-134.9808579999999836
11
104.3413570000000021
21
-134.9559150000000045
0
LINE
8
BLACK
6
CONTINUOUS
10
104.3413570000000021
20
-134.9559150000000045
11
104.6304959999999937
21
-134.8939469999999972
0
LINE
8
BLACK
6
CONTINUOUS
10
104.6304959999999937
20
-134.8939469999999972
11
104.909489999999991
21
-134.7959459999999865
0
LINE
8
BLACK
6
CONTINUOUS
10
104.909489999999991
20
-134.7959459999999865
11
105.1738659999999896
21
-134.6634829999999852
0
LINE
8
BLACK
6
CONTINUOUS
10
105.1738659999999896
20
-134.6634829999999852
11
105.4193889999999953
21
-134.4986789999999814
0
LINE
8
BLACK
6
CONTINUOUS
10
105.4193889999999953
20
-134.4986789999999814
11
105.642122999999998
21
-134.3041780000000074
0
LINE
8
BLACK
6
CONTINUOUS
10
105.642122999999998
20
-134.3041780000000074
11
105.8384989999999988
21
-134.0830949999999859
0
LINE
8
BLACK
6
CONTINUOUS
10
105.8384989999999988
20
-134.0830949999999859
11
106.0053709999999967
21
-133.8389729999999815
0
LINE
8
BLACK
6
CONTINUOUS
10
106.0053709999999967
20
-133.8389729999999815
11
106.1400629999999978
21
-133.5757250000000056
0
LINE
8
BLACK
6
CONTINUOUS
10
106.1400629999999978
20
-133.5757250000000056
11
106.2404179999999911
21
-133.2975700000000074
0
LINE
8
BLACK
6
CONTINUOUS
10
106.2404179999999911
20
-133.2975700000000074
11
106.3048269999999889
21
-133.0089649999999892
0
LINE
8
BLACK
6
CONTINUOUS
10
106.3048269999999889
20
-133.0089649999999892
11
106.3322579999999959
21
-132.7145349999999837
0
LINE
8
BLACK
6
CONTINUOUS
10
106.3322579999999959
20
-132.7145349999999837
11
106.3222710000000006
21
-132.4189989999999852
0
LINE
8
BLACK
6
CONTINUOUS
10
106.3222710000000006
20
-132.4189989999999852
11
106.2750259999999969
21
-132.1270920000000046
0
LINE
8
BLACK
6
CONTINUOUS
10
106.2750259999999969
20
-132.1270920000000046
11
106.1912809999999894
21
-131.8434939999999926
0
LINE
8
BLACK
6
CONTINUOUS
10
106.1912809999999894
20
-131.8434939999999926
11
106.0723769999999888
21
-131.57274799999999
0
LINE
8
BLACK
6
CONTINUOUS
10
106.0723769999999888
20
-131.57274799999999
11
105.9202200000000005
21
-131.3191939999999818
0
LINE
8
BLACK
6
CONTINUOUS
10
105.9202200000000005
20
-131.3191939999999818
11
105.7372489999999914
21
-131.0868940000000009
0
LINE
8
BLACK
6
CONTINUOUS
10
105.7372489999999914
20
-131.0868940000000009
11
105.5263949999999937
21
-130.8795729999999935
0
LINE
8
BLACK
6
CONTINUOUS
10
105.5263949999999937
20
-130.8795729999999935
11
105.2910389999999978
21
-130.7005509999999902
0
LINE
8
BLACK
6
CONTINUOUS
10
105.2910389999999978
20
-130.7005509999999902
11
105.1630320000000012
21
-130.6265599999999836
0
LINE
8
BLACK
6
CONTINUOUS
10
105.1630320000000012
20
-130.6265599999999836
11
87.9777950000000004
21
-120.7046509999999984
0
LINE
8
BLACK
6
CONTINUOUS
10
87.9777950000000004
20
-120.7046509999999984
11
87.9777919999999938
21
-120.7046489999999892
0
LINE
8
BLACK
6
CONTINUOUS
10
87.9777919999999938
20
-120.7046489999999892
11
87.8615319999999969
21
-120.6188319999999976
0
LINE
8
BLACK
6
CONTINUOUS
10
87.8615319999999969
20
-120.6188319999999976
11
87.7672819999999945
21
-120.5092969999999895
0
LINE
8
BLACK
6
CONTINUOUS
10
87.7672819999999945
20
-120.5092969999999895
11
87.6997669999999943
21
-120.3815369999999945
0
LINE
8
BLACK
6
CONTINUOUS
10
87.6997669999999943
20
-120.3815369999999945
11
87.6623730000000023
21
-120.2419569999999993
0
LINE
8
BLACK
6
CONTINUOUS
10
87.6623730000000023
20
-120.2419569999999993
11
87.6569750000000028
21
-120.0975549999999998
0
LINE
8
BLACK
6
CONTINUOUS
10
87.6569750000000028
20
-120.0975549999999998
11
87.683842999999996
21
-119.9555730000000011
0
LINE
8
BLACK
6
CONTINUOUS
10
87.683842999999996
20
-119.9555730000000011
11
87.7416309999999982
21
-119.823127999999997
0
LINE
8
BLACK
6
CONTINUOUS
10
87.7416309999999982
20
-119.823127999999997
11
87.8274399999999957
21
-119.706862000000001
0
LINE
8
BLACK
6
CONTINUOUS
10
87.8274399999999957
20
-119.706862000000001
11
87.9369679999999931
21
-119.6126049999999879
0
LINE
8
BLACK
6
CONTINUOUS
10
87.9369679999999931
20
-119.6126049999999879
11
88.0647239999999982
21
-119.5450819999999936
0
LINE
8
BLACK
6
CONTINUOUS
10
88.0647239999999982
20
-119.5450819999999936
11
88.2043019999999984
21
-119.507678999999996
0
LINE
8
BLACK
6
CONTINUOUS
10
88.2043019999999984
20
-119.507678999999996
11
88.3487030000000004
21
-119.5022719999999907
0
LINE
8
BLACK
6
CONTINUOUS
10
88.3487030000000004
20
-119.5022719999999907
11
88.4906879999999916
21
-119.5291309999999925
0
LINE
8
BLACK
6
CONTINUOUS
10
88.4906879999999916
20
-119.5291309999999925
11
88.6231360000000024
21
-119.5869099999999889
0
LINE
8
BLACK
6
CONTINUOUS
10
88.6231360000000024
20
-119.5869099999999889
11
88.6231190000000026
21
-119.586939000000001
0
LINE
8
BLACK
6
CONTINUOUS
10
88.6231190000000026
20
-119.586939000000001
11
88.6437969999999922
21
-119.6099029999999885
0
LINE
8
BLACK
6
CONTINUOUS
10
88.6437969999999922
20
-119.6099029999999885
11
88.645789999999991
21
-119.6288569999999964
0
LINE
8
BLACK
6
CONTINUOUS
10
88.645789999999991
20
-119.6288569999999964
11
106.7624999999999886
21
-130.0885849999999948
0
LINE
8
BLACK
6
CONTINUOUS
10
106.7624999999999886
20
-130.0885849999999948
11
106.7625079999999969
21
-130.0885920000000056
0
LINE
8
BLACK
6
CONTINUOUS
10
106.7625079999999969
20
-130.0885920000000056
11
106.8582260000000019
21
-130.1438550000000021
0
LINE
8
BLACK
6
CONTINUOUS
10
106.8582260000000019
20
-130.1438550000000021
11
107.0640169999999927
21
-130.2246219999999823
0
LINE
8
BLACK
6
CONTINUOUS
10
107.0640169999999927
20
-130.2246219999999823
11
107.2795459999999963
21
-130.2738149999999848
0
LINE
8
BLACK
6
CONTINUOUS
10
107.2795459999999963
20
-130.2738149999999848
11
107.5000009999999975
21
-130.2903359999999964
0
LINE
8
BLACK
6
CONTINUOUS
10
107.5000009999999975
20
-130.2903359999999964
11
107.7204550000000012
21
-130.2738149999999848
0
LINE
8
BLACK
6
CONTINUOUS
10
107.7204550000000012
20
-130.2738149999999848
11
107.9359839999999906
21
-130.2246219999999823
0
LINE
8
BLACK
6
CONTINUOUS
10
107.9359839999999906
20
-130.2246219999999823
11
108.1417749999999955
21
-130.1438550000000021
0
LINE
8
BLACK
6
CONTINUOUS
10
108.1417749999999955
20
-130.1438550000000021
11
108.2375019999999921
21
-130.0885859999999923
0
LINE
8
BLACK
6
CONTINUOUS
10
108.2375019999999921
20
-130.0885859999999923
11
120.1675379999999933
21
-123.200776999999988
0
LINE
8
BLACK
6
CONTINUOUS
10
120.1675379999999933
20
-123.200776999999988
11
120.1695359999999937
21
-123.1817819999999983
0
LINE
8
BLACK
6
CONTINUOUS
10
120.1695359999999937
20
-123.1817819999999983
11
120.1902139999999974
21
-123.1588179999999966
0
LINE
8
BLACK
6
CONTINUOUS
10
120.1902139999999974
20
-123.1588179999999966
11
120.1902139999999974
21
-123.158818999999994
0
LINE
8
BLACK
6
CONTINUOUS
10
120.1902139999999974
20
-123.158818999999994
11
120.4534659999999917
21
-123.0259289999999908
0
LINE
8
BLACK
6
CONTINUOUS
10
120.4534659999999917
20
-123.0259289999999908
11
120.7299419999999941
21
-122.9233509999999967
0
LINE
8
BLACK
6
CONTINUOUS
10
120.7299419999999941
20
-122.9233509999999967
11
121.0161639999999892
21
-122.8523719999999884
0
LINE
8
BLACK
6
CONTINUOUS
10
121.0161639999999892
20
-122.8523719999999884
11
121.3085339999999945
21
-122.8138859999999966
0
LINE
8
BLACK
6
CONTINUOUS
10
121.3085339999999945
20
-122.8138859999999966
11
121.6033739999999881
21
-122.8083779999999905
0
LINE
8
BLACK
6
CONTINUOUS
10
121.6033739999999881
20
-122.8083779999999905
11
121.8969779999999901
21
-122.835915
0
LINE
8
BLACK
6
CONTINUOUS
10
121.8969779999999901
20
-122.835915
11
122.1854319999999916
21
-122.8961070000000007
0
LINE
8
BLACK
6
CONTINUOUS
10
122.1854319999999916
20
-122.8961070000000007
11
122.1856590000000011
21
-122.8961219999999912
0
LINE
8
BLACK
6
CONTINUOUS
10
122.1856590000000011
20
-122.8961219999999912
11
122.1856599999999986
21
-122.8961219999999912
0
LINE
8
BLACK
6
CONTINUOUS
10
122.1856599999999986
20
-122.8961219999999912
11
125.3720419999999933
21
-123.7499079999999907
0
LINE
8
BLACK
6
CONTINUOUS
10
125.3720419999999933
20
-123.7499079999999907
11
125.3720479999999924
21
-123.7498870000000011
0
LINE
8
BLACK
6
CONTINUOUS
10
125.3720479999999924
20
-123.7498870000000011
11
125.5092700000000008
21
-123.7866559999999936
0
LINE
8
BLACK
6
CONTINUOUS
10
125.5092700000000008
20
-123.7866559999999936
11
125.7902209999999883
21
-123.8290059999999926
0
LINE
8
BLACK
6
CONTINUOUS
10
125.7902209999999883
20
-123.8290059999999926
11
126.0741469999999964
21
-123.8396329999999921
0
LINE
8
BLACK
6
CONTINUOUS
10
126.0741469999999964
20
-123.8396329999999921
11
126.3574780000000004
21
-123.8184029999999893
0
LINE
8
BLACK
6
CONTINUOUS
10
126.3574780000000004
20
-123.8184029999999893
11
126.6366499999999888
21
-123.7655849999999873
0
LINE
8
BLACK
6
CONTINUOUS
10
126.6366499999999888
20
-123.7655849999999873
11
126.9081539999999961
21
-123.681841999999989
0
LINE
8
BLACK
6
CONTINUOUS
10
126.9081539999999961
20
-123.681841999999989
11
127.1685739999999925
21
-123.5682269999999932
0
LINE
8
BLACK
6
CONTINUOUS
10
127.1685739999999925
20
-123.5682269999999932
11
127.2916049999999899
21
-123.4971979999999974
0
LINE
8
BLACK
6
CONTINUOUS
10
127.2916049999999899
20
-123.4971979999999974
11
127.2916059999999874
21
-123.4971969999999999
0
LINE
8
BLACK
6
CONTINUOUS
10
127.2916059999999874
20
-123.4971969999999999
11
142.0469410000000039
21
-114.9782029999999935
0
LINE
8
BLACK
6
CONTINUOUS
10
142.0469410000000039
20
-114.9782029999999935
11
142.0469449999999938
21
-114.9782009999999985
0
LINE
8
BLACK
6
CONTINUOUS
10
142.0469449999999938
20
-114.9782009999999985
11
142.0469510000000071
21
-114.9781949999999995
0
LINE
8
BLACK
6
CONTINUOUS
10
142.0469510000000071
20
-114.9781949999999995
11
142.0469510000000071
21
-114.978195999999997
0
LINE
8
BLACK
6
CONTINUOUS
10
142.0469510000000071
20
-114.978195999999997
11
142.2569049999999891
21
-114.8717979999999983
0
LINE
8
BLACK
6
CONTINUOUS
10
142.2569049999999891
20
-114.8717979999999983
11
142.4771920000000023
21
-114.7888829999999984
0
LINE
8
BLACK
6
CONTINUOUS
10
142.4771920000000023
20
-114.7888829999999984
11
142.7051950000000033
21
-114.7304359999999974
0
LINE
8
BLACK
6
CONTINUOUS
10
142.7051950000000033
20
-114.7304359999999974
11
142.9382039999999847
21
-114.6971519999999884
0
LINE
8
BLACK
6
CONTINUOUS
10
142.9382039999999847
20
-114.6971519999999884
11
143.1734519999999975
21
-114.6894259999999974
0
LINE
8
BLACK
6
CONTINUOUS
10
143.1734519999999975
20
-114.6894259999999974
11
143.4081429999999955
21
-114.7073509999999885
0
LINE
8
BLACK
6
CONTINUOUS
10
143.4081429999999955
20
-114.7073509999999885
11
143.6394889999999975
21
-114.7507119999999929
0
LINE
8
BLACK
6
CONTINUOUS
10
143.6394889999999975
20
-114.7507119999999929
11
143.6394970000000058
21
-114.7506799999999885
0
LINE
8
BLACK
6
CONTINUOUS
10
143.6394970000000058
20
-114.7506799999999885
11
143.6398619999999937
21
-114.7509060000000005
0
LINE
8
BLACK
6
CONTINUOUS
10
143.6398619999999937
20
-114.7509060000000005
11
143.6405619999999885
21
-114.7509519999999981
0
LINE
8
BLACK
6
CONTINUOUS
10
143.6405619999999885
20
-114.7509519999999981
11
144.7696880000000021
21
-115.053498999999988
0
LINE
8
BLACK
6
CONTINUOUS
10
144.7696880000000021
20
-115.053498999999988
11
144.7696889999999996
21
-115.0534929999999889
0
LINE
8
BLACK
6
CONTINUOUS
10
144.7696889999999996
20
-115.0534929999999889
11
144.9125219999999956
21
-115.0916869999999932
0
LINE
8
BLACK
6
CONTINUOUS
10
144.9125219999999956
20
-115.0916869999999932
11
145.2055289999999843
21
-115.1315209999999922
0
LINE
8
BLACK
6
CONTINUOUS
10
145.2055289999999843
20
-115.1315209999999922
11
145.5012199999999893
21
-115.134018999999995
0
LINE
8
BLACK
6
CONTINUOUS
10
145.5012199999999893
20
-115.134018999999995
11
145.7948570000000075
21
-115.0991379999999964
0
LINE
8
BLACK
6
CONTINUOUS
10
145.7948570000000075
20
-115.0991379999999964
11
146.0817349999999806
21
-115.0274399999999986
0
LINE
8
BLACK
6
CONTINUOUS
10
146.0817349999999806
20
-115.0274399999999986
11
146.3572560000000067
21
-114.9200719999999905
0
LINE
8
BLACK
6
CONTINUOUS
10
146.3572560000000067
20
-114.9200719999999905
11
146.617005000000006
21
-114.7787560000000013
0
LINE
8
BLACK
6
CONTINUOUS
10
146.617005000000006
20
-114.7787560000000013
11
146.8568180000000041
21
-114.6057559999999995
0
LINE
8
BLACK
6
CONTINUOUS
10
146.8568180000000041
20
-114.6057559999999995
11
147.0728540000000066
21
-114.4038439999999923
0
LINE
8
BLACK
6
CONTINUOUS
10
147.0728540000000066
20
-114.4038439999999923
11
147.2616490000000056
21
-114.1762559999999951
0
LINE
8
BLACK
6
CONTINUOUS
10
147.2616490000000056
20
-114.1762559999999951
11
147.4201779999999928
21
-113.9266399999999919
0
LINE
8
BLACK
6
CONTINUOUS
10
147.4201779999999928
20
-113.9266399999999919
11
147.5459009999999864
21
-113.6589960000000019
0
LINE
8
BLACK
6
CONTINUOUS
10
147.5459009999999864
20
-113.6589960000000019
11
147.6368019999999888
21
-113.3776129999999966
0
LINE
8
BLACK
6
CONTINUOUS
10
147.6368019999999888
20
-113.3776129999999966
11
147.691426000000007
21
-113.0869999999999891
0
LINE
8
BLACK
6
CONTINUOUS
10
147.691426000000007
20
-113.0869999999999891
11
147.7088959999999815
21
-112.7918149999999997
0
LINE
8
BLACK
6
CONTINUOUS
10
147.7088959999999815
20
-112.7918149999999997
11
147.6889329999999916
21
-112.4967869999999976
0
LINE
8
BLACK
6
CONTINUOUS
10
147.6889329999999916
20
-112.4967869999999976
11
147.6318569999999966
21
-112.2066459999999921
0
LINE
8
BLACK
6
CONTINUOUS
10
147.6318569999999966
20
-112.2066459999999921
11
147.538581999999991
21
-111.9260409999999979
0
LINE
8
BLACK
6
CONTINUOUS
10
147.538581999999991
20
-111.9260409999999979
11
147.4106029999999805
21
-111.6594679999999897
0
LINE
8
BLACK
6
CONTINUOUS
10
147.4106029999999805
20
-111.6594679999999897
11
147.249970999999988
21
-111.4111999999999938
0
LINE
8
BLACK
6
CONTINUOUS
10
147.249970999999988
20
-111.4111999999999938
11
147.0592599999999948
21
-111.1852159999999969
0
LINE
8
BLACK
6
CONTINUOUS
10
147.0592599999999948
20
-111.1852159999999969
11
146.841526999999985
21
-110.9851359999999971
0
LINE
8
BLACK
6
CONTINUOUS
10
146.841526999999985
20
-110.9851359999999971
11
146.6002609999999891
21
-110.8141669999999976
0
LINE
8
BLACK
6
CONTINUOUS
10
146.6002609999999891
20
-110.8141669999999976
11
146.3393279999999947
21
-110.6750499999999988
0
LINE
8
BLACK
6
CONTINUOUS
10
146.3393279999999947
20
-110.6750499999999988
11
146.062909999999988
21
-110.5700140000000005
0
LINE
8
BLACK
6
CONTINUOUS
10
146.062909999999988
20
-110.5700140000000005
11
145.7754359999999849
21
-110.5007409999999908
0
LINE
8
BLACK
6
CONTINUOUS
10
145.7754359999999849
20
-110.5007409999999908
11
145.4815150000000017
21
-110.4683419999999927
0
LINE
8
BLACK
6
CONTINUOUS
10
145.4815150000000017
20
-110.4683419999999927
11
145.1858550000000037
21
-110.4733370000000008
0
LINE
8
BLACK
6
CONTINUOUS
10
145.1858550000000037
20
-110.4733370000000008
11
144.8931949999999915
21
-110.5156449999999921
0
LINE
8
BLACK
6
CONTINUOUS
10
144.8931949999999915
20
-110.5156449999999921
11
144.6082260000000019
21
-110.5945880000000017
0
LINE
8
BLACK
6
CONTINUOUS
10
144.6082260000000019
20
-110.5945880000000017
11
144.3355129999999917
21
-110.7089009999999973
0
LINE
8
BLACK
6
CONTINUOUS
10
144.3355129999999917
20
-110.7089009999999973
11
144.2074329999999804
21
-110.7827619999999911
0
LINE
8
BLACK
6
CONTINUOUS
10
144.2074329999999804
20
-110.7827619999999911
11
144.2074329999999804
21
-110.7827609999999936
0
LINE
8
BLACK
6
CONTINUOUS
10
144.2074329999999804
20
-110.7827609999999936
11
127.0221959999999939
21
-120.7046569999999974
0
LINE
8
BLACK
6
CONTINUOUS
10
127.0221959999999939
20
-120.7046569999999974
11
127.0221839999999958
21
-120.7046599999999899
0
LINE
8
BLACK
6
CONTINUOUS
10
127.0221839999999958
20
-120.7046599999999899
11
126.8897449999999907
21
-120.7624519999999961
0
LINE
8
BLACK
6
CONTINUOUS
10
126.8897449999999907
20
-120.7624519999999961
11
126.7477519999999913
21
-120.7893259999999884
0
LINE
8
BLACK
6
CONTINUOUS
10
126.7477519999999913
20
-120.7893259999999884
11
126.6033389999999912
21
-120.7839269999999914
0
LINE
8
BLACK
6
CONTINUOUS
10
126.6033389999999912
20
-120.7839269999999914
11
126.4637489999999929
21
-120.7465279999999979
0
LINE
8
BLACK
6
CONTINUOUS
10
126.4637489999999929
20
-120.7465279999999979
11
126.3359799999999922
21
-120.6790039999999919
0
LINE
8
BLACK
6
CONTINUOUS
10
126.3359799999999922
20
-120.6790039999999919
11
126.2264419999999916
21
-120.584740999999994
0
LINE
8
BLACK
6
CONTINUOUS
10
126.2264419999999916
20
-120.584740999999994
11
126.1406259999999975
21
-120.4684659999999923
0
LINE
8
BLACK
6
CONTINUOUS
10
126.1406259999999975
20
-120.4684659999999923
11
126.0828369999999978
21
-120.3360099999999875
0
LINE
8
BLACK
6
CONTINUOUS
10
126.0828369999999978
20
-120.3360099999999875
11
126.055971999999997
21
-120.1940149999999932
0
LINE
8
BLACK
6
CONTINUOUS
10
126.055971999999997
20
-120.1940149999999932
11
126.0613779999999906
21
-120.0496029999999905
0
LINE
8
BLACK
6
CONTINUOUS
10
126.0613779999999906
20
-120.0496029999999905
11
126.0987849999999924
21
-119.9100139999999897
0
LINE
8
BLACK
6
CONTINUOUS
10
126.0987849999999924
20
-119.9100139999999897
11
126.1663159999999948
21
-119.7822499999999906
0
LINE
8
BLACK
6
CONTINUOUS
10
126.1663159999999948
20
-119.7822499999999906
11
126.2605859999999893
21
-119.6727169999999916
0
LINE
8
BLACK
6
CONTINUOUS
10
126.2605859999999893
20
-119.6727169999999916
11
126.3768659999999926
21
-119.586907999999994
0
LINE
8
BLACK
6
CONTINUOUS
10
126.3768659999999926
20
-119.586907999999994
11
126.3768859999999989
21
-119.5869429999999909
0
LINE
8
BLACK
6
CONTINUOUS
10
126.3768859999999989
20
-119.5869429999999909
11
126.4071129999999954
21
-119.5805199999999928
0
LINE
8
BLACK
6
CONTINUOUS
10
126.4071129999999954
20
-119.5805199999999928
11
126.4245559999999955
21
-119.588286999999994
0
LINE
8
BLACK
6
CONTINUOUS
10
126.4245559999999955
20
-119.588286999999994
11
144.5412629999999865
21
-109.1285999999999916
0
LINE
8
BLACK
6
CONTINUOUS
10
144.5412629999999865
20
-109.1285999999999916
11
144.5412629999999865
21
-109.1285989999999941
0
LINE
8
BLACK
6
CONTINUOUS
10
144.5412629999999865
20
-109.1285989999999941
11
144.541263999999984
21
-109.1285989999999941
0
LINE
8
BLACK
6
CONTINUOUS
10
144.541263999999984
20
-109.1285989999999941
11
144.5412489999999934
21
-109.1285740000000004
0
LINE
8
BLACK
6
CONTINUOUS
10
144.5412489999999934
20
-109.1285740000000004
11
144.6369770000000017
21
-109.0733089999999947
0
LINE
8
BLACK
6
CONTINUOUS
10
144.6369770000000017
20
-109.0733089999999947
11
144.8098190000000045
21
-108.9354779999999892
0
LINE
8
BLACK
6
CONTINUOUS
10
144.8098190000000045
20
-108.9354779999999892
11
144.9601889999999855
21
-108.7734249999999889
0
LINE
8
BLACK
6
CONTINUOUS
10
144.9601889999999855
20
-108.7734249999999889
11
145.0847249999999917
21
-108.5907709999999895
0
LINE
8
BLACK
6
CONTINUOUS
10
145.0847249999999917
20
-108.5907709999999895
11
145.1806469999999933
21
-108.3915949999999953
0
LINE
8
BLACK
6
CONTINUOUS
10
145.1806469999999933
20
-108.3915949999999953
11
145.2458110000000033
21
-108.1803469999999976
0
LINE
8
BLACK
6
CONTINUOUS
10
145.2458110000000033
20
-108.1803469999999976
11
145.2787620000000004
21
-107.9617469999999884
0
LINE
8
BLACK
6
CONTINUOUS
10
145.2787620000000004
20
-107.9617469999999884
11
145.2787629999999979
21
-107.8512119999999896
0
LINE
8
BLACK
6
CONTINUOUS
10
145.2787629999999979
20
-107.8512119999999896
11
145.2787629999999979
21
-107.8512109999999922
0
LINE
8
BLACK
6
CONTINUOUS
10
145.2787629999999979
20
-107.8512109999999922
11
145.2787620000000004
21
-94.0755869999999987
0
LINE
8
BLACK
6
CONTINUOUS
10
145.2787620000000004
20
-94.0755869999999987
11
145.2633109999999874
21
-94.064360999999991
0
LINE
8
BLACK
6
CONTINUOUS
10
145.2633109999999874
20
-94.064360999999991
11
145.2537619999999947
21
-94.0349709999999988
0
LINE
8
BLACK
6
CONTINUOUS
10
145.2537619999999947
20
-94.0349709999999988
11
145.2702999999999918
21
-93.7405419999999907
0
LINE
8
BLACK
6
CONTINUOUS
10
145.2702999999999918
20
-93.7405419999999907
11
145.3196979999999883
21
-93.449815000000001
0
LINE
8
BLACK
6
CONTINUOUS
10
145.3196979999999883
20
-93.449815000000001
11
145.4013359999999864
21
-93.1664469999999909
0
LINE
8
BLACK
6
CONTINUOUS
10
145.4013359999999864
20
-93.1664469999999909
11
145.5141869999999926
21
-92.8940009999999887
0
LINE
8
BLACK
6
CONTINUOUS
10
145.5141869999999926
20
-92.8940009999999887
11
145.6568319999999801
21
-92.635902999999999
0
LINE
8
BLACK
6
CONTINUOUS
10
145.6568319999999801
20
-92.635902999999999
11
145.8274769999999876
21
-92.3953989999999976
0
LINE
8
BLACK
6
CONTINUOUS
10
145.8274769999999876
20
-92.3953989999999976
11
146.0239770000000021
21
-92.1755119999999977
0
LINE
8
BLACK
6
CONTINUOUS
10
146.0239770000000021
20
-92.1755119999999977
11
146.0239819999999895
21
-92.1755179999999967
0
LINE
8
BLACK
6
CONTINUOUS
10
146.0239819999999895
20
-92.1755179999999967
11
146.0239839999999845
21
-92.1755160000000018
0
LINE
8
BLACK
6
CONTINUOUS
10
146.0239839999999845
20
-92.1755160000000018
11
148.3565739999999948
21
-89.8429220000000015
0
LINE
8
BLACK
6
CONTINUOUS
10
148.3565739999999948
20
-89.8429220000000015
11
148.3567239999999856
21
-89.8428210000000007
0
LINE
8
BLACK
6
CONTINUOUS
10
148.3567239999999856
20
-89.8428210000000007
11
148.457051000000007
21
-89.7424919999999986
0
LINE
8
BLACK
6
CONTINUOUS
10
148.457051000000007
20
-89.7424919999999986
11
148.6341999999999928
21
-89.520348999999996
0
LINE
8
BLACK
6
CONTINUOUS
10
148.6341999999999928
20
-89.520348999999996
11
148.7853619999999921
21
-89.2797690000000017
0
LINE
8
BLACK
6
CONTINUOUS
10
148.7853619999999921
20
-89.2797690000000017
11
148.9086379999999963
21
-89.023775999999998
0
LINE
8
BLACK
6
CONTINUOUS
10
148.9086379999999963
20
-89.023775999999998
11
149.002476999999999
21
-88.7555909999999955
0
LINE
8
BLACK
6
CONTINUOUS
10
149.002476999999999
20
-88.7555909999999955
11
149.0656979999999976
21
-88.4785859999999929
0
LINE
8
BLACK
6
CONTINUOUS
10
149.0656979999999976
20
-88.4785859999999929
11
149.0975080000000048
21
-88.196243999999993
0
LINE
8
BLACK
6
CONTINUOUS
10
149.0975080000000048
20
-88.196243999999993
11
149.0975070000000073
21
-88.0541789999999907
0
LINE
8
BLACK
6
CONTINUOUS
10
149.0975070000000073
20
-88.0541789999999907
11
149.0975070000000073
21
-71.0161829999999981
0
LINE
8
BLACK
6
CONTINUOUS
10
149.0975070000000073
20
-71.0161829999999981
11
149.0975080000000048
21
-71.0161760000000015
0
LINE
8
BLACK
6
CONTINUOUS
10
149.0975080000000048
20
-71.0161760000000015
11
149.0975070000000073
21
-71.0161719999999974
0
LINE
8
BLACK
6
CONTINUOUS
10
149.0975070000000073
20
-71.0161719999999974
11
149.1103379999999845
21
-70.78114699999999
0
LINE
8
BLACK
6
CONTINUOUS
10
149.1103379999999845
20
-70.78114699999999
11
149.1486730000000023
21
-70.5489139999999963
0
LINE
8
BLACK
6
CONTINUOUS
10
149.1486730000000023
20
-70.5489139999999963
11
149.2120559999999898
21
-70.3222329999999971
0
LINE
8
BLACK
6
CONTINUOUS
10
149.2120559999999898
20
-70.3222329999999971
11
149.2997340000000008
21
-70.1037979999999976
0
LINE
8
BLACK
6
CONTINUOUS
10
149.2997340000000008
20
-70.1037979999999976
11
149.4106649999999945
21
-69.8962020000000024
0
LINE
8
BLACK
6
CONTINUOUS
10
149.4106649999999945
20
-69.8962020000000024
11
149.543531999999999
21
-69.7019140000000021
0
LINE
8
BLACK
6
CONTINUOUS
10
149.543531999999999
20
-69.7019140000000021
11
149.6967559999999935
21
-69.5232409999999987
0
LINE
8
BLACK
6
CONTINUOUS
10
149.6967559999999935
20
-69.5232409999999987
11
149.6967449999999928
21
-69.5232309999999956
0
LINE
8
BLACK
6
CONTINUOUS
10
149.6967449999999928
20
-69.5232309999999956
11
149.6971249999999998
21
-69.5230260000000015
0
LINE
8
BLACK
6
CONTINUOUS
10
149.6971249999999998
20
-69.5230260000000015
11
149.697513999999984
21
-69.5224449999999905
0
LINE
8
BLACK
6
CONTINUOUS
10
149.697513999999984
20
-69.5224449999999905
11
150.5240869999999802
21
-68.6958679999999902
0
LINE
8
BLACK
6
CONTINUOUS
10
150.5240869999999802
20
-68.6958679999999902
11
150.5240890000000036
21
-68.6958659999999952
0
LINE
8
BLACK
6
CONTINUOUS
10
150.5240890000000036
20
-68.6958659999999952
11
150.5240239999999972
21
-68.695801000000003
0
LINE
8
BLACK
6
CONTINUOUS
10
150.5240239999999972
20
-68.695801000000003
11
150.6285149999999931
21
-68.5912019999999956
0
LINE
8
BLACK
6
CONTINUOUS
10
150.6285149999999931
20
-68.5912019999999956
11
150.8095109999999863
21
-68.3573710000000005
0
LINE
8
BLACK
6
CONTINUOUS
10
150.8095109999999863
20
-68.3573710000000005
11
150.9595149999999819
21
-68.1025470000000013
0
LINE
8
BLACK
6
CONTINUOUS
10
150.9595149999999819
20
-68.1025470000000013
11
151.0761229999999955
21
-67.830812999999992
0
LINE
8
BLACK
6
CONTINUOUS
10
151.0761229999999955
20
-67.830812999999992
11
151.1574659999999994
21
-67.5465239999999909
0
LINE
8
BLACK
6
CONTINUOUS
10
151.1574659999999994
20
-67.5465239999999909
11
151.2022399999999891
21
-67.2542370000000034
0
LINE
8
BLACK
6
CONTINUOUS
10
151.2022399999999891
20
-67.2542370000000034
11
151.2097289999999816
21
-66.958635000000001
0
LINE
8
BLACK
6
CONTINUOUS
10
151.2097289999999816
20
-66.958635000000001
11
151.1798110000000008
21
-66.6644550000000038
0
LINE
8
BLACK
6
CONTINUOUS
10
151.1798110000000008
20
-66.6644550000000038
11
151.1129669999999976
21
-66.3764129999999994
0
LINE
8
BLACK
6
CONTINUOUS
10
151.1129669999999976
20
-66.3764129999999994
11
151.0102679999999964
21
-66.0991229999999916
0
LINE
8
BLACK
6
CONTINUOUS
10
151.0102679999999964
20
-66.0991229999999916
11
150.8733589999999936
21
-65.8370299999999986
0
LINE
8
BLACK
6
CONTINUOUS
10
150.8733589999999936
20
-65.8370299999999986
11
150.7044349999999895
21
-65.5943340000000035
0
LINE
8
BLACK
6
CONTINUOUS
10
150.7044349999999895
20
-65.5943340000000035
11
150.5062020000000018
21
-65.3749249999999904
0
LINE
8
BLACK
6
CONTINUOUS
10
150.5062020000000018
20
-65.3749249999999904
11
150.2818379999999934
21
-65.1823179999999951
0
LINE
8
BLACK
6
CONTINUOUS
10
150.2818379999999934
20
-65.1823179999999951
11
150.0349379999999826
21
-65.019599999999997
0
LINE
8
BLACK
6
CONTINUOUS
10
150.0349379999999826
20
-65.019599999999997
11
149.7694589999999835
21
-64.8893800000000027
0
LINE
8
BLACK
6
CONTINUOUS
10
149.7694589999999835
20
-64.8893800000000027
11
149.4896549999999991
21
-64.7937419999999946
0
LINE
8
BLACK
6
CONTINUOUS
10
149.4896549999999991
20
-64.7937419999999946
11
149.2000109999999893
21
-64.7342220000000026
0
LINE
8
BLACK
6
CONTINUOUS
10
149.2000109999999893
20
-64.7342220000000026
11
148.9051670000000058
21
-64.7117709999999988
0
LINE
8
BLACK
6
CONTINUOUS
10
148.9051670000000058
20
-64.7117709999999988
11
148.6098499999999945
21
-64.726750999999993
0
LINE
8
BLACK
6
CONTINUOUS
10
148.6098499999999945
20
-64.726750999999993
11
148.318792000000002
21
-64.7789199999999994
0
LINE
8
BLACK
6
CONTINUOUS
10
148.318792000000002
20
-64.7789199999999994
11
148.0366559999999936
21
-64.8674439999999919
0
LINE
8
BLACK
6
CONTINUOUS
10
148.0366559999999936
20
-64.8674439999999919
11
147.7679660000000013
21
-64.9909019999999913
0
LINE
8
BLACK
6
CONTINUOUS
10
147.7679660000000013
20
-64.9909019999999913
11
147.5170259999999871
21
-65.1473179999999985
0
LINE
8
BLACK
6
CONTINUOUS
10
147.5170259999999871
20
-65.1473179999999985
11
147.2878579999999999
21
-65.3341829999999959
0
LINE
8
BLACK
6
CONTINUOUS
10
147.2878579999999999
20
-65.3341829999999959
11
147.0841350000000034
21
-65.5485039999999941
0
LINE
8
BLACK
6
CONTINUOUS
10
147.0841350000000034
20
-65.5485039999999941
11
146.909120999999999
21
-65.786845999999997
0
LINE
8
BLACK
6
CONTINUOUS
10
146.909120999999999
20
-65.786845999999997
11
146.7656209999999817
21
-66.0453890000000001
0
LINE
8
BLACK
6
CONTINUOUS
10
146.7656209999999817
20
-66.0453890000000001
11
146.6559349999999995
21
-66.31998999999999
0
LINE
8
BLACK
6
CONTINUOUS
10
146.6559349999999995
20
-66.31998999999999
11
146.5818209999999908
21
-66.6062479999999937
0
LINE
8
BLACK
6
CONTINUOUS
10
146.5818209999999908
20
-66.6062479999999937
11
146.5444659999999999
21
-66.8995759999999962
0
LINE
8
BLACK
6
CONTINUOUS
10
146.5444659999999999
20
-66.8995759999999962
11
146.5443929999999852
21
-67.0474239999999924
0
LINE
8
BLACK
6
CONTINUOUS
10
146.5443929999999852
20
-67.0474239999999924
11
146.5443929999999852
21
-67.047425000000004
0
LINE
8
BLACK
6
CONTINUOUS
10
146.5443929999999852
20
-67.047425000000004
11
146.5443889999999953
21
-86.8912270000000007
0
LINE
8
BLACK
6
CONTINUOUS
10
146.5443889999999953
20
-86.8912270000000007
11
146.5443879999999979
21
-86.8912279999999981
0
LINE
8
BLACK
6
CONTINUOUS
10
146.5443879999999979
20
-86.8912279999999981
11
146.5443889999999953
21
-86.8912289999999956
0
LINE
8
BLACK
6
CONTINUOUS
10
146.5443889999999953
20
-86.8912289999999956
11
146.5282049999999856
21
-87.0348149999999947
0
LINE
8
BLACK
6
CONTINUOUS
10
146.5282049999999856
20
-87.0348149999999947
11
146.4804759999999817
21
-87.1711990000000014
0
LINE
8
BLACK
6
CONTINUOUS
10
146.4804759999999817
20
-87.1711990000000014
11
146.4035969999999907
21
-87.2935439999999971
0
LINE
8
BLACK
6
CONTINUOUS
10
146.4035969999999907
20
-87.2935439999999971
11
146.3014210000000048
21
-87.3957149999999956
0
LINE
8
BLACK
6
CONTINUOUS
10
146.3014210000000048
20
-87.3957149999999956
11
146.1790729999999883
21
-87.4725889999999993
0
LINE
8
BLACK
6
CONTINUOUS
10
146.1790729999999883
20
-87.4725889999999993
11
146.0426860000000033
21
-87.5203109999999924
0
LINE
8
BLACK
6
CONTINUOUS
10
146.0426860000000033
20
-87.5203109999999924
11
145.8990990000000068
21
-87.5364890000000031
0
LINE
8
BLACK
6
CONTINUOUS
10
145.8990990000000068
20
-87.5364890000000031
11
145.7555129999999792
21
-87.5203109999999924
0
LINE
8
BLACK
6
CONTINUOUS
10
145.7555129999999792
20
-87.5203109999999924
11
145.6191269999999918
21
-87.4725889999999993
0
LINE
8
BLACK
6
CONTINUOUS
10
145.6191269999999918
20
-87.4725889999999993
11
145.4967780000000062
21
-87.3957149999999956
0
LINE
8
BLACK
6
CONTINUOUS
10
145.4967780000000062
20
-87.3957149999999956
11
145.3946029999999894
21
-87.2935439999999971
0
LINE
8
BLACK
6
CONTINUOUS
10
145.3946029999999894
20
-87.2935439999999971
11
145.3177230000000009
21
-87.1711979999999897
0
LINE
8
BLACK
6
CONTINUOUS
10
145.3177230000000009
20
-87.1711979999999897
11
145.2699949999999944
21
-87.0348139999999972
0
LINE
8
BLACK
6
CONTINUOUS
10
145.2699949999999944
20
-87.0348139999999972
11
145.2538109999999847
21
-86.8912279999999981
0
LINE
8
BLACK
6
CONTINUOUS
10
145.2538109999999847
20
-86.8912279999999981
11
145.2537649999999871
21
-86.8912279999999981
0
LINE
8
BLACK
6
CONTINUOUS
10
145.2537649999999871
20
-86.8912279999999981
11
145.2633129999999824
21
-86.8618389999999891
0
LINE
8
BLACK
6
CONTINUOUS
10
145.2633129999999824
20
-86.8618389999999891
11
145.2787629999999979
21
-86.8506119999999981
0
LINE
8
BLACK
6
CONTINUOUS
10
145.2787629999999979
20
-86.8506119999999981
11
145.2787629999999979
21
-65.9312359999999984
0
LINE
8
BLACK
6
CONTINUOUS
10
145.2787629999999979
20
-65.9312359999999984
11
145.2787629999999979
21
-65.9312350000000009
0
LINE
8
BLACK
6
CONTINUOUS
10
145.2787629999999979
20
-65.9312350000000009
11
145.2787500000000023
21
-65.9312350000000009
0
LINE
8
BLACK
6
CONTINUOUS
10
145.2787500000000023
20
-65.9312350000000009
11
145.2787529999999947
21
-65.8207000000000022
0
LINE
8
BLACK
6
CONTINUOUS
10
145.2787529999999947
20
-65.8207000000000022
11
145.2458079999999825
21
-65.6020970000000005
0
LINE
8
BLACK
6
CONTINUOUS
10
145.2458079999999825
20
-65.6020970000000005
11
145.1806489999999883
21
-65.3908459999999963
0
LINE
8
BLACK
6
CONTINUOUS
10
145.1806489999999883
20
-65.3908459999999963
11
145.084731000000005
21
-65.1916659999999979
0
LINE
8
BLACK
6
CONTINUOUS
10
145.084731000000005
20
-65.1916659999999979
11
144.9601979999999912
21
-65.0090079999999944
0
LINE
8
BLACK
6
CONTINUOUS
10
144.9601979999999912
20
-65.0090079999999944
11
144.8098320000000001
21
-64.84695099999999
0
LINE
8
BLACK
6
CONTINUOUS
10
144.8098320000000001
20
-64.84695099999999
11
144.6369899999999973
21
-64.7091159999999945
0
LINE
8
BLACK
6
CONTINUOUS
10
144.6369899999999973
20
-64.7091159999999945
11
144.5412629999999865
21
-64.6538489999999939
0
LINE
8
BLACK
6
CONTINUOUS
10
144.5412629999999865
20
-64.6538489999999939
11
132.6112249999999904
21
-57.7660369999999972
0
LINE
8
BLACK
6
CONTINUOUS
10
132.6112249999999904
20
-57.7660369999999972
11
132.5937769999999887
21
-57.7738060000000004
0
LINE
8
BLACK
6
CONTINUOUS
10
132.5937769999999887
20
-57.7738060000000004
11
132.5635509999999897
21
-57.7673810000000003
0
LINE
8
BLACK
6
CONTINUOUS
10
132.5635509999999897
20
-57.7673810000000003
11
132.3168349999999975
21
-57.6058459999999997
0
LINE
8
BLACK
6
CONTINUOUS
10
132.3168349999999975
20
-57.6058459999999997
11
132.0897549999999967
21
-57.4177029999999959
0
LINE
8
BLACK
6
CONTINUOUS
10
132.0897549999999967
20
-57.4177029999999959
11
131.8851689999999905
21
-57.2053189999999958
0
LINE
8
BLACK
6
CONTINUOUS
10
131.8851689999999905
20
-57.2053189999999958
11
131.7056479999999965
21
-56.9713639999999941
0
LINE
8
BLACK
6
CONTINUOUS
10
131.7056479999999965
20
-56.9713639999999941
11
131.5534509999999955
21
-56.7187809999999999
0
LINE
8
BLACK
6
CONTINUOUS
10
131.5534509999999955
20
-56.7187809999999999
11
131.4304909999999893
21
-56.4507440000000003
0
LINE
8
BLACK
6
CONTINUOUS
10
131.4304909999999893
20
-56.4507440000000003
11
131.3383139999999969
21
-56.1706259999999986
0
LINE
8
BLACK
6
CONTINUOUS
10
131.3383139999999969
20
-56.1706259999999986
11
131.338325999999995
21
-56.1706229999999991
0
LINE
8
BLACK
6
CONTINUOUS
10
131.338325999999995
20
-56.1706229999999991
11
130.4845379999999864
21
-52.9842399999999998
0
LINE
8
BLACK
6
CONTINUOUS
10
130.4845379999999864
20
-52.9842399999999998
11
130.4845339999999965
21
-52.9842409999999973
0
LINE
8
BLACK
6
CONTINUOUS
10
130.4845339999999965
20
-52.9842409999999973
11
130.447765000000004
21
-52.847018999999996
0
LINE
8
BLACK
6
CONTINUOUS
10
130.447765000000004
20
-52.847018999999996
11
130.3439610000000073
21
-52.5825339999999954
0
LINE
8
BLACK
6
CONTINUOUS
10
130.3439610000000073
20
-52.5825339999999954
11
130.211197999999996
21
-52.3313330000000008
0
LINE
8
BLACK
6
CONTINUOUS
10
130.211197999999996
20
-52.3313330000000008
11
130.0511449999999911
21
-52.0965769999999964
0
LINE
8
BLACK
6
CONTINUOUS
10
130.0511449999999911
20
-52.0965769999999964
11
129.8658140000000003
21
-51.8812159999999949
0
LINE
8
BLACK
6
CONTINUOUS
10
129.8658140000000003
20
-51.8812159999999949
11
129.6575369999999907
21
-51.6879589999999993
0
LINE
8
BLACK
6
CONTINUOUS
10
129.6575369999999907
20
-51.6879589999999993
11
129.4289320000000032
21
-51.5192359999999994
0
LINE
8
BLACK
6
CONTINUOUS
10
129.4289320000000032
20
-51.5192359999999994
11
129.3059020000000032
21
-51.4482029999999995
0
LINE
8
BLACK
6
CONTINUOUS
10
129.3059020000000032
20
-51.4482029999999995
11
129.3059000000000083
21
-51.4482009999999974
0
LINE
8
BLACK
6
CONTINUOUS
10
129.3059000000000083
20
-51.4482009999999974
11
114.5505649999999918
21
-42.9292049999999961
0
LINE
8
BLACK
6
CONTINUOUS
10
114.5505649999999918
20
-42.9292049999999961
11
114.5505619999999993
21
-42.9292019999999965
0
LINE
8
BLACK
6
CONTINUOUS
10
114.5505619999999993
20
-42.9292019999999965
11
114.5505589999999927
21
-42.9292019999999965
0
LINE
8
BLACK
6
CONTINUOUS
10
114.5505589999999927
20
-42.9292019999999965
11
114.3534289999999913
21
-42.800582999999996
0
LINE
8
BLACK
6
CONTINUOUS
10
114.3534289999999913
20
-42.800582999999996
11
114.1714699999999993
21
-42.6512719999999987
0
LINE
8
BLACK
6
CONTINUOUS
10
114.1714699999999993
20
-42.6512719999999987
11
114.0068419999999918
21
-42.483042999999995
0
LINE
8
BLACK
6
CONTINUOUS
10
114.0068419999999918
20
-42.483042999999995
11
113.861502999999999
21
-42.2978960000000015
0
LINE
8
BLACK
6
CONTINUOUS
10
113.861502999999999
20
-42.2978960000000015
11
113.7371780000000001
21
-42.0980289999999968
0
LINE
8
BLACK
6
CONTINUOUS
10
113.7371780000000001
20
-42.0980289999999968
11
113.6353459999999984
21
-41.8858189999999979
0
LINE
8
BLACK
6
CONTINUOUS
10
113.6353459999999984
20
-41.8858189999999979
11
113.5572169999999943
21
-41.6637849999999972
0
LINE
8
BLACK
6
CONTINUOUS
10
113.5572169999999943
20
-41.6637849999999972
11
113.5572499999999962
21
-41.6637750000000011
0
LINE
8
BLACK
6
CONTINUOUS
10
113.5572499999999962
20
-41.6637750000000011
11
113.5572629999999918
21
-41.663343999999995
0
LINE
8
BLACK
6
CONTINUOUS
10
113.5572629999999918
20
-41.663343999999995
11
113.5569529999999929
21
-41.6627159999999961
0
LINE
8
BLACK
6
CONTINUOUS
10
113.5569529999999929
20
-41.6627159999999961
11
113.2544019999999989
21
-40.5335929999999962
0
LINE
8
BLACK
6
CONTINUOUS
10
113.2544019999999989
20
-40.5335929999999962
11
113.2543989999999923
21
-40.5335940000000008
0
LINE
8
BLACK
6
CONTINUOUS
10
113.2543989999999923
20
-40.5335940000000008
11
113.2160599999999988
21
-40.3907999999999987
0
LINE
8
BLACK
6
CONTINUOUS
10
113.2160599999999988
20
-40.3907999999999987
11
113.1040539999999908
21
-40.1171329999999955
0
LINE
8
BLACK
6
CONTINUOUS
10
113.1040539999999908
20
-40.1171329999999955
11
112.9583709999999996
21
-39.8598089999999985
0
LINE
8
BLACK
6
CONTINUOUS
10
112.9583709999999996
20
-39.8598089999999985
11
112.7813450000000017
21
-39.622951999999998
0
LINE
8
BLACK
6
CONTINUOUS
10
112.7813450000000017
20
-39.622951999999998
11
112.5758129999999966
21
-39.4103589999999997
0
LINE
8
BLACK
6
CONTINUOUS
10
112.5758129999999966
20
-39.4103589999999997
11
112.3450699999999927
21
-39.2254349999999974
0
LINE
8
BLACK
6
CONTINUOUS
10
112.3450699999999927
20
-39.2254349999999974
11
112.0928129999999925
21
-39.0711450000000013
0
LINE
8
BLACK
6
CONTINUOUS
10
112.0928129999999925
20
-39.0711450000000013
11
111.8230839999999944
21
-38.9499609999999947
0
LINE
8
BLACK
6
CONTINUOUS
10
111.8230839999999944
20
-38.9499609999999947
11
111.5402059999999977
21
-38.8638249999999985
0
LINE
8
BLACK
6
CONTINUOUS
10
111.5402059999999977
20
-38.8638249999999985
11
111.2487119999999976
21
-38.8141180000000006
0
LINE
8
BLACK
6
CONTINUOUS
10
111.2487119999999976
20
-38.8141180000000006
11
110.9532749999999908
21
-38.8016359999999949
0
LINE
8
BLACK
6
CONTINUOUS
10
110.9532749999999908
20
-38.8016359999999949
11
110.6586269999999956
21
-38.8265789999999953
  0
ENDSEC
  0
EOF
